<svg width="36" height="25" viewBox="0 0 36 25" fill="none" xmlns="http://www.w3.org/2000/svg">
<path fill-rule="evenodd" clip-rule="evenodd" d="M33 2.38062H3C2.44772 2.38062 2 2.82833 2 3.38062V21.3806C2 21.9329 2.44772 22.3806 3 22.3806H33C33.5523 22.3806 34 21.9329 34 21.3806V3.38062C34 2.82833 33.5523 2.38062 33 2.38062ZM3 0.380615C1.34315 0.380615 0 1.72376 0 3.38062V21.3806C0 23.0375 1.34315 24.3806 3 24.3806H33C34.6569 24.3806 36 23.0375 36 21.3806V3.38062C36 1.72376 34.6569 0.380615 33 0.380615H3Z" fill="#57534E"/>
<path d="M0.0517578 4.8418H36V9.8418H0.0517578V4.8418Z" fill="#57534E"/>
<path fill-rule="evenodd" clip-rule="evenodd" d="M35 5.8418H1.05176V8.8418H35V5.8418ZM0.0517578 4.8418V9.8418H36V4.8418H0.0517578Z" fill="#57534E"/>
<path fill-rule="evenodd" clip-rule="evenodd" d="M11.0518 18.3806C11.0518 18.9329 10.604 19.3806 10.0518 19.3806L6.05176 19.3806C5.49947 19.3806 5.05176 18.9329 5.05176 18.3806C5.05176 17.8283 5.49947 17.3806 6.05176 17.3806L10.0518 17.3806C10.604 17.3806 11.0518 17.8283 11.0518 18.3806Z" fill="#57534E"/>
<path fill-rule="evenodd" clip-rule="evenodd" d="M21.0518 18.3806C21.0518 18.9329 20.604 19.3806 20.0518 19.3806L14.0518 19.3806C13.4995 19.3806 13.0518 18.9329 13.0518 18.3806C13.0518 17.8283 13.4995 17.3806 14.0518 17.3806L20.0518 17.3806C20.604 17.3806 21.0518 17.8283 21.0518 18.3806Z" fill="#57534E"/>
</svg>
