<svg width="64" height="27" viewBox="0 0 64 27" fill="none" xmlns="http://www.w3.org/2000/svg">
<g clip-path="url(#clip0_841_2963)">
<path d="M30.2697 13.0894V20.5395H27.9062V2.14113H34.1746C34.9228 2.1255 35.6667 2.2582 36.3634 2.53158C37.06 2.80495 37.6957 3.21359 38.2336 3.7339C38.7769 4.22262 39.2093 4.82199 39.5018 5.49172C39.7942 6.16145 39.9399 6.88602 39.9291 7.61673C39.9447 8.35136 39.8012 9.08066 39.5085 9.75466C39.2159 10.4287 38.781 11.0314 38.2336 11.5216C37.1375 12.5668 35.7845 13.0889 34.1746 13.0879H30.2697V13.0894ZM30.2697 4.40624V10.8287H34.2333C34.6678 10.8416 35.1002 10.7636 35.5029 10.5998C35.9056 10.436 36.2697 10.19 36.5718 9.87744C36.8724 9.58522 37.1113 9.23569 37.2744 8.84953C37.4376 8.46337 37.5216 8.04842 37.5216 7.62921C37.5216 7.21 37.4376 6.79505 37.2744 6.40889C37.1113 6.02273 36.8724 5.67321 36.5718 5.38098C36.2734 5.06185 35.9107 4.80978 35.5075 4.64148C35.1043 4.47318 34.67 4.3925 34.2333 4.40477H30.2697V4.40624Z" fill="#57534E"/>
<path d="M45.3752 7.54028C47.1221 7.54028 48.5011 8.0071 49.512 8.94075C50.523 9.87439 51.028 11.1545 51.027 12.781V20.5393H48.7663V18.7924H48.6635C47.6849 20.2311 46.3832 20.9504 44.7587 20.9504C43.3719 20.9504 42.2117 20.5393 41.2781 19.7173C40.83 19.34 40.4718 18.8674 40.2295 18.3341C39.9872 17.8008 39.867 17.2202 39.8776 16.6345C39.8776 15.3319 40.3699 14.296 41.3544 13.5267C42.3389 12.7575 43.6533 12.3719 45.2974 12.37C46.7008 12.37 47.8566 12.6269 48.7648 13.1407V12.6004C48.7675 12.2012 48.6813 11.8063 48.5124 11.4445C48.3436 11.0827 48.0963 10.763 47.7886 10.5086C47.1636 9.94467 46.3491 9.637 45.5073 9.64685C44.1871 9.64685 43.1424 10.2037 42.3732 11.3174L40.2916 10.0065C41.4366 8.36236 43.1312 7.54028 45.3752 7.54028ZM42.3174 16.6859C42.3158 16.9867 42.3861 17.2835 42.5225 17.5516C42.6588 17.8197 42.8573 18.0514 43.1013 18.2273C43.624 18.6384 44.2728 18.8563 44.9378 18.8438C45.9351 18.8421 46.8911 18.4452 47.5963 17.7399C48.3792 17.003 48.7707 16.1383 48.7707 15.1459C48.0338 14.5587 47.0062 14.2651 45.6879 14.2651C44.7278 14.2651 43.9273 14.4966 43.2863 14.9595C42.6389 15.4293 42.3174 16.0003 42.3174 16.6859Z" fill="#57534E"/>
<path d="M64.0045 7.95142L56.1126 26.0884H53.6728L56.6015 19.7423L51.4121 7.95142H53.9811L57.7318 16.9942H57.7832L61.4311 7.95142H64.0045Z" fill="#57534E"/>
<path d="M20.719 11.4834C20.7199 10.7631 20.659 10.0441 20.537 9.33423H10.5693V13.405H16.2784C16.1615 14.0551 15.9143 14.6749 15.5515 15.2269C15.1887 15.7789 14.7178 16.2518 14.1674 16.6169V19.2593H17.5746C19.5696 17.4199 20.719 14.6997 20.719 11.4834Z" fill="#78716C"/>
<path d="M10.5696 21.8123C13.4219 21.8123 15.8235 20.8757 17.5748 19.2609L14.1676 16.6185C13.2193 17.2615 11.9979 17.6285 10.5696 17.6285C7.81268 17.6285 5.4727 15.77 4.63594 13.2656H1.12598V15.9887C2.0057 17.7393 3.35465 19.2109 5.02223 20.2392C6.68982 21.2676 8.6104 21.8122 10.5696 21.8123Z" fill="#57534E"/>
<path d="M4.63543 13.2655C4.19307 11.9532 4.19307 10.532 4.63543 9.21971V6.49658H1.12547C0.385418 7.9692 0 9.59448 0 11.2426C0 12.8907 0.385418 14.516 1.12547 15.9886L4.63543 13.2655Z" fill="#A8A29E"/>
<path d="M10.5696 4.85683C12.0769 4.83221 13.5333 5.40171 14.6242 6.44226L17.6409 3.42554C15.728 1.62883 13.1938 0.642406 10.5696 0.673057C8.6104 0.673146 6.68982 1.21776 5.02223 2.2461C3.35465 3.27444 2.0057 4.74603 1.12598 6.49658L4.63594 9.2197C5.4727 6.71531 7.81268 4.85683 10.5696 4.85683Z" fill="#78716C"/>
</g>
<defs>
<clipPath id="clip0_841_2963">
<rect width="64" height="25.4153" fill="white" transform="translate(0 0.673096)"/>
</clipPath>
</defs>
</svg>
