<svg width="64" height="42" viewBox="0 0 64 42" fill="none" xmlns="http://www.w3.org/2000/svg">
<path d="M47.2293 12.7744L45.991 15.6494H48.4743L47.2293 12.7744ZM32.9401 14.556C33.1735 14.4393 33.3109 14.1855 33.3109 13.8704C33.3109 13.5615 33.1665 13.3379 32.9332 13.2328C32.7206 13.1162 32.3935 13.1028 32.0799 13.1028H29.8645V14.7047H32.0502C32.4002 14.7048 32.6928 14.6998 32.9401 14.556ZM4.55278 12.7744L3.32849 15.6494H5.78445L4.55278 12.7744ZM61.5538 31.1925H58.0794V29.6456H61.5398C61.8828 29.6456 62.1231 29.6026 62.2677 29.4669C62.4045 29.3461 62.4818 29.1752 62.4804 28.9966C62.4804 28.7864 62.3933 28.6195 62.2605 28.5196C62.1302 28.4095 61.9399 28.3594 61.6266 28.3594C59.9373 28.3044 57.8298 28.4094 57.8298 26.1267C57.8298 25.0805 58.5232 23.9793 60.4112 23.9793H63.995V22.544H60.6654C59.6606 22.544 58.9305 22.7746 58.4136 23.1332V22.544H53.4887C52.7013 22.544 51.7769 22.731 51.3397 23.1332V22.544H42.5447V23.1332C41.8448 22.6494 40.6636 22.544 40.1188 22.544H34.3176V23.1332C33.764 22.6194 32.5323 22.544 31.7821 22.544H25.2896L23.8041 24.0845L22.4126 22.544H12.7142V32.6101H22.2297L23.7603 31.0449L25.2024 32.6101L31.0677 32.615V30.2471H31.6446C32.4227 30.2591 33.3406 30.2288 34.1506 29.8934V32.6097H38.9885V29.9861H39.2218C39.5195 29.9861 39.549 29.998 39.549 30.2832V32.6092H54.2461C55.1792 32.6092 56.1546 32.3806 56.6946 31.9648V32.6092H61.3565C62.3265 32.6092 63.2739 32.4789 63.9948 32.1453V30.2702C63.5579 30.8825 62.706 31.1929 61.5536 31.1929L61.5538 31.1925ZM31.7216 28.8157H29.4767V31.2352H25.9798L23.7644 28.8474L21.4622 31.2352H14.3358V24.0218H21.5719L23.7853 26.3863L26.0737 24.0218H31.8225C33.2503 24.0218 34.8545 24.4006 34.8545 26.3982C34.8545 28.4021 33.2942 28.8157 31.7216 28.8157ZM42.5163 28.4886C42.7704 28.8407 42.8071 29.1694 42.8144 29.8053V31.2353H41.008V30.3329C41.008 29.8989 41.0517 29.2563 40.7172 28.9209C40.4546 28.6626 40.0537 28.6009 39.3972 28.6009H37.4745V31.2353H35.6669V24.0218H39.8203C40.7315 24.0218 41.3947 24.0607 41.9851 24.3622C42.5529 24.6909 42.9103 25.1412 42.9103 25.9641C42.9101 27.1153 42.1087 27.7027 41.6351 27.8832C42.0354 28.0247 42.3626 28.2785 42.5163 28.4886ZM49.9481 25.5136H45.7351V26.825H49.8451V28.2968H45.7351V29.732L49.9481 29.7384V31.2352H43.9434V24.0218H49.9481V25.5136ZM54.5712 31.2351H51.0672V29.6883H54.5572C54.8985 29.6883 55.1405 29.6451 55.2921 29.5096C55.4158 29.3981 55.5047 29.2359 55.5047 29.0394C55.5047 28.8291 55.4084 28.6622 55.2852 28.5621C55.1475 28.4521 54.9575 28.4023 54.6444 28.4023C52.9619 28.347 50.8548 28.452 50.8548 26.1695C50.8548 25.1231 51.541 24.0218 53.4271 24.0218H57.0341V25.5569H53.7336C53.4064 25.5569 53.1938 25.5689 53.0129 25.6876C52.8156 25.8044 52.7426 25.9776 52.7426 26.2063C52.7426 26.4784 52.91 26.6636 53.1362 26.7436C53.326 26.8069 53.5298 26.8254 53.8363 26.8254L54.8049 26.8507C55.7813 26.8731 56.4519 27.0353 56.8595 27.4307C57.2095 27.7779 57.3977 28.2165 57.3977 28.9589C57.3975 30.5107 56.3856 31.2351 54.5712 31.2351ZM40.6175 25.63C40.4002 25.5062 40.0793 25.4997 39.7592 25.4997H37.5437V27.1197H39.7296C40.0795 27.1197 40.3771 27.1078 40.6175 26.971C40.8507 26.836 40.9903 26.5872 40.9903 26.2787C40.9903 25.9701 40.8507 25.7468 40.6175 25.63ZM60.7193 25.4995C60.392 25.4995 60.1744 25.5114 59.9912 25.6298C59.8014 25.7468 59.7285 25.92 59.7285 26.1489C59.7285 26.4208 59.8887 26.606 60.1218 26.6862C60.3118 26.7495 60.5154 26.7679 60.815 26.7679L61.7904 26.7928C62.7742 26.8162 63.4312 26.9784 63.8317 27.3737C63.9047 27.4285 63.9485 27.4902 63.9986 27.5521V25.4997H60.7194L60.7193 25.4995ZM31.7839 25.4995H29.438V27.3367H31.763C32.4542 27.3367 32.8841 27.008 32.8844 26.384C32.8841 25.7532 32.4334 25.4995 31.7839 25.4995ZM16.1277 25.4995V26.811H20.0773V28.2828H16.1277V29.7179H20.551L22.6061 27.6017L20.6383 25.4995H16.1277ZM27.678 30.5439V24.7608L24.9159 27.6058L27.678 30.5439ZM16.2786 18.9624V20.2053H31.3096L31.3026 17.5759H31.5935C31.7973 17.5827 31.8565 17.6007 31.8565 17.9229V20.2054H39.6307V19.5932C40.2577 19.9152 41.2329 20.2054 42.5163 20.2054H45.7868L46.4868 18.6036H48.0386L48.7231 20.2054H55.0256V18.6838L55.9797 20.2053H61.0304V10.1475H56.0322V11.3353L55.3324 10.1475H50.2036V11.3353L49.5609 10.1475H42.6329C41.4731 10.1475 40.4541 10.3025 39.6306 10.7348V10.1475H34.8496V10.7348C34.3256 10.2892 33.6116 10.1475 32.8179 10.1475H15.3516L14.1798 12.7454L12.9762 10.1475H7.47495V11.3353L6.87048 10.1475H2.17879L8.20513e-05 14.9297V18.7551L3.22174 11.5432H5.89489L8.95459 18.3713V11.5432H11.8911L14.2456 16.4355L16.4086 11.5432H19.4041V18.7551H17.56L17.5532 13.1069L14.9443 18.7551H13.3647L10.7491 13.1019V18.7551H7.08964L6.39836 17.1464H2.65239L1.95397 18.7551H0V20.2059H3.07413L3.76722 18.604H5.31914L6.01042 20.2059H12.0587V18.9811L12.5985 20.211H15.7383L16.2782 18.9626L16.2786 18.9624ZM39.9644 12.3839C40.5457 11.8083 41.4567 11.5428 42.6965 11.5428H44.4382V13.0881H42.733C42.0768 13.0881 41.7057 13.1816 41.3488 13.5154C41.0419 13.819 40.8315 14.393 40.8315 15.1489C40.8315 15.9216 40.9919 16.4786 41.3261 16.8425C41.6031 17.1279 42.1067 17.2145 42.5801 17.2145H43.3884L45.9239 11.5431H48.6196L51.6656 18.3643V11.5432H54.405L57.5675 16.5658V11.5432H59.4104V18.7547H56.8609L53.4507 13.342V18.7547H49.7866L49.0865 17.1461H45.3491L44.6699 18.7547H42.5644C41.69 18.7547 40.5828 18.5695 39.9558 17.957C39.3234 17.3448 38.9947 16.5153 38.9947 15.204C38.9944 14.1343 39.1907 13.1565 39.9644 12.3839ZM36.2638 11.5429H38.0994V18.7547H36.2638V11.5429ZM27.9873 11.5429H32.1253C33.0445 11.5429 33.7223 11.5663 34.304 11.8883C34.8731 12.2105 35.2144 12.6808 35.2144 13.4851C35.2144 14.635 34.4133 15.229 33.9468 15.4074C34.3404 15.551 34.6768 15.8047 34.837 16.0147C35.091 16.3734 35.1348 16.6938 35.1348 17.3379V18.7546H33.3202L33.3134 17.8452C33.3134 17.4111 33.3567 16.7871 33.0294 16.4403C32.7666 16.1868 32.3658 16.1315 31.718 16.1315H29.7867V18.7547H27.9875L27.9873 11.5429ZM20.7345 11.5429H26.7447V13.0447H22.5338V14.3446H26.6436V15.8229H22.5338V17.2632H26.7447V18.7546H20.7345V11.5429Z" fill="#57534E"/>
</svg>
