<svg width="64" height="43" viewBox="0 0 64 43" fill="none" xmlns="http://www.w3.org/2000/svg">
<path d="M16.3802 13.8798C15.8032 14.5625 14.88 15.101 13.9568 15.0241C13.8414 14.1009 14.2934 13.12 14.8223 12.5142C15.3993 11.8122 16.409 11.3121 17.2264 11.2737C17.3226 12.2353 16.9475 13.1777 16.3802 13.8798ZM17.2168 15.2068C15.8801 15.1299 14.7357 15.9665 14.1011 15.9665C13.4567 15.9665 12.4855 15.2453 11.4277 15.2645C10.0525 15.2838 8.77352 16.0627 8.07151 17.3032C6.62904 19.7843 7.69647 23.4578 9.09086 25.4772C9.77363 26.4774 10.591 27.5736 11.6681 27.5352C12.6874 27.4967 13.0913 26.8716 14.3222 26.8716C15.5628 26.8716 15.9186 27.5352 16.9956 27.5159C18.1111 27.4967 18.8131 26.5158 19.4959 25.5157C20.2748 24.381 20.5922 23.2751 20.6114 23.2174C20.5922 23.1981 18.4573 22.3807 18.4381 19.9189C18.4189 17.861 20.121 16.8801 20.1979 16.8224C19.2363 15.3992 17.7361 15.2453 17.2168 15.2068ZM24.9388 12.418V27.4102H27.266V22.2846H30.4876C33.4302 22.2846 35.4977 20.2651 35.4977 17.3417C35.4977 14.4183 33.4687 12.418 30.5645 12.418H24.9388ZM27.266 14.3798H29.949C31.9685 14.3798 33.1225 15.4569 33.1225 17.3513C33.1225 19.2458 31.9685 20.3324 29.9394 20.3324H27.266V14.3798ZM39.7482 27.5256C41.2099 27.5256 42.5659 26.7851 43.1813 25.6119H43.2294V27.4102H45.3835V19.9478C45.3835 17.784 43.6525 16.3897 40.9888 16.3897C38.5173 16.3897 36.6902 17.8033 36.6229 19.7458H38.7193C38.8924 18.8226 39.7482 18.2168 40.9215 18.2168C42.3447 18.2168 43.1429 18.8803 43.1429 20.1016V20.9286L40.2387 21.1017C37.5364 21.2652 36.0747 22.3711 36.0747 24.2944C36.0747 26.2369 37.5845 27.5256 39.7482 27.5256ZM40.3733 25.7465C39.1328 25.7465 38.3442 25.1503 38.3442 24.2367C38.3442 23.2943 39.1039 22.7462 40.556 22.6596L43.1429 22.4961V23.3424C43.1429 24.7464 41.9504 25.7465 40.3733 25.7465ZM48.2588 31.4875C50.5283 31.4875 51.5958 30.6221 52.5286 27.9968L56.6156 16.5339H54.2499L51.5092 25.3907H51.4611L48.7204 16.5339H46.2875L50.2302 27.4486L50.0187 28.1122C49.6628 29.2373 49.0859 29.67 48.0569 29.67C47.8742 29.67 47.5184 29.6508 47.3741 29.6316V31.4299C47.5087 31.4683 48.0857 31.4875 48.2588 31.4875Z" fill="#44403C"/>
<path d="M16.3802 13.8798C15.8032 14.5625 14.88 15.101 13.9568 15.0241C13.8414 14.1009 14.2934 13.12 14.8223 12.5142C15.3993 11.8122 16.409 11.3121 17.2264 11.2737C17.3226 12.2353 16.9475 13.1777 16.3802 13.8798ZM17.2168 15.2068C15.8801 15.1299 14.7357 15.9665 14.1011 15.9665C13.4567 15.9665 12.4855 15.2453 11.4277 15.2645C10.0525 15.2838 8.77352 16.0627 8.07151 17.3032C6.62904 19.7843 7.69647 23.4578 9.09086 25.4772C9.77363 26.4774 10.591 27.5736 11.6681 27.5352C12.6874 27.4967 13.0913 26.8716 14.3222 26.8716C15.5628 26.8716 15.9186 27.5352 16.9956 27.5159C18.1111 27.4967 18.8131 26.5158 19.4959 25.5157C20.2748 24.381 20.5922 23.2751 20.6114 23.2174C20.5922 23.1981 18.4573 22.3807 18.4381 19.9189C18.4189 17.861 20.121 16.8801 20.1979 16.8224C19.2363 15.3992 17.7361 15.2453 17.2168 15.2068ZM24.9388 12.418V27.4102H27.266V22.2846H30.4876C33.4302 22.2846 35.4977 20.2651 35.4977 17.3417C35.4977 14.4183 33.4687 12.418 30.5645 12.418H24.9388ZM27.266 14.3798H29.949C31.9685 14.3798 33.1225 15.4569 33.1225 17.3513C33.1225 19.2458 31.9685 20.3324 29.9394 20.3324H27.266V14.3798ZM39.7482 27.5256C41.2099 27.5256 42.5659 26.7851 43.1813 25.6119H43.2294V27.4102H45.3835V19.9478C45.3835 17.784 43.6525 16.3897 40.9888 16.3897C38.5173 16.3897 36.6902 17.8033 36.6229 19.7458H38.7193C38.8924 18.8226 39.7482 18.2168 40.9215 18.2168C42.3447 18.2168 43.1429 18.8803 43.1429 20.1016V20.9286L40.2387 21.1017C37.5364 21.2652 36.0747 22.3711 36.0747 24.2944C36.0747 26.2369 37.5845 27.5256 39.7482 27.5256ZM40.3733 25.7465C39.1328 25.7465 38.3442 25.1503 38.3442 24.2367C38.3442 23.2943 39.1039 22.7462 40.556 22.6596L43.1429 22.4961V23.3424C43.1429 24.7464 41.9504 25.7465 40.3733 25.7465ZM48.2588 31.4875C50.5283 31.4875 51.5958 30.6221 52.5286 27.9968L56.6156 16.5339H54.2499L51.5092 25.3907H51.4611L48.7204 16.5339H46.2875L50.2302 27.4486L50.0187 28.1122C49.6628 29.2373 49.0859 29.67 48.0569 29.67C47.8742 29.67 47.5184 29.6508 47.3741 29.6316V31.4299C47.5087 31.4683 48.0857 31.4875 48.2588 31.4875Z" fill="black" fill-opacity="0.2"/>
</svg>
