<svg width="64" height="42" viewBox="0 0 64 42" fill="none" xmlns="http://www.w3.org/2000/svg">
<path d="M36.842 21.3808C36.842 29.5156 30.2475 36.109 22.113 36.109C13.9785 36.109 7.38477 29.5153 7.38477 21.3808C7.38477 13.2468 13.9786 6.65259 22.113 6.65259C30.2473 6.65259 36.842 13.2471 36.842 21.3808Z" fill="#78716C"/>
<path d="M41.8865 6.6521C38.081 6.6521 34.6132 8.09587 31.9993 10.4648C31.4668 10.948 30.9697 11.4688 30.5121 12.0234H33.4879C33.8952 12.5188 34.2703 13.0398 34.6107 13.5834H29.3894C29.0754 14.0857 28.792 14.6065 28.5408 15.143H35.4588C35.6963 15.6505 35.9044 16.1711 36.0825 16.7023H27.9173C27.7458 17.2138 27.6029 17.7345 27.4893 18.2619H36.51C36.7306 19.2868 36.8419 20.3322 36.8416 21.3806C36.8416 23.0162 36.5746 24.5897 36.0823 26.0592H27.9172C28.0947 26.5906 28.3028 27.1114 28.5404 27.6188H35.4587C35.2073 28.1555 34.9238 28.6764 34.6097 29.1789H29.3892C29.7294 29.722 30.1046 30.2427 30.512 30.7375H33.4871C33.0301 31.2932 32.5329 31.8146 31.9995 32.2976C34.6134 34.666 38.0809 36.1092 41.8867 36.1092C50.0212 36.1092 56.6157 29.5154 56.6157 21.381C56.6157 13.2473 50.0212 6.65276 41.8867 6.65276" fill="#A8A29E"/>
<path d="M54.652 29.5908C54.652 29.3283 54.8647 29.1148 55.1276 29.1148C55.3905 29.1148 55.6032 29.3283 55.6032 29.5908C55.6032 29.8533 55.3905 30.0668 55.1276 30.0668C54.8647 30.0668 54.652 29.8533 54.652 29.5908ZM55.1276 29.9525C55.3273 29.9524 55.4892 29.7905 55.4893 29.5908C55.4893 29.3913 55.3275 29.2296 55.1281 29.2295H55.1276C54.9283 29.2292 54.7666 29.3905 54.7662 29.5898V29.5909C54.7661 29.7905 54.9277 29.9524 55.1273 29.9526C55.1273 29.9525 55.1275 29.9525 55.1276 29.9525ZM55.0633 29.7999H54.9659V29.3818H55.1423C55.1792 29.3818 55.2168 29.3818 55.2493 29.4026C55.2832 29.4255 55.3023 29.4659 55.3023 29.5075C55.3023 29.5544 55.2746 29.5981 55.2298 29.6152L55.3068 29.7998H55.1989L55.135 29.6343H55.0635L55.0633 29.7999ZM55.0633 29.5628H55.1173C55.1375 29.5628 55.1588 29.5645 55.1769 29.5546C55.1929 29.5443 55.2012 29.5251 55.2012 29.5066C55.2008 29.4895 55.192 29.4737 55.1776 29.4641C55.1606 29.4536 55.1336 29.4559 55.1154 29.4559H55.0633V29.5628ZM18.6736 22.9935C18.5057 22.974 18.432 22.9688 18.3167 22.9688C17.4103 22.9688 16.9515 23.2795 16.9515 23.8933C16.9515 24.2717 17.1754 24.5124 17.5248 24.5124C18.1762 24.5124 18.6455 23.8922 18.6736 22.9935ZM19.8363 25.7009H18.5115L18.542 25.071C18.1378 25.5687 17.5987 25.8053 16.866 25.8053C15.9993 25.8053 15.4052 25.1284 15.4052 24.1455C15.4052 22.6666 16.4387 21.8037 18.2127 21.8037C18.3939 21.8037 18.6264 21.82 18.8643 21.8504C18.9138 21.6501 18.9269 21.5642 18.9269 21.4565C18.9269 21.0538 18.6482 20.9037 17.9012 20.9037C17.1191 20.8949 16.4739 21.0901 16.2089 21.1772C16.2257 21.0764 16.4305 19.8103 16.4305 19.8103C17.2274 19.5768 17.7528 19.4889 18.3443 19.4889C19.7172 19.4889 20.4445 20.1054 20.4431 21.2704C20.4458 21.5826 20.3941 21.9678 20.3136 22.4742C20.1748 23.3549 19.877 25.241 19.8363 25.7009ZM14.7362 25.7009H13.1373L14.0531 19.9575L12.008 25.7009H10.9184L10.7837 19.9903L9.821 25.7009H8.32422L9.57443 18.2296H11.8736L12.0131 22.4116L13.4155 18.2296H15.9728L14.7362 25.7009ZM43.8619 22.9935C43.6948 22.974 43.6206 22.9688 43.5057 22.9688C42.5997 22.9688 42.1408 23.2795 42.1408 23.8933C42.1408 24.2717 42.3645 24.5124 42.7138 24.5124C43.3653 24.5124 43.8349 23.8922 43.8619 22.9935ZM45.0258 25.7009H43.701L43.731 25.071C43.3268 25.5687 42.7874 25.8053 42.0553 25.8053C41.1885 25.8053 40.5948 25.1284 40.5948 24.1455C40.5948 22.6666 41.6277 21.8037 43.402 21.8037C43.5832 21.8037 43.8153 21.82 44.053 21.8504C44.1026 21.6501 44.1156 21.5642 44.1156 21.4565C44.1156 21.0538 43.8373 20.9037 43.0903 20.9037C42.3081 20.8949 41.6637 21.0901 41.3977 21.1772C41.4144 21.0764 41.62 19.8103 41.62 19.8103C42.4169 19.5768 42.942 19.4889 43.5328 19.4889C44.9064 19.4889 45.6337 20.1054 45.6323 21.2704C45.6349 21.5826 45.5833 21.9678 45.5027 22.4742C45.3645 23.3549 45.0661 25.241 45.0258 25.7009ZM26.9425 25.6085C26.5049 25.7463 26.1637 25.8053 25.7938 25.8053C24.9764 25.8053 24.5303 25.3356 24.5303 24.4706C24.5186 24.2022 24.6478 23.4958 24.7494 22.8511C24.8417 22.2836 25.4427 18.7052 25.4427 18.7052H27.0321L26.8464 19.6248H27.8063L27.5895 21.085H26.6261C26.4415 22.2405 26.1786 23.6799 26.1755 23.8706C26.1755 24.1837 26.3427 24.3205 26.7229 24.3205C26.9051 24.3205 27.0462 24.3019 27.154 24.2631L26.9425 25.6085ZM31.8157 25.5593C31.2697 25.7262 30.7428 25.8069 30.1846 25.8055C28.4054 25.8037 27.4779 24.8745 27.4779 23.0952C27.4779 21.0182 28.6578 19.4892 30.2594 19.4892C31.5698 19.4892 32.4068 20.3453 32.4068 21.6879C32.4068 22.1333 32.3493 22.5682 32.2108 23.1822H29.0458C28.9387 24.0635 29.5028 24.4308 30.4273 24.4308C30.9963 24.4308 31.5094 24.3135 32.08 24.0482L31.8157 25.5593ZM30.9223 21.9573C30.9311 21.8307 31.0909 20.8728 30.1828 20.8728C29.6764 20.8728 29.3144 21.2588 29.167 21.9573H30.9223ZM20.7955 21.5456C20.7955 22.3142 21.1682 22.8442 22.0133 23.2421C22.6609 23.5464 22.761 23.6368 22.761 23.9125C22.761 24.2913 22.4755 24.4623 21.8427 24.4623C21.3658 24.4623 20.922 24.3878 20.4103 24.2225C20.4103 24.2225 20.2 25.5617 20.1904 25.6258C20.5539 25.7051 20.878 25.7785 21.8543 25.8055C23.5415 25.8055 24.3207 25.1631 24.3207 23.7747C24.3207 22.9398 23.9945 22.4499 23.1936 22.0817C22.5231 21.774 22.4462 21.7053 22.4462 21.4216C22.4462 21.093 22.7118 20.9255 23.2288 20.9255C23.5426 20.9255 23.9713 20.9589 24.3775 21.0167L24.6052 19.6075C24.1911 19.5418 23.5634 19.4892 23.198 19.4892C21.4092 19.4892 20.79 20.4236 20.7955 21.5456ZM39.5926 19.6489C40.0367 19.6489 40.4507 19.7655 41.0213 20.0527L41.2829 18.4311C41.0487 18.3391 40.2241 17.7993 39.5256 17.7993C38.4556 17.7993 37.5511 18.3303 36.9147 19.2065C35.9868 18.8991 35.6054 19.5203 35.1378 20.1392L34.7223 20.2359C34.7538 20.0322 34.7821 19.8298 34.7725 19.625H33.3042C33.1035 21.5053 32.748 23.4098 32.4696 25.2926L32.3971 25.7009H33.9968C34.2638 23.9661 34.41 22.8554 34.499 22.1036L35.1013 21.7685C35.1913 21.4339 35.4729 21.3207 36.0381 21.3344C35.9621 21.7453 35.9241 22.1624 35.9246 22.5803C35.9246 24.568 36.997 25.8056 38.7185 25.8056C39.1619 25.8056 39.5424 25.7471 40.1315 25.5875L40.4129 23.8842C39.883 24.1452 39.4481 24.2679 39.0542 24.2679C38.1247 24.2679 37.5622 23.5817 37.5622 22.4476C37.5622 20.8024 38.3988 19.6489 39.5926 19.6489Z" fill="#44403C"/>
<path d="M54.652 29.5908C54.652 29.3283 54.8647 29.1148 55.1276 29.1148C55.3905 29.1148 55.6032 29.3283 55.6032 29.5908C55.6032 29.8533 55.3905 30.0668 55.1276 30.0668C54.8647 30.0668 54.652 29.8533 54.652 29.5908ZM55.1276 29.9525C55.3273 29.9524 55.4892 29.7905 55.4893 29.5908C55.4893 29.3913 55.3275 29.2296 55.1281 29.2295H55.1276C54.9283 29.2292 54.7666 29.3905 54.7662 29.5898V29.5909C54.7661 29.7905 54.9277 29.9524 55.1273 29.9526C55.1273 29.9525 55.1275 29.9525 55.1276 29.9525ZM55.0633 29.7999H54.9659V29.3818H55.1423C55.1792 29.3818 55.2168 29.3818 55.2493 29.4026C55.2832 29.4255 55.3023 29.4659 55.3023 29.5075C55.3023 29.5544 55.2746 29.5981 55.2298 29.6152L55.3068 29.7998H55.1989L55.135 29.6343H55.0635L55.0633 29.7999ZM55.0633 29.5628H55.1173C55.1375 29.5628 55.1588 29.5645 55.1769 29.5546C55.1929 29.5443 55.2012 29.5251 55.2012 29.5066C55.2008 29.4895 55.192 29.4737 55.1776 29.4641C55.1606 29.4536 55.1336 29.4559 55.1154 29.4559H55.0633V29.5628ZM18.6736 22.9935C18.5057 22.974 18.432 22.9688 18.3167 22.9688C17.4103 22.9688 16.9515 23.2795 16.9515 23.8933C16.9515 24.2717 17.1754 24.5124 17.5248 24.5124C18.1762 24.5124 18.6455 23.8922 18.6736 22.9935ZM19.8363 25.7009H18.5115L18.542 25.071C18.1378 25.5687 17.5987 25.8053 16.866 25.8053C15.9993 25.8053 15.4052 25.1284 15.4052 24.1455C15.4052 22.6666 16.4387 21.8037 18.2127 21.8037C18.3939 21.8037 18.6264 21.82 18.8643 21.8504C18.9138 21.6501 18.9269 21.5642 18.9269 21.4565C18.9269 21.0538 18.6482 20.9037 17.9012 20.9037C17.1191 20.8949 16.4739 21.0901 16.2089 21.1772C16.2257 21.0764 16.4305 19.8103 16.4305 19.8103C17.2274 19.5768 17.7528 19.4889 18.3443 19.4889C19.7172 19.4889 20.4445 20.1054 20.4431 21.2704C20.4458 21.5826 20.3941 21.9678 20.3136 22.4742C20.1748 23.3549 19.877 25.241 19.8363 25.7009ZM14.7362 25.7009H13.1373L14.0531 19.9575L12.008 25.7009H10.9184L10.7837 19.9903L9.821 25.7009H8.32422L9.57443 18.2296H11.8736L12.0131 22.4116L13.4155 18.2296H15.9728L14.7362 25.7009ZM43.8619 22.9935C43.6948 22.974 43.6206 22.9688 43.5057 22.9688C42.5997 22.9688 42.1408 23.2795 42.1408 23.8933C42.1408 24.2717 42.3645 24.5124 42.7138 24.5124C43.3653 24.5124 43.8349 23.8922 43.8619 22.9935ZM45.0258 25.7009H43.701L43.731 25.071C43.3268 25.5687 42.7874 25.8053 42.0553 25.8053C41.1885 25.8053 40.5948 25.1284 40.5948 24.1455C40.5948 22.6666 41.6277 21.8037 43.402 21.8037C43.5832 21.8037 43.8153 21.82 44.053 21.8504C44.1026 21.6501 44.1156 21.5642 44.1156 21.4565C44.1156 21.0538 43.8373 20.9037 43.0903 20.9037C42.3081 20.8949 41.6637 21.0901 41.3977 21.1772C41.4144 21.0764 41.62 19.8103 41.62 19.8103C42.4169 19.5768 42.942 19.4889 43.5328 19.4889C44.9064 19.4889 45.6337 20.1054 45.6323 21.2704C45.6349 21.5826 45.5833 21.9678 45.5027 22.4742C45.3645 23.3549 45.0661 25.241 45.0258 25.7009ZM26.9425 25.6085C26.5049 25.7463 26.1637 25.8053 25.7938 25.8053C24.9764 25.8053 24.5303 25.3356 24.5303 24.4706C24.5186 24.2022 24.6478 23.4958 24.7494 22.8511C24.8417 22.2836 25.4427 18.7052 25.4427 18.7052H27.0321L26.8464 19.6248H27.8063L27.5895 21.085H26.6261C26.4415 22.2405 26.1786 23.6799 26.1755 23.8706C26.1755 24.1837 26.3427 24.3205 26.7229 24.3205C26.9051 24.3205 27.0462 24.3019 27.154 24.2631L26.9425 25.6085ZM31.8157 25.5593C31.2697 25.7262 30.7428 25.8069 30.1846 25.8055C28.4054 25.8037 27.4779 24.8745 27.4779 23.0952C27.4779 21.0182 28.6578 19.4892 30.2594 19.4892C31.5698 19.4892 32.4068 20.3453 32.4068 21.6879C32.4068 22.1333 32.3493 22.5682 32.2108 23.1822H29.0458C28.9387 24.0635 29.5028 24.4308 30.4273 24.4308C30.9963 24.4308 31.5094 24.3135 32.08 24.0482L31.8157 25.5593ZM30.9223 21.9573C30.9311 21.8307 31.0909 20.8728 30.1828 20.8728C29.6764 20.8728 29.3144 21.2588 29.167 21.9573H30.9223ZM20.7955 21.5456C20.7955 22.3142 21.1682 22.8442 22.0133 23.2421C22.6609 23.5464 22.761 23.6368 22.761 23.9125C22.761 24.2913 22.4755 24.4623 21.8427 24.4623C21.3658 24.4623 20.922 24.3878 20.4103 24.2225C20.4103 24.2225 20.2 25.5617 20.1904 25.6258C20.5539 25.7051 20.878 25.7785 21.8543 25.8055C23.5415 25.8055 24.3207 25.1631 24.3207 23.7747C24.3207 22.9398 23.9945 22.4499 23.1936 22.0817C22.5231 21.774 22.4462 21.7053 22.4462 21.4216C22.4462 21.093 22.7118 20.9255 23.2288 20.9255C23.5426 20.9255 23.9713 20.9589 24.3775 21.0167L24.6052 19.6075C24.1911 19.5418 23.5634 19.4892 23.198 19.4892C21.4092 19.4892 20.79 20.4236 20.7955 21.5456ZM39.5926 19.6489C40.0367 19.6489 40.4507 19.7655 41.0213 20.0527L41.2829 18.4311C41.0487 18.3391 40.2241 17.7993 39.5256 17.7993C38.4556 17.7993 37.5511 18.3303 36.9147 19.2065C35.9868 18.8991 35.6054 19.5203 35.1378 20.1392L34.7223 20.2359C34.7538 20.0322 34.7821 19.8298 34.7725 19.625H33.3042C33.1035 21.5053 32.748 23.4098 32.4696 25.2926L32.3971 25.7009H33.9968C34.2638 23.9661 34.41 22.8554 34.499 22.1036L35.1013 21.7685C35.1913 21.4339 35.4729 21.3207 36.0381 21.3344C35.9621 21.7453 35.9241 22.1624 35.9246 22.5803C35.9246 24.568 36.997 25.8056 38.7185 25.8056C39.1619 25.8056 39.5424 25.7471 40.1315 25.5875L40.4129 23.8842C39.883 24.1452 39.4481 24.2679 39.0542 24.2679C38.1247 24.2679 37.5622 23.5817 37.5622 22.4476C37.5622 20.8024 38.3988 19.6489 39.5926 19.6489Z" fill="black" fill-opacity="0.2"/>
<path d="M15.1971 25.2567H13.5978L14.5144 19.5141L12.4692 25.2567H11.3793L11.2446 19.5469L10.2819 25.2567H8.78516L10.0354 17.7866H12.3345L12.3992 22.4112L13.9503 17.7866H16.4337L15.1971 25.2567Z" fill="#FAFAF9"/>
<path d="M53.13 18.23L52.7754 20.3887C52.3382 19.8132 51.8684 19.3968 51.2483 19.3968C50.4415 19.3968 49.7071 20.0085 49.2264 20.9086C48.557 20.7698 47.8646 20.5342 47.8646 20.5342L47.8642 20.5397C47.9182 20.0364 47.9398 19.7295 47.935 19.6252H46.4662C46.2662 21.5055 45.9107 23.41 45.6328 25.2929L45.5596 25.7012H47.1589C47.375 24.2984 47.5403 23.1337 47.6621 22.2098C48.2084 21.7162 48.482 21.2854 49.0341 21.3141C48.7897 21.9053 48.6464 22.5862 48.6464 23.2847C48.6464 24.8038 49.4149 25.8058 50.5773 25.8058C51.1633 25.8058 51.6129 25.6038 52.0516 25.1353L51.9766 25.7002H53.4893L54.7071 18.2301L53.13 18.23ZM51.1303 24.2969C50.586 24.2969 50.3112 23.8942 50.3112 23.0993C50.3112 21.9051 50.8257 21.0583 51.5511 21.0583C52.1005 21.0583 52.3979 21.4771 52.3979 22.2488C52.398 23.4532 51.8752 24.2969 51.1303 24.2969Z" fill="#44403C"/>
<path d="M53.13 18.23L52.7754 20.3887C52.3382 19.8132 51.8684 19.3968 51.2483 19.3968C50.4415 19.3968 49.7071 20.0085 49.2264 20.9086C48.557 20.7698 47.8646 20.5342 47.8646 20.5342L47.8642 20.5397C47.9182 20.0364 47.9398 19.7295 47.935 19.6252H46.4662C46.2662 21.5055 45.9107 23.41 45.6328 25.2929L45.5596 25.7012H47.1589C47.375 24.2984 47.5403 23.1337 47.6621 22.2098C48.2084 21.7162 48.482 21.2854 49.0341 21.3141C48.7897 21.9053 48.6464 22.5862 48.6464 23.2847C48.6464 24.8038 49.4149 25.8058 50.5773 25.8058C51.1633 25.8058 51.6129 25.6038 52.0516 25.1353L51.9766 25.7002H53.4893L54.7071 18.2301L53.13 18.23ZM51.1303 24.2969C50.586 24.2969 50.3112 23.8942 50.3112 23.0993C50.3112 21.9051 50.8257 21.0583 51.5511 21.0583C52.1005 21.0583 52.3979 21.4771 52.3979 22.2488C52.398 23.4532 51.8752 24.2969 51.1303 24.2969Z" fill="black" fill-opacity="0.2"/>
<path d="M19.1331 22.5509C18.9655 22.5315 18.8914 22.5264 18.7765 22.5264C17.8702 22.5264 17.4117 22.8371 17.4117 23.4508C17.4117 23.8285 17.6356 24.07 17.9843 24.07C18.6364 24.0699 19.1058 23.4498 19.1331 22.5509ZM20.2964 25.2573H18.9716L19.0017 24.6285C18.598 25.1253 18.0581 25.3629 17.3262 25.3629C16.4591 25.3629 15.8652 24.686 15.8652 23.7031C15.8652 22.2235 16.8984 21.3612 18.6728 21.3612C18.854 21.3612 19.0865 21.3776 19.3241 21.408C19.3737 21.2077 19.3867 21.1219 19.3867 21.0135C19.3867 20.6107 19.1084 20.4614 18.3614 20.4614C17.5789 20.4525 16.934 20.6477 16.6688 20.7339C16.6855 20.6334 16.8903 19.3688 16.8903 19.3688C17.6869 19.1343 18.213 19.0464 18.8037 19.0464C20.177 19.0464 20.9046 19.6632 20.9033 20.8273C20.9056 21.1408 20.8537 21.5258 20.7733 22.0314C20.6349 22.9113 20.3369 24.7985 20.2964 25.2573ZM41.743 17.9882L41.4812 19.6101C40.9109 19.3233 40.4965 19.2064 40.0529 19.2064C38.859 19.2064 38.0221 20.3599 38.0221 22.0049C38.0221 23.1389 38.5847 23.8248 39.5141 23.8248C39.908 23.8248 40.3425 23.7024 40.8724 23.4412L40.5917 25.1438C40.0023 25.3044 39.6222 25.3629 39.1784 25.3629C37.4572 25.3629 36.3845 24.1252 36.3845 22.1375C36.3845 19.4668 37.8662 17.6001 39.9855 17.6001C40.6835 17.6002 41.5085 17.8962 41.743 17.9882ZM44.3229 22.5509C44.1554 22.5315 44.0816 22.5264 43.9662 22.5264C43.0603 22.5264 42.6015 22.8371 42.6015 23.4508C42.6015 23.8285 42.8254 24.07 43.1744 24.07C43.8258 24.0699 44.2955 23.4498 44.3229 22.5509ZM45.4862 25.2573H44.1611L44.1916 24.6285C43.7875 25.1253 43.248 25.3629 42.516 25.3629C41.6493 25.3629 41.0551 24.686 41.0551 23.7031C41.0551 22.2235 42.0887 21.3612 43.8623 21.3612C44.0439 21.3612 44.276 21.3776 44.5139 21.408C44.5632 21.2077 44.5765 21.1219 44.5765 21.0135C44.5765 20.6107 44.2981 20.4614 43.5512 20.4614C42.769 20.4525 42.1239 20.6477 41.8585 20.7339C41.8752 20.6334 42.0804 19.3688 42.0804 19.3688C42.877 19.1343 43.4027 19.0464 43.9935 19.0464C45.3671 19.0464 46.0943 19.6632 46.0926 20.8273C46.0953 21.1408 46.0437 21.5258 45.963 22.0314C45.825 22.9113 45.5263 24.7985 45.4862 25.2573ZM27.403 25.1653C26.965 25.3031 26.6238 25.3629 26.2542 25.3629C25.4368 25.3629 24.9907 24.8931 24.9907 24.0281C24.9794 23.759 25.1087 23.0533 25.2102 22.4087C25.3021 21.8404 25.9031 18.2623 25.9031 18.2623H27.4923L27.3069 19.1823H28.1225L27.9054 20.6418H27.087C26.9024 21.7981 26.6387 23.2363 26.636 23.4275C26.636 23.7417 26.8035 23.8773 27.1834 23.8773C27.3656 23.8773 27.5065 23.8595 27.6145 23.8206L27.403 25.1653ZM32.2761 25.1167C31.7304 25.2835 31.2029 25.3639 30.645 25.3629C28.8657 25.3612 27.9383 24.4319 27.9383 22.6525C27.9383 20.5749 29.1182 19.0463 30.7198 19.0463C32.0302 19.0463 32.8672 19.902 32.8672 21.2453C32.8672 21.6912 32.8097 22.126 32.6716 22.7396H29.5065C29.3993 23.6209 29.9634 23.9886 30.888 23.9886C31.4566 23.9886 31.9701 23.8709 32.5404 23.6049L32.2761 25.1167ZM31.3824 21.5137C31.392 21.3875 31.5515 20.4292 30.6429 20.4292C30.1369 20.4292 29.7749 20.8163 29.6275 21.5137H31.3824ZM21.2557 21.103C21.2557 21.8716 21.6284 22.4009 22.4735 22.7994C23.121 23.1038 23.2211 23.1943 23.2211 23.47C23.2211 23.8487 22.9353 24.0196 22.3031 24.0196C21.8259 24.0196 21.3821 23.9451 20.87 23.78C20.87 23.78 20.6604 25.1191 20.6508 25.1831C21.0135 25.2625 21.338 25.3349 22.3144 25.3629C24.0019 25.3629 24.7808 24.7205 24.7808 23.3324C24.7808 22.4972 24.4549 22.0073 23.6536 21.6392C22.9835 21.3307 22.9059 21.263 22.9059 20.979C22.9059 20.6508 23.1722 20.4818 23.6888 20.4818C24.0023 20.4818 24.4311 20.5164 24.8379 20.5741L25.0652 19.1646C24.6515 19.0989 24.0238 19.0463 23.6584 19.0463C21.8693 19.0463 21.2505 19.98 21.2557 21.103ZM53.949 25.2573H52.4361L52.5114 24.6917C52.0727 25.1608 51.6232 25.3629 51.0371 25.3629C49.8748 25.3629 49.1066 24.3608 49.1066 22.8418C49.1066 20.8209 50.2981 19.1173 51.7083 19.1173C52.3285 19.1173 52.7978 19.3706 53.2348 19.9457L53.5896 17.7871H55.1667L53.949 25.2573ZM51.5904 23.8535C52.335 23.8535 52.8581 23.0097 52.8581 21.806C52.8581 21.0344 52.5603 20.6156 52.0109 20.6156C51.2858 20.6156 50.7707 21.4619 50.7707 22.6566C50.7706 23.4513 51.0461 23.8535 51.5904 23.8535ZM46.9264 19.1824C46.7261 21.0627 46.3707 22.9674 46.0926 24.8491L46.0194 25.2574H47.6187C48.1907 21.5425 48.3291 20.817 49.2259 20.9079C49.3688 20.1475 49.6347 19.4816 49.833 19.1455C49.1632 19.006 48.7892 19.3845 48.2996 20.1035C48.3383 19.7927 48.409 19.4908 48.395 19.1825L46.9264 19.1824ZM33.7637 19.1824C33.563 21.0627 33.2075 22.9674 32.9295 24.8491L32.8567 25.2574H34.4567C35.028 21.5425 35.1661 20.817 36.0624 20.9079C36.206 20.1475 36.4719 19.4816 36.6695 19.1455C36.0005 19.006 35.6261 19.3845 35.1369 20.1035C35.1755 19.7927 35.2455 19.4908 35.2322 19.1825L33.7637 19.1824ZM54.6515 24.7816C54.6512 24.5192 54.8637 24.3062 55.1261 24.3058H55.1271C55.3894 24.3055 55.6024 24.518 55.6027 24.7803V24.7816C55.6026 25.0443 55.3897 25.2571 55.1271 25.2573C54.8645 25.2571 54.6516 25.0443 54.6515 24.7816ZM55.1271 25.1431C55.3266 25.1432 55.4883 24.9815 55.4884 24.7821V24.7818C55.4886 24.5822 55.3269 24.4203 55.1274 24.4201H55.1271C54.9273 24.4202 54.7655 24.5821 54.7654 24.7818C54.7656 24.9813 54.9275 25.1431 55.1271 25.1431ZM55.0628 24.9896H54.9653V24.5726H55.142C55.1785 24.5726 55.2165 24.5733 55.2483 24.5934C55.2825 24.6166 55.302 24.6563 55.302 24.6979C55.302 24.7451 55.2743 24.7892 55.2291 24.806L55.3063 24.9895H55.198L55.1341 24.8246H55.0627L55.0628 24.9896ZM55.0628 24.7533H55.1164C55.1365 24.7533 55.1584 24.7549 55.1762 24.7451C55.1923 24.7349 55.2005 24.7155 55.2005 24.6969C55.1997 24.6796 55.1911 24.6637 55.1769 24.654C55.1602 24.6444 55.1324 24.6471 55.1143 24.6471H55.0627L55.0628 24.7533Z" fill="#FAFAF9"/>
</svg>
