<svg width="64" height="42" viewBox="0 0 64 42" fill="none" xmlns="http://www.w3.org/2000/svg">
<path d="M13.8156 14.7632C13.1265 14.2895 12.2272 14.052 11.1178 14.052H6.8227C6.48259 14.052 6.2947 14.2221 6.259 14.562L4.51427 25.5142C4.49613 25.6217 4.52305 25.7201 4.59476 25.8095C4.66606 25.8991 4.75574 25.9437 4.86315 25.9437H6.90327C7.2611 25.9437 7.45777 25.774 7.49388 25.4337L7.97699 22.481C7.99463 22.338 8.05757 22.2216 8.16497 22.132C8.2723 22.0426 8.40653 21.9841 8.5676 21.9573C8.72867 21.9307 8.88054 21.9173 9.02397 21.9173C9.16698 21.9173 9.33691 21.9264 9.53408 21.9442C9.73076 21.962 9.85613 21.9708 9.90988 21.9708C11.4488 21.9708 12.6568 21.5371 13.5338 20.6689C14.4105 19.8011 14.8493 18.5977 14.8493 17.0583C14.8493 16.0024 14.5044 15.2375 13.8156 14.763V14.7632ZM11.6011 18.0518C11.5114 18.6783 11.279 19.0897 10.9032 19.2866C10.5273 19.4838 9.99045 19.5819 9.2926 19.5819L8.4067 19.6087L8.86315 16.7363C8.89876 16.5396 9.01502 16.4412 9.21203 16.4412H9.72222C10.4377 16.4412 10.957 16.5443 11.2791 16.7498C11.6011 16.9557 11.7085 17.3898 11.6011 18.0518Z" fill="#44403C"/>
<path d="M13.8156 14.7632C13.1265 14.2895 12.2272 14.052 11.1178 14.052H6.8227C6.48259 14.052 6.2947 14.2221 6.259 14.562L4.51427 25.5142C4.49613 25.6217 4.52305 25.7201 4.59476 25.8095C4.66606 25.8991 4.75574 25.9437 4.86315 25.9437H6.90327C7.2611 25.9437 7.45777 25.774 7.49388 25.4337L7.97699 22.481C7.99463 22.338 8.05757 22.2216 8.16497 22.132C8.2723 22.0426 8.40653 21.9841 8.5676 21.9573C8.72867 21.9307 8.88054 21.9173 9.02397 21.9173C9.16698 21.9173 9.33691 21.9264 9.53408 21.9442C9.73076 21.962 9.85613 21.9708 9.90988 21.9708C11.4488 21.9708 12.6568 21.5371 13.5338 20.6689C14.4105 19.8011 14.8493 18.5977 14.8493 17.0583C14.8493 16.0024 14.5044 15.2375 13.8156 14.763V14.7632ZM11.6011 18.0518C11.5114 18.6783 11.279 19.0897 10.9032 19.2866C10.5273 19.4838 9.99045 19.5819 9.2926 19.5819L8.4067 19.6087L8.86315 16.7363C8.89876 16.5396 9.01502 16.4412 9.21203 16.4412H9.72222C10.4377 16.4412 10.957 16.5443 11.2791 16.7498C11.6011 16.9557 11.7085 17.3898 11.6011 18.0518Z" fill="black" fill-opacity="0.2"/>
<path d="M59.1413 14.052H57.155C56.9576 14.052 56.8414 14.1505 56.806 14.3475L55.0611 25.5147L55.0342 25.5683C55.0342 25.6582 55.07 25.7428 55.1418 25.8234C55.2129 25.9038 55.3028 25.9441 55.4101 25.9441H57.182C57.5215 25.9441 57.7095 25.7744 57.7458 25.4342L59.4906 14.4549V14.4282C59.4905 14.1775 59.3738 14.0523 59.1413 14.0523V14.052Z" fill="#78716C"/>
<path d="M35.143 18.3743C35.143 18.2851 35.1071 18.1999 35.036 18.1196C34.9642 18.0391 34.8836 17.9985 34.7943 17.9985H32.7274C32.5301 17.9985 32.3691 18.0885 32.244 18.2669L29.3986 22.4547L28.2175 18.4282C28.1276 18.142 27.931 17.9985 27.627 17.9985H25.6134C25.5237 17.9985 25.4432 18.0389 25.3721 18.1196C25.3003 18.1999 25.2646 18.2852 25.2646 18.3743C25.2646 18.4104 25.4392 18.9381 25.7881 19.9582C26.1369 20.9786 26.5127 22.0792 26.9154 23.2604C27.3181 24.4414 27.5283 25.0681 27.5462 25.139C26.0787 27.1437 25.3452 28.2174 25.3452 28.3604C25.3452 28.5932 25.4613 28.7094 25.6942 28.7094H27.7611C27.9579 28.7094 28.1189 28.6202 28.2444 28.4411L35.0897 18.5621C35.1252 18.5267 35.143 18.4643 35.143 18.3742V18.3743Z" fill="#44403C"/>
<path d="M35.143 18.3743C35.143 18.2851 35.1071 18.1999 35.036 18.1196C34.9642 18.0391 34.8836 17.9985 34.7943 17.9985H32.7274C32.5301 17.9985 32.3691 18.0885 32.244 18.2669L29.3986 22.4547L28.2175 18.4282C28.1276 18.142 27.931 17.9985 27.627 17.9985H25.6134C25.5237 17.9985 25.4432 18.0389 25.3721 18.1196C25.3003 18.1999 25.2646 18.2852 25.2646 18.3743C25.2646 18.4104 25.4392 18.9381 25.7881 19.9582C26.1369 20.9786 26.5127 22.0792 26.9154 23.2604C27.3181 24.4414 27.5283 25.0681 27.5462 25.139C26.0787 27.1437 25.3452 28.2174 25.3452 28.3604C25.3452 28.5932 25.4613 28.7094 25.6942 28.7094H27.7611C27.9579 28.7094 28.1189 28.6202 28.2444 28.4411L35.0897 18.5621C35.1252 18.5267 35.143 18.4643 35.143 18.3742V18.3743Z" fill="black" fill-opacity="0.2"/>
<path d="M54.3909 17.9987H52.3507C52.0998 17.9987 51.9483 18.2941 51.8945 18.8848C51.4286 18.1691 50.5792 17.8108 49.3441 17.8108C48.0556 17.8108 46.9593 18.2941 46.0558 19.2605C45.1519 20.2269 44.7002 21.3636 44.7002 22.6699C44.7002 23.7259 45.0089 24.567 45.6261 25.1931C46.2436 25.8199 47.0712 26.1327 48.1095 26.1327C48.6284 26.1327 49.1563 26.0251 49.6932 25.8105C50.23 25.5958 50.6502 25.3096 50.955 24.9516C50.955 24.9695 50.9368 25.0498 50.9014 25.1929C50.8652 25.3363 50.8476 25.444 50.8476 25.515C50.8476 25.8017 50.9636 25.9445 51.1966 25.9445H53.049C53.3886 25.9445 53.5857 25.7748 53.6392 25.4345L54.74 18.4281C54.7576 18.3207 54.7309 18.2224 54.6594 18.1328C54.5875 18.0436 54.4982 17.9987 54.3909 17.9987ZM50.8878 23.2872C50.4314 23.7346 49.881 23.9582 49.2368 23.9582C48.7176 23.9582 48.2974 23.8153 47.9751 23.5288C47.6528 23.2431 47.4917 22.8493 47.4917 22.3477C47.4917 21.686 47.7155 21.1262 48.1631 20.6699C48.6099 20.2136 49.1652 19.9855 49.8273 19.9855C50.328 19.9855 50.7442 20.1331 51.0756 20.4282C51.4063 20.7236 51.5724 21.1308 51.5724 21.6499C51.5722 22.2941 51.3441 22.84 50.8878 23.2872Z" fill="#78716C"/>
<path d="M23.896 17.9987H21.8558C21.6049 17.9987 21.4531 18.2941 21.3993 18.8848C20.9161 18.1691 20.066 17.8108 18.8491 17.8108C17.5606 17.8108 16.4643 18.2941 15.5606 19.2605C14.6568 20.2269 14.2051 21.3636 14.2051 22.6699C14.2051 23.7259 14.5138 24.567 15.1313 25.1931C15.7487 25.8199 16.5762 26.1327 17.6143 26.1327C18.1152 26.1327 18.6345 26.0251 19.1712 25.8105C19.7081 25.5958 20.1376 25.3096 20.4598 24.9516C20.388 25.1661 20.3524 25.3541 20.3524 25.515C20.3524 25.8017 20.4686 25.9445 20.7013 25.9445H22.5535C22.8933 25.9445 23.0904 25.7748 23.1442 25.4345L24.2447 18.4281C24.2624 18.3207 24.2356 18.2224 24.1642 18.1328C24.0926 18.0436 24.0032 17.9987 23.896 17.9987ZM20.3928 23.3005C19.9364 23.7395 19.3769 23.9582 18.7151 23.9582C18.1958 23.9582 17.7797 23.8153 17.4668 23.5288C17.1534 23.2431 16.997 22.8493 16.997 22.3477C16.997 21.686 17.2205 21.1262 17.6681 20.6699C18.1152 20.2136 18.6701 19.9854 19.3325 19.9854C19.8333 19.9854 20.2494 20.1331 20.5808 20.4282C20.9116 20.7236 21.0774 21.1308 21.0774 21.6499C21.0773 22.312 20.8492 22.8625 20.3928 23.3005Z" fill="#44403C"/>
<path d="M23.896 17.9987H21.8558C21.6049 17.9987 21.4531 18.2941 21.3993 18.8848C20.9161 18.1691 20.066 17.8108 18.8491 17.8108C17.5606 17.8108 16.4643 18.2941 15.5606 19.2605C14.6568 20.2269 14.2051 21.3636 14.2051 22.6699C14.2051 23.7259 14.5138 24.567 15.1313 25.1931C15.7487 25.8199 16.5762 26.1327 17.6143 26.1327C18.1152 26.1327 18.6345 26.0251 19.1712 25.8105C19.7081 25.5958 20.1376 25.3096 20.4598 24.9516C20.388 25.1661 20.3524 25.3541 20.3524 25.515C20.3524 25.8017 20.4686 25.9445 20.7013 25.9445H22.5535C22.8933 25.9445 23.0904 25.7748 23.1442 25.4345L24.2447 18.4281C24.2624 18.3207 24.2356 18.2224 24.1642 18.1328C24.0926 18.0436 24.0032 17.9987 23.896 17.9987ZM20.3928 23.3005C19.9364 23.7395 19.3769 23.9582 18.7151 23.9582C18.1958 23.9582 17.7797 23.8153 17.4668 23.5288C17.1534 23.2431 16.997 22.8493 16.997 22.3477C16.997 21.686 17.2205 21.1262 17.6681 20.6699C18.1152 20.2136 18.6701 19.9854 19.3325 19.9854C19.8333 19.9854 20.2494 20.1331 20.5808 20.4282C20.9116 20.7236 21.0774 21.1308 21.0774 21.6499C21.0773 22.312 20.8492 22.8625 20.3928 23.3005Z" fill="black" fill-opacity="0.2"/>
<path d="M44.3109 14.7632C43.6218 14.2895 42.7228 14.052 41.6131 14.052H37.3448C36.9868 14.052 36.7898 14.2221 36.7543 14.562L35.0094 25.5142C34.9912 25.6217 35.0182 25.7201 35.09 25.8095C35.1609 25.8991 35.2509 25.9437 35.3583 25.9437H37.5594C37.7741 25.9437 37.9172 25.8275 37.989 25.5948L38.4722 22.481C38.49 22.338 38.5526 22.2216 38.6602 22.132C38.7676 22.0426 38.9016 21.9841 39.0629 21.9573C39.2238 21.9307 39.3757 21.9173 39.5192 21.9173C39.6623 21.9173 39.8321 21.9264 40.0291 21.9442C40.2259 21.962 40.3516 21.9708 40.4049 21.9708C41.9442 21.9708 43.1519 21.5371 44.029 20.6689C44.9059 19.8011 45.3443 18.5977 45.3443 17.0583C45.3444 16.0024 44.9997 15.2374 44.3109 14.763V14.7632ZM41.5595 19.1791C41.1657 19.4475 40.575 19.5817 39.7878 19.5817L38.9286 19.6086L39.385 16.7361C39.4205 16.5396 39.5368 16.4409 39.7339 16.4409H40.2169C40.6107 16.4409 40.9238 16.4589 41.1568 16.4946C41.389 16.5305 41.6131 16.6422 41.8278 16.83C42.0427 17.018 42.15 17.2911 42.15 17.6488C42.15 18.4007 41.9529 18.9105 41.5595 19.1791Z" fill="#78716C"/>
</svg>
