<svg width="64" height="42" viewBox="0 0 64 42" fill="none" xmlns="http://www.w3.org/2000/svg">
<path d="M24.0572 29.4816L26.7943 13.4192H31.1724L28.4332 29.4816H24.0572ZM44.2508 13.7654C43.3836 13.44 42.0244 13.0908 40.327 13.0908C36.0008 13.0908 32.9537 15.2694 32.9276 18.3917C32.9032 20.6997 35.1032 21.9873 36.7638 22.7556C38.4681 23.5431 39.0409 24.0451 39.0327 24.748C39.0218 25.8248 37.6718 26.3164 36.4133 26.3164C34.6611 26.3164 33.7301 26.073 32.2923 25.4735L31.7279 25.2182L31.1136 28.8139C32.1362 29.2625 34.0271 29.6507 35.9906 29.6709C40.5928 29.6709 43.5805 27.5172 43.6144 24.1829C43.6308 22.3556 42.4644 20.9653 39.9384 19.8188C38.4082 19.0757 37.471 18.5799 37.4809 17.8275C37.4809 17.1598 38.2742 16.4459 39.9884 16.4459C41.4199 16.4237 42.4572 16.7359 43.2652 17.0613L43.6575 17.2466L44.2508 13.7654ZM55.5173 13.4189H52.1343C51.0863 13.4189 50.3019 13.705 49.8418 14.751L43.3396 29.471H47.9371C47.9371 29.471 48.6886 27.4918 48.8586 27.0572C49.361 27.0572 53.8272 27.0641 54.4656 27.0641C54.5966 27.6265 54.9983 29.471 54.9983 29.471H59.0608L55.5173 13.4185V13.4189ZM50.1497 23.791C50.5119 22.8656 51.8941 19.3009 51.8941 19.3009C51.8684 19.3436 52.2536 18.3709 52.4746 17.7678L52.7705 19.1527C52.7705 19.1527 53.6088 22.9869 53.784 23.7908H50.1497V23.791ZM20.3405 13.4189L16.0542 24.3728L15.5976 22.1468C14.7996 19.5807 12.3135 16.8006 9.53418 15.4088L13.4535 29.4559L18.0857 29.4508L24.9784 13.4188L20.3405 13.4187" fill="#57534E"/>
<path d="M12.0552 13.4185H4.99541L4.93945 13.7527C10.4319 15.0822 14.066 18.2953 15.5749 22.1563L14.0398 14.775C13.7749 13.7579 13.0062 13.4543 12.0553 13.4189" fill="#A8A29E"/>
</svg>
