<svg width="83" height="64" viewBox="0 0 83 64" fill="none" xmlns="http://www.w3.org/2000/svg">
<path fill-rule="evenodd" clip-rule="evenodd" d="M41.28 0C31.812 0 19.0028 1.86052 11.3047 3.14169C12.1105 5.24908 11.6828 8.14613 9.94062 10.8184C7.92276 13.9134 4.72827 15.8068 1.96153 15.8072C0.933133 21.0168 0 27.0953 0 32C0 36.9047 0.933107 42.983 1.96148 48.1926C4.72826 48.1929 7.92284 50.0864 9.94075 53.1814C11.683 55.8537 12.1107 58.7509 11.3047 60.8583C19.0028 62.1395 31.812 64 41.28 64C50.7479 64 63.557 62.1395 71.2551 60.8583C70.4492 58.7509 70.8768 55.8537 72.6191 53.1814C74.6371 50.0863 77.8317 48.1928 80.5985 48.1926C81.6268 42.983 82.56 36.9047 82.56 32C82.56 27.0953 81.6268 21.0169 80.5984 15.8072C77.8316 15.807 74.6369 13.9136 72.6189 10.8184C70.8767 8.14613 70.449 5.24902 71.2549 3.14163C63.5568 1.86046 50.7478 0 41.28 0Z" fill="#4D403D"/>
<mask id="path-2-inside-1_293_1402" fill="white">
<path fill-rule="evenodd" clip-rule="evenodd" d="M41.28 4.26562C33.0508 4.26562 21.9177 5.8827 15.2268 6.99623C15.9272 8.8279 15.5555 11.3459 14.0412 13.6686C12.2874 16.3587 9.51076 18.0044 7.10599 18.0046C6.21216 22.5326 5.40112 27.8157 5.40112 32.0787C5.40112 36.3417 6.21215 41.6247 7.10597 46.1527C9.51073 46.153 12.2873 47.7987 14.0412 50.4888C15.5555 52.8114 15.9272 55.3295 15.2267 57.1612C21.9176 58.2747 33.0508 59.8918 41.28 59.8918C49.5091 59.8918 60.6423 58.2747 67.3331 57.1612C66.6327 55.3295 67.0044 52.8115 68.5187 50.4888C70.2726 47.7987 73.0492 46.153 75.454 46.1527C76.3478 41.6248 77.1588 36.3417 77.1588 32.0787C77.1588 27.8157 76.3478 22.5327 75.454 18.0047C73.0492 18.0044 70.2725 16.3587 68.5186 13.6686C67.0043 11.3459 66.6326 8.82789 67.3331 6.99622C60.6422 5.88269 49.5091 4.26562 41.28 4.26562Z"/>
</mask>
<path d="M15.2268 6.99623L14.8985 5.02337L12.4848 5.42507L13.3587 7.71058L15.2268 6.99623ZM14.0412 13.6686L12.3659 12.5763L14.0412 13.6686ZM7.10599 18.0046L7.10579 16.0046L5.46217 16.0048L5.14386 17.6173L7.10599 18.0046ZM7.10597 46.1527L5.14384 46.54L5.46214 48.1525L7.10575 48.1527L7.10597 46.1527ZM14.0412 50.4888L12.3658 51.5811H12.3658L14.0412 50.4888ZM15.2267 57.1612L13.3587 56.4468L12.4846 58.7323L14.8984 59.134L15.2267 57.1612ZM67.3331 57.1612L67.6615 59.1341L70.0752 58.7323L69.2012 56.4468L67.3331 57.1612ZM68.5187 50.4888L70.1941 51.5811L68.5187 50.4888ZM75.454 46.1527L75.4542 48.1527L77.0978 48.1526L77.4161 46.5401L75.454 46.1527ZM75.454 18.0047L77.4161 17.6173L77.0978 16.0048L75.4541 16.0047L75.454 18.0047ZM68.5186 13.6686L66.8433 14.7609L68.5186 13.6686ZM67.3331 6.99622L69.2012 7.71059L70.0752 5.42506L67.6614 5.02336L67.3331 6.99622ZM15.5551 8.9691C22.2454 7.85566 33.233 6.26562 41.28 6.26562V2.26562C32.8687 2.26562 21.5899 3.90974 14.8985 5.02337L15.5551 8.9691ZM15.7166 14.7609C17.474 12.0653 18.0859 8.87357 17.0949 6.28188L13.3587 7.71058C13.7685 8.78222 13.637 10.6266 12.3659 12.5763L15.7166 14.7609ZM7.1062 20.0046C10.3464 20.0043 13.6901 17.8691 15.7166 14.7609L12.3659 12.5763C10.8846 14.8483 8.6751 16.0045 7.10579 16.0046L7.1062 20.0046ZM7.40112 32.0787C7.40112 28.0171 8.18029 22.8896 9.06813 18.392L5.14386 17.6173C4.24402 22.1757 3.40112 27.6144 3.40112 32.0787H7.40112ZM9.06811 45.7654C8.18028 41.2678 7.40112 36.1403 7.40112 32.0787H3.40112C3.40112 36.543 4.24401 41.9816 5.14384 46.54L9.06811 45.7654ZM15.7165 49.3965C13.6901 46.2883 10.3464 44.1531 7.10619 44.1527L7.10575 48.1527C8.67506 48.1529 10.8845 49.3091 12.3658 51.5811L15.7165 49.3965ZM17.0948 57.8756C18.0859 55.2839 17.474 52.0921 15.7165 49.3965L12.3658 51.5811C13.637 53.5308 13.7685 55.3752 13.3587 56.4468L17.0948 57.8756ZM41.28 57.8918C33.2329 57.8918 22.2453 56.3017 15.5551 55.1883L14.8984 59.134C21.5898 60.2477 32.8687 61.8918 41.28 61.8918V57.8918ZM67.0048 55.1883C60.3145 56.3018 49.327 57.8918 41.28 57.8918V61.8918C49.6913 61.8918 60.97 60.2477 67.6615 59.1341L67.0048 55.1883ZM69.2012 56.4468C68.7914 55.3752 68.9229 53.5308 70.1941 51.5811L66.8433 49.3965C65.0859 52.0921 64.474 55.2839 65.4651 57.8756L69.2012 56.4468ZM70.1941 51.5811C71.6754 49.3091 73.8849 48.1529 75.4542 48.1527L75.4538 44.1527C72.2136 44.1531 68.8698 46.2883 66.8433 49.3965L70.1941 51.5811ZM75.1588 32.0787C75.1588 36.1403 74.3797 41.2678 73.4919 45.7654L77.4161 46.5401C78.316 41.9817 79.1588 36.543 79.1588 32.0787H75.1588ZM73.4918 18.392C74.3797 22.8896 75.1588 28.0171 75.1588 32.0787H79.1588C79.1588 27.6144 78.3159 22.1757 77.4161 17.6173L73.4918 18.392ZM66.8433 14.7609C68.8698 17.8691 72.2135 20.0044 75.4538 20.0047L75.4541 16.0047C73.8848 16.0045 71.6753 14.8483 70.194 12.5763L66.8433 14.7609ZM65.465 6.28185C64.4739 8.87355 65.0858 12.0653 66.8433 14.7609L70.194 12.5763C68.9229 10.6266 68.7913 8.78222 69.2012 7.71059L65.465 6.28185ZM41.28 6.26562C49.327 6.26562 60.3145 7.85565 67.0047 8.96909L67.6614 5.02336C60.9699 3.90972 49.6912 2.26562 41.28 2.26562V6.26562Z" fill="#D9CEBA" mask="url(#path-2-inside-1_293_1402)"/>
<path fill-rule="evenodd" clip-rule="evenodd" d="M31.2688 9.43164L34.9542 9.43164V11.2728C34.9542 12.508 35.5297 13.091 36.7806 14.1804L36.865 14.2571C38.0698 15.3081 39.8655 16.8808 39.8655 19.8651V21.7063H36.182V19.8651C36.182 18.6299 35.6065 18.0469 34.3556 16.9575L34.2712 16.8808C33.0664 15.8298 31.2707 14.2571 31.2707 11.2728C31.2707 11.0649 31.2704 10.899 31.27 10.7025C31.2694 10.4173 31.2688 10.0676 31.2688 9.43164ZM26.3594 41.3457L26.3594 24.1612H53.3717H57.0551C61.8053 24.1612 65.65 28.0047 65.65 32.7535C65.65 37.5022 61.8053 41.3457 57.0551 41.3457H55.8273C55.8273 45.4117 52.5275 48.7105 48.4603 48.7105H33.7264C29.6592 48.7105 26.3594 45.4117 26.3594 41.3457ZM57.0551 29.0711H55.8273V36.4359H57.0551C59.0887 36.4359 60.7386 34.7864 60.7386 32.7535C60.7386 30.7205 59.0887 29.0711 57.0551 29.0711ZM43.549 9.43164V11.2728C43.549 12.508 44.1246 13.091 45.3754 14.1804L45.4598 14.2571C46.6646 15.3081 48.4603 16.8808 48.4603 19.8651V21.7063H44.7768V19.8651C44.7768 18.6299 44.2013 18.0469 42.9504 16.9575L42.866 16.8808C41.6612 15.8298 39.8655 14.2571 39.8655 11.2728C39.8655 10.7632 39.8655 10.2372 39.8636 9.43165L43.549 9.43164ZM49.0956 33.7435C51.0501 35.3194 52.0377 36.6125 52.0377 38.5925C52.0377 41.1382 50.2272 42.5525 47.4291 42.5525C46.7935 42.5525 46.2206 42.4541 45.7068 42.3659C45.2891 42.2942 44.9106 42.2292 44.5693 42.2292C44.3224 42.2292 44.0755 42.2494 43.8286 42.3504H43.6846V38.7541H43.8903C44.1578 40.7745 45.7214 42.3908 47.4085 42.3908C48.8281 42.3908 49.3425 41.4412 49.3425 40.431C49.3425 38.8753 48.5812 38.0267 46.6267 36.4508C44.6721 34.8749 43.6846 33.5819 43.6846 31.6019C43.6846 29.1168 45.7214 27.7025 48.3138 27.7025C49.0957 27.7025 49.5003 27.8065 49.8504 27.8965C50.1176 27.9652 50.3531 28.0257 50.7004 28.0257C50.9473 28.0257 51.1941 28.0055 51.441 27.9045H51.5851V31.3392H51.3793C50.7827 28.9147 49.9185 27.8843 48.4166 27.8843C46.9764 27.8843 46.3798 28.8945 46.3798 29.9653C46.3798 31.521 47.141 32.1676 49.0956 33.7435ZM41.2096 38.8309C41.2096 41.2103 39.3011 42.5525 35.6851 42.5525H30.3815V42.3898H31.4864V28.1746H30.3815V28.0119H35.0824C39.0601 28.0119 40.6672 29.5575 40.6672 31.6725C40.6672 33.9095 38.598 34.9263 37.0712 35.1703C39.3212 35.455 41.2096 36.4515 41.2096 38.8309ZM34.9016 28.1746V35.1297H35.444C36.9105 35.1297 37.5132 33.6654 37.5132 31.6725C37.5132 29.6795 37.0712 28.1746 35.0824 28.1746H34.9016ZM35.5445 35.2924H34.9016V42.3898H35.6851C37.1918 42.3898 37.8748 40.9662 37.8748 38.7496C37.8748 36.8176 36.8503 35.2924 35.5445 35.2924Z" fill="#EDE6DD"/>
</svg>
