<svg width="151" height="200" viewBox="0 0 151 200" fill="none" xmlns="http://www.w3.org/2000/svg">
<path d="M84.0996 122.914C81.914 122.904 79.9766 123.928 78.0344 124.807C76.1101 125.677 74.4352 127.033 72.9694 128.535C72.0987 129.427 71.4193 130.366 70.88 131.494C70.3086 132.691 69.6933 133.665 68.572 134.415C67.5255 135.116 66.5894 135.623 65.3695 135.932C64.5701 136.135 63.8396 136.327 63.0081 136.166C62.3393 136.036 61.3949 135.668 61.37 134.884C61.3629 134.669 61.2156 134.558 61.0516 134.535C61.0279 133.785 61.054 133.036 61.2298 132.299C61.5268 131.057 62.0578 129.838 62.6862 128.728C63.8372 126.697 65.3921 124.639 67.1049 123.046C67.8402 122.361 68.6777 121.798 69.4058 121.118C70.2896 120.292 71.323 119.576 72.499 119.221C74.7227 118.552 77.1519 118.093 79.4741 118.091C80.0645 118.09 80.6762 118.108 81.2428 118.293C81.7714 118.464 82.1776 118.839 82.6861 119.05C83.1149 119.227 83.5782 119.286 84.0165 119.432C84.7518 119.678 85.0689 120.143 85.569 120.687C85.9586 121.108 86.2283 121.48 86.4385 122.019C86.492 122.158 86.7462 122.654 86.701 122.795L86.6927 122.873L86.4955 122.965C86.0382 123.213 84.5819 122.916 84.0996 122.914ZM87.3579 122.293C87.0241 121.201 86.4706 120.475 85.7222 119.634C84.8468 118.649 83.6103 118.708 82.5281 118.099C80.4197 116.915 77.8741 117.255 75.5768 117.732C74.3224 117.993 72.8589 118.17 71.6829 118.689C71.184 118.91 70.6745 119.197 70.1981 119.465C69.5543 119.828 69.1338 120.379 68.5637 120.833C66.2236 122.694 64.285 124.843 62.6457 127.36C61.8154 128.635 61.1681 130.008 60.7286 131.465C60.2617 133.015 60.3971 134.495 60.5634 136.082C60.5979 136.409 61.0469 136.429 61.1253 136.164C62.0922 137.102 64.14 137.064 65.2887 136.764C67.5017 136.186 69.6553 135.076 70.9477 133.104C71.7257 131.918 72.0999 130.628 73.0799 129.546C74.1323 128.382 75.3 127.372 76.6054 126.501C77.6389 125.812 78.7519 125.362 79.872 124.839C81.3782 124.139 82.7966 123.665 84.4762 123.697C85.6831 123.72 87.9376 124.193 87.3579 122.293Z" fill="#4D403D"/>
<path d="M88.8666 132.584C87.4697 134.753 85.9789 136.576 83.7149 137.877C81.4449 139.18 78.9361 140.381 76.3799 140.977C73.3271 141.69 70.1947 141.672 67.0873 141.439C65.4884 141.319 64.0808 140.671 62.6922 139.898C61.6077 139.293 60.3616 137.996 60.4175 136.657C60.8926 136.131 62.9915 137.133 63.5439 137.307C64.5761 137.632 65.7485 137.849 66.8307 137.704C69.1244 137.398 70.5404 135.694 72.1796 134.278C72.9755 133.589 73.3401 132.681 73.8806 131.79C74.5791 130.638 75.5543 129.639 76.526 128.719C77.4252 127.865 78.5097 127.262 79.5242 126.565C80.5576 125.855 81.6801 125.231 82.8276 124.743C83.9584 124.263 84.8624 123.7 86.1547 123.763C87.5742 123.831 88.7063 124.161 89.4736 125.419C90.058 126.374 90.4583 127.597 90.3966 128.722C90.3194 130.132 89.615 131.422 88.8666 132.584ZM91.1331 127.797C90.8801 125.808 89.6756 123.499 87.5374 123.12C86.1678 122.878 84.9229 122.974 83.6282 123.461C83.1138 123.654 82.6411 123.945 82.1386 124.167C81.4508 124.47 80.7797 124.882 80.1311 125.261C77.778 126.639 75.508 128.272 73.8569 130.472C73.377 131.111 73.0111 131.793 72.6025 132.476C72.1535 133.225 71.6237 133.731 70.9989 134.336C69.8764 135.422 68.5472 136.617 66.9531 136.909C65.2425 137.223 63.399 136.493 61.7811 136.007C61.3487 135.877 60.7619 135.644 60.3165 135.859C60.244 135.893 60.1217 136.081 60.0362 136.253C59.8461 136.257 59.6537 136.378 59.6406 136.621C59.504 139.103 62.1374 140.516 64.0048 141.407C65.3352 142.043 66.6323 142.206 68.091 142.264C69.6733 142.327 71.2186 142.503 72.7973 142.296C74.3177 142.097 75.8929 141.938 77.3694 141.52C78.8221 141.109 80.1739 140.497 81.534 139.852C84.0463 138.662 86.4422 137.36 88.1004 135.057C89.6066 132.964 91.4835 130.54 91.1331 127.797Z" fill="#4D403D"/>
<path d="M70.3196 119.665C66.977 121.318 64.4065 124.057 62.4275 127.155C61.4986 128.608 60.8002 130.295 60.1991 131.91C59.7109 133.225 59.3082 135.482 60.2181 136.696C60.5174 137.094 61.1791 136.686 60.8785 136.285C60.3143 135.533 60.4699 134.148 60.6232 133.276C60.7586 132.504 61.0888 131.831 61.3988 131.119C62.0355 129.652 62.6366 128.296 63.4728 126.925C65.1964 124.1 67.8275 121.856 70.5441 120.025C70.7746 119.869 70.5608 119.546 70.3196 119.665Z" fill="#4D403D"/>
<path d="M87.5374 122.761C87.0552 121.948 86.5824 121.167 85.9778 120.432C85.4349 119.774 84.5345 119.201 83.817 118.742C82.0768 117.633 79.6583 117.483 77.6699 117.755C75.5436 118.045 73.1359 118.481 71.1818 119.392C70.1199 119.887 69.2242 120.646 68.2834 121.328C67.9081 121.6 67.5386 121.88 67.187 122.181C66.7475 122.559 66.3128 123.203 65.7783 123.434C65.6357 123.496 65.6963 123.718 65.8519 123.669C66.6062 123.438 67.2156 122.661 67.844 122.207C68.6826 121.602 69.5616 120.963 70.4513 120.442C72.3542 119.324 74.749 118.994 76.8942 118.649C78.9278 118.322 81.0184 118.293 82.9511 119.148C84.7305 119.937 85.9231 121.562 86.8781 123.173C87.1335 123.603 87.7928 123.191 87.5374 122.761Z" fill="#4D403D"/>
<path d="M91.3303 127.987C91.1569 127.189 90.7459 126.198 90.2173 125.568C89.7481 125.007 89.2005 124.538 88.7503 123.953C88.4616 123.581 88.1183 123.223 87.8546 122.837C87.6385 122.52 87.5423 122.196 87.2797 121.903C86.9448 121.53 86.415 122.099 86.7464 122.468C87.1336 122.901 87.3427 123.496 87.7204 123.953C88.0982 124.412 88.451 124.873 88.856 125.307C89.3537 125.842 89.8182 126.262 90.1163 126.948C90.4905 127.813 90.7554 128.603 90.5309 129.553C89.7421 132.878 87.3379 134.765 84.7389 136.719C82.4879 138.412 79.9304 139.505 77.3183 140.525C74.3926 141.667 71.271 142.272 68.1374 141.91C66.535 141.724 64.8471 141.588 63.4169 140.754C62.6994 140.336 61.698 139.713 61.1778 139.06C60.427 138.121 60.4651 136.972 60.8226 135.89C60.8974 135.662 60.5126 135.512 60.4247 135.739C59.8996 137.095 59.7179 138.594 60.8202 139.753C61.8762 140.865 63.3123 141.652 64.758 142.094C66.4495 142.612 68.204 142.731 69.9691 142.828C71.7366 142.925 73.3497 142.448 75.0388 142.009C75.9036 141.784 76.7137 141.591 77.55 141.265C78.4017 140.932 79.2356 140.562 80.0789 140.21C81.5353 139.601 82.9321 138.956 84.215 138.028C85.5882 137.035 86.9958 136.059 88.2502 134.911C89.5842 133.691 90.4501 132.304 91.012 130.599C91.3006 129.723 91.531 128.911 91.3303 127.987Z" fill="#4D403D"/>
<path d="M90.5938 127.73C90.6117 129.44 90.3254 131.129 89.779 132.753C89.4678 133.682 88.9593 134.588 88.5091 135.457C88.1171 136.212 87.7097 137.036 87.193 137.712C86.1501 139.081 84.6545 140.393 83.2125 141.325C81.698 142.303 79.8782 142.914 78.2223 143.615C74.717 145.1 70.5499 145.056 66.8723 144.256C65.0561 143.863 63.2494 142.8 62.0105 141.411C61.3441 140.664 60.9414 139.834 60.6717 138.876C60.5316 138.375 60.0564 136.977 60.4971 136.492C60.7454 136.219 60.3391 135.838 60.0802 136.099C59.4055 136.781 59.8272 138.284 60.0315 139.076C60.3926 140.475 61.0791 141.614 62.1482 142.592C64.6249 144.857 67.9366 145.49 71.1961 145.524C72.0502 145.532 72.9138 145.566 73.7666 145.509C74.6932 145.449 75.5283 145.145 76.431 144.968C78.018 144.655 79.4506 143.927 80.9247 143.281C83.7482 142.042 86.744 140.182 88.3167 137.403C90.0617 134.322 91.4027 131.286 91.3647 127.697C91.3588 127.201 90.5891 127.233 90.5938 127.73Z" fill="#4D403D"/>
<path d="M67.6574 126.077L67.6396 125.988C67.5909 125.752 67.2774 125.671 67.0944 125.786C66.2309 126.323 65.568 127.654 65.081 128.501C64.316 129.833 64.05 131.29 63.481 132.698C63.3622 132.992 63.7886 133.237 63.9228 132.937C64.4502 131.765 64.7449 130.509 65.3471 129.365C65.8104 128.486 66.4756 127.171 67.3142 126.537C67.5149 126.518 67.7109 126.339 67.6574 126.077Z" fill="#4D403D"/>
<path d="M69.4879 122.901C68.5364 123.41 67.0552 123.849 66.6347 124.971C66.5587 125.174 66.9067 125.306 66.9934 125.107C67.1942 124.646 67.7929 124.312 68.2169 124.076C68.7111 123.799 69.2099 123.63 69.7433 123.456C70.159 123.319 69.8894 122.685 69.4879 122.901Z" fill="#4D403D"/>
<path d="M88.1373 127.053C88.1278 126.734 87.6443 126.757 87.6431 127.074C87.6384 129.211 87.0255 131.226 85.5585 132.828C84.8945 133.554 84.101 134.163 83.3087 134.744C82.729 135.168 81.9807 135.475 81.4865 135.987C81.1658 136.319 81.6754 136.792 82.0056 136.476C82.6898 135.819 83.6864 135.363 84.4407 134.762C85.2568 134.112 86.0075 133.42 86.6347 132.582C87.832 130.979 88.2003 129.013 88.1373 127.053Z" fill="#4D403D"/>
<path d="M82.4796 132.877C81.9189 133.598 81.2715 134.187 80.5184 134.705C79.9019 135.129 79.0645 135.332 78.5466 135.871C78.3637 136.062 78.6333 136.418 78.8507 136.241C79.1869 135.965 79.6003 135.839 79.9792 135.631C80.4104 135.395 80.8154 135.1 81.2027 134.8C81.8298 134.315 82.3418 133.753 82.798 133.107C82.9263 132.925 82.6174 132.7 82.4796 132.877Z" fill="#4D403D"/>
<path d="M98.5762 30.8443C98.0714 30.482 97.6937 30.1126 97.4039 29.7408C97.74 30.1541 98.2163 30.4713 98.7687 30.6126C99.0336 31.3087 100.061 31.614 100.958 31.7411C100.101 31.6318 99.2878 31.3527 98.5762 30.8443ZM99.2438 23.8466C101.003 22.6089 103.188 22.2359 105.379 22.6528C106.885 22.9391 108.39 23.9001 109.181 25.1153C106.271 25.0024 103.387 25.2221 100.524 25.9182C100.112 26.0192 99.6655 26.1261 99.2118 26.2449C98.8613 26.2936 98.5216 26.3946 98.2175 26.5359C97.7329 26.6939 97.2625 26.8863 96.8182 27.1168C97.1271 25.9432 98.0904 24.8147 99.2438 23.8466ZM102.042 26.9042C101.767 26.865 101.501 26.8602 101.238 26.8661C101.596 26.7877 101.959 26.7236 102.323 26.669L102.042 26.9042ZM103.944 26.4848L103.886 26.4765L103.962 26.4682L103.944 26.4848ZM108.552 26.5026L108.588 26.3767L108.702 26.3839L108.552 26.5026ZM97.0237 29.0708C97.0926 29.262 97.1853 29.4426 97.3053 29.6125C97.1865 29.445 97.0831 29.2787 97.0012 29.1112L97.0237 29.0708ZM108.022 21.4852C105.057 20.4957 101.57 20.7784 98.7723 22.3072C98.6107 22.3511 98.4587 22.4153 98.3351 22.5091C96.8194 23.6625 94.5791 24.8016 94.1978 26.9136C93.8213 29.0078 95.135 31.007 96.7315 32.1153C100.6 34.7986 106.813 32.8233 110.176 30.0223C113.631 27.1453 111.815 22.7526 108.022 21.4852Z" fill="#4D403D"/>
<path d="M145.076 66.916C145.619 61.9449 142.718 57.6935 140.917 53.1963L140.788 53.0276C141.9 52.4848 142.98 51.8148 143.762 50.9465C144.271 53.0217 144.872 55.0743 145.606 57.096C146.214 58.7662 147.631 60.8235 147.896 62.5435C148.053 62.9225 148.21 63.3026 148.365 63.6815C147.588 65.2459 146.488 66.3185 145.076 66.916ZM126.421 72.3267C125.896 69.7978 125.409 67.289 124.385 64.8967C123.413 62.6267 122.251 60.5123 121.649 58.1069C124.995 57.5391 128.423 56.9748 131.761 56.1623C131.618 56.2728 131.524 56.4106 131.534 56.5674C131.823 61.1882 132.307 65.7852 132.984 70.3667C133.067 70.9215 134.636 70.5604 134.547 69.9522C133.869 65.3718 133.386 60.7748 133.097 56.154C133.087 56.0008 132.947 55.9248 132.759 55.8998C134.761 55.3772 136.727 54.7666 138.607 53.9886C138.855 53.8876 139.113 53.7795 139.379 53.6678C141.199 58.1829 144.195 62.4437 143.437 67.5005C138.183 69.7883 132.193 71.0688 126.421 72.3267ZM114.245 75.0825C113.928 69.8869 113.334 64.7292 112.469 59.5953C114.908 59.2342 117.343 58.854 119.771 58.4288L120.047 58.3813L120.046 58.386C120.637 60.8485 121.832 62.9973 122.823 65.31C123.838 67.681 124.324 70.166 124.844 72.6724C123.692 72.9266 122.55 73.1844 121.433 73.454C119.032 74.0325 116.64 74.5801 114.245 75.0825ZM89.4986 77.545C89.7777 72.297 89.2218 67.1821 87.7905 62.1135C90.5035 61.9579 93.2154 61.7761 95.9238 61.5421C96.8681 61.4602 97.8112 61.3569 98.7556 61.2654C99.5336 66.574 99.9137 71.8955 99.9125 77.2563C98.6605 77.3561 97.4038 77.4369 96.1363 77.4796C93.9245 77.5521 91.7128 77.5652 89.4986 77.545ZM78.3934 77.2314C78.3696 72.2994 77.0618 67.4589 76.8218 62.5329C79.9649 62.4746 83.1068 62.3654 86.2463 62.2014L86.1975 62.4081C87.6123 67.371 88.1979 72.3849 87.9509 77.5259C84.765 77.4737 81.5768 77.3573 78.3934 77.2314ZM65.5895 76.8002L65.6191 76.7313C65.7795 74.3057 65.574 71.968 65.1772 69.5709C64.8138 67.3734 63.9252 64.7601 64.1058 62.483C67.8155 62.5816 71.5275 62.6065 75.2384 62.5578C75.4202 67.4589 76.7505 72.2721 76.8182 77.1684C75.5817 77.1197 74.3452 77.071 73.1098 77.0259C70.6105 76.9356 68.1018 76.8655 65.5895 76.8002ZM38.8116 75.7216C39.0052 75.6218 39.1489 75.4935 39.1478 75.3379C39.0919 70.444 39.6193 65.651 40.7026 60.8853C44.0156 61.2523 47.3344 61.5707 50.6581 61.8189C51.1879 61.8569 51.7176 61.8843 52.2474 61.9199C51.8816 66.6001 51.606 71.2838 51.4195 75.9722L51.3577 76.1504L51.3708 76.3916C47.1765 76.2407 42.9869 76.0352 38.8116 75.7216ZM24.8246 74.1739C24.8804 69.0423 25.3164 63.9559 26.1158 58.8885C26.762 58.993 27.4081 59.0964 28.0496 59.1973C31.7652 59.7841 35.4927 60.2938 39.2297 60.7285C38.0799 65.6439 37.5394 70.5901 37.5869 75.6301C33.8083 75.326 30.0428 74.9305 26.3035 74.39C25.8212 74.3199 25.3258 74.2475 24.8246 74.1739ZM4.39344 57.9073C4.84839 55.3463 5.37819 52.8007 5.95905 50.2682C6.93785 51.8148 8.52483 52.9635 10.1261 53.9411C11.1809 54.5849 12.2856 55.1206 13.4129 55.6065C13.3772 55.7324 13.3879 55.8642 13.4746 55.9996C14.6565 57.8289 13.4841 62.4722 13.256 64.5367C13.0018 66.8566 12.6431 69.1611 12.2357 71.4584C9.71741 70.6079 7.3607 69.5198 5.40074 68.0706C2.08662 65.6212 3.74962 61.5362 4.39344 57.9073ZM22.4809 73.8151C19.813 73.3887 17.0037 72.8577 14.3049 72.0999C14.3976 72.0025 14.4677 71.8967 14.4891 71.7803C15.0913 68.4578 15.5676 65.12 15.8527 61.7548C15.9798 60.2723 16.4324 58.3148 16.1972 56.6684C18.681 57.4809 21.261 58.0427 23.8458 58.5024L23.8422 58.5084C23.0119 63.5841 22.5665 68.6788 22.4809 73.8151ZM63.4228 68.8855C63.892 71.513 64.1985 74.0966 64.0654 76.7598C60.3332 76.6636 56.5938 76.5662 52.8532 76.4414L52.9483 76.2526C53.1277 71.5012 53.408 66.7581 53.7738 62.0185C56.7066 62.2038 59.6418 62.3523 62.5794 62.4461C62.3181 64.5712 63.0498 66.802 63.4228 68.8855ZM110.878 59.8197C111.755 64.9869 112.353 70.1767 112.677 75.4056C108.971 76.1468 105.251 76.7432 101.478 77.1126C101.494 71.747 101.117 66.4219 100.352 61.1098C103.869 60.7487 107.378 60.3151 110.878 59.8197ZM8.40959 37.4394C8.93581 33.4339 9.46203 29.4296 9.98825 25.4254C11.0466 27.6027 12.7346 29.5734 14.7919 30.9584C18.4731 33.4399 22.8919 34.4851 27.0886 35.5851C27.4581 35.6825 27.831 35.7657 28.2005 35.8607C29.9015 36.3359 31.6298 36.7385 33.3688 37.0842C37.1415 37.9169 40.9378 38.632 44.7532 39.2021C59.9911 41.4805 75.489 41.6955 90.7946 40.0016C108.355 38.645 122.873 35.1409 131.443 30.4061C133.613 29.6257 135.416 28.395 136.754 26.5978C137.433 25.9267 138.012 25.2412 138.47 24.5404C139.512 28.0208 140.399 31.5441 141.065 35.1254C141.59 37.9585 141.995 40.8117 142.279 43.6792C142.422 45.1355 143.044 47.7583 142.542 49.1089C141.556 51.7673 138.46 52.9314 135.993 53.7653C123.786 57.8919 109.839 59.1522 97.0451 60.2961C83.4869 61.5089 69.8325 61.7049 56.2422 60.9102C49.355 60.5075 42.4844 59.8388 35.6483 58.917C29.5214 58.0903 23.1046 57.3788 17.2484 55.3261C13.9486 54.1704 9.86474 52.3945 8.13878 49.2372C6.34868 45.9658 7.9392 41.0184 8.40959 37.4394ZM115.88 18.6795C117.36 18.9171 118.843 19.1868 120.309 19.5123L120.28 19.7023C118.816 19.3459 117.349 19.0086 115.88 18.6795ZM127.976 30.5902C127.814 30.6971 127.65 30.8016 127.483 30.9038C126.694 31.221 125.892 31.512 125.086 31.7709C126.058 31.3967 127.022 31.0036 127.976 30.5902ZM119.706 32.3648C102.667 37.9418 84.1687 39.6511 66.3948 39.2081C56.9846 38.9729 47.597 38.0048 38.321 36.324C37.8898 36.2444 37.4539 36.166 37.0167 36.084C30.6653 34.7263 25.1584 33.0348 20.8049 31.0915C19.6622 30.4619 18.5681 29.7504 17.5288 28.9474C20.597 25.0963 26.3985 23.7267 30.6926 22.3025C35.1268 20.8307 39.6384 19.6179 44.195 18.6451C46.3189 18.1913 48.4546 17.8017 50.5963 17.4537C58.9398 16.3407 67.3451 15.7337 75.7539 15.6149C93.232 15.7931 110.549 18.8851 127.416 23.5985C129.073 24.5393 130.69 25.5608 132.28 26.6417C132.124 26.8377 131.97 27.0385 131.806 27.2286C127.926 29.3038 123.861 31.0059 119.706 32.3648ZM28.3786 7.36643C37.2377 5.24254 46.3224 4.30293 55.3822 3.77908C66.864 3.11388 78.5704 2.53893 90.1555 3.15186C98.189 3.88833 106.175 5.1249 114.043 6.99458C116.81 7.65147 119.992 8.31549 123.126 9.26102C125.759 10.3752 128.248 11.7876 130.278 13.7666C132.604 16.0318 134.358 19.8876 134.288 23.3704C132.83 22.3762 131.285 21.5351 129.667 20.8307C127.761 19.8603 125.725 19.1749 123.55 18.7864C118.112 17.4061 112.354 16.8883 107.12 16.2373C103.293 15.7622 99.454 15.3999 95.6089 15.129C87.0005 14.0671 78.3304 13.5896 69.6282 13.8509C58.7474 14.1776 47.869 15.6624 37.3172 18.4859C34.8144 19.1547 31.8389 19.8448 28.8383 20.7512C23.9456 22.0459 19.0219 23.918 15.5153 27.2119C13.5031 25.2425 11.8912 22.7503 11.5752 20.0859C13.1753 12.7509 21.4368 9.40123 28.3786 7.36643ZM74.3808 0.998291C74.844 0.998291 75.3002 1.00542 75.7611 1.0078L75.6423 1.05531C74.0731 1.02679 72.5027 1.02445 70.9336 1.02682C72.0751 1.00782 73.225 0.998291 74.3808 0.998291ZM147.949 56.4748C146.598 52.7592 145.669 48.9438 145.021 45.0512L144.932 44.9751C144.792 43.7718 144.58 42.5994 144.47 41.6266C143.661 34.4816 142.06 27.4804 139.801 20.6621C139.806 20.554 139.827 20.4459 139.827 20.3366C139.827 8.96171 111.078 0.0527573 74.3808 0.0527573C53.4293 0.0527573 35.0793 2.95945 23.1818 7.56833C22.9703 7.63129 22.7565 7.68358 22.5463 7.74773C18.6905 8.92014 14.495 10.2529 11.6738 13.4316C11.2212 13.9412 10.8388 14.4555 10.5193 14.9734C9.86118 14.996 9.02373 15.312 8.9679 15.7396C7.9701 23.3324 6.97228 30.9252 5.97448 38.518C5.69771 40.6288 5.09903 43.0342 4.9648 45.3327C3.07492 52.5964 1.66377 59.9386 0.734863 67.3817L0.797794 67.4517C7.59352 71.5225 15.058 73.6939 22.7458 74.9519C22.9739 75.098 23.3041 75.1443 23.6474 75.0956C29.6164 76.0162 35.7101 76.413 41.7218 76.7301C58.2639 77.602 75.002 78.5772 91.5691 78.4085C94.3712 78.38 97.1591 78.2221 99.9328 77.9631C99.9779 78.1757 100.852 78.0902 101.268 77.8241C109.341 76.9724 117.299 75.2726 125.184 73.277C125.516 73.3542 126.069 73.2164 126.339 72.9848C129.078 72.2804 131.81 71.5463 134.533 70.8027C137.539 69.9819 140.525 69.0862 143.484 68.1074C143.798 68.4507 144.877 68.2227 144.975 67.6786L144.981 67.6275C146.548 67.1239 149.156 66.5585 150.218 65.2162C151.974 62.9937 148.757 58.6949 147.949 56.4748Z" fill="#4D403D"/>
<path d="M11.7748 80.0889L11.7308 79.9012L11.8306 80.0687L11.7748 80.0889Z" fill="#4D403D"/>
<path d="M97.0974 79.8266L96.8943 79.9395C96.7506 79.9193 96.6068 79.8979 96.4619 79.8765C96.6734 79.8587 96.886 79.8456 97.0974 79.8266Z" fill="#4D403D"/>
<path d="M53.2429 81.9032L53.206 81.9175L53.1252 81.8925L53.2429 81.9032Z" fill="#4D403D"/>
<path d="M38.4101 76.6947L38.3649 76.7065L38.1238 76.6935L38.4101 76.6947Z" fill="#4D403D"/>
<path d="M31.214 79.5444L31.3614 79.7451L31.2544 79.8247L31.0751 79.776L31.0002 79.7511L31.214 79.5444Z" fill="#4D403D"/>
<path d="M140.28 69.7524L140.248 69.7489L140.282 69.7382L140.334 69.7489L140.28 69.7524Z" fill="#4D403D"/>
<path d="M110.084 193.969C105.665 195.087 101.176 195.95 96.6541 196.56C87.7178 197.767 78.6367 198.015 69.6399 197.409C61.2845 196.845 52.9707 195.578 44.8362 193.64C40.0622 192.502 33.7286 191.135 29.8526 187.696C30.4774 187.837 31.0998 187.965 31.6973 188.086C35.3963 188.832 39.1499 189.401 42.9119 189.787C51.2316 191.989 60.0123 192.732 68.6896 193.039C68.7906 193.108 68.9212 193.141 69.072 193.113L69.3642 193.063C69.8703 193.08 70.3799 193.101 70.8859 193.115C82.9937 193.454 95.2453 193.467 107.244 191.869C112.499 191.17 117.904 190.27 122.926 188.698C121.838 191.654 112.339 193.398 110.084 193.969ZM33.6728 83.5736C33.6407 83.8599 33.6038 84.1473 33.5801 84.4336C33.2308 84.3089 32.8875 84.1663 32.5407 84.0345C32.4469 83.829 32.3518 83.6235 32.258 83.418C32.7296 83.4738 33.2012 83.5249 33.6728 83.5736ZM40.5266 84.0582C40.1252 84.2376 39.884 84.4205 40.2024 84.5108C40.3235 84.5452 40.4459 84.5726 40.5671 84.6058C40.3592 84.6391 40.1478 84.6902 39.9435 84.7555C39.8449 84.4918 39.713 84.2423 39.5514 84.0107C39.8757 84.0262 40.2012 84.0464 40.5266 84.0582ZM59.3162 94.8559C59.0869 94.8701 58.8517 94.9034 58.6106 94.9545L58.6177 94.8119C58.8304 94.6967 58.9931 94.5565 59.075 94.4021C59.1534 94.5541 59.2402 94.7002 59.3162 94.8559ZM9.54616 124.018C9.47488 122.671 9.4084 121.322 9.34663 119.981C9.42147 120.639 9.48561 121.299 9.52006 121.96C9.55569 122.647 9.55566 123.332 9.54616 124.018ZM45.448 85.6274C45.682 85.6618 45.9148 85.6998 46.15 85.7331L46.2925 85.9303L46.0716 85.9802C45.6903 85.8875 45.2805 85.8483 44.8517 85.8662L44.8421 85.6832C45.0453 85.6642 45.2448 85.644 45.448 85.6274ZM53.9091 84.7472C53.4375 84.7959 52.9671 84.8612 52.4955 84.9194L52.505 84.847C52.9659 84.79 53.4256 84.7329 53.8865 84.6747L53.9091 84.7472ZM136.698 164.815L136.777 164.796L136.696 164.825L136.698 164.815ZM70.3264 191.707C70.5616 191.707 70.798 191.698 71.0332 191.697L70.9013 191.721C70.7101 191.715 70.5189 191.713 70.3264 191.707ZM36.8562 181.971L37.0201 182.049L37.0261 182.053L36.8253 182.078L36.6637 181.98L36.8562 181.971ZM49.0757 177.159L49.179 177.292L49.122 177.256L49.059 177.158L49.0757 177.159ZM47.9365 173.158L47.9698 173.358L47.9223 173.348L47.908 173.326L47.9056 173.322L47.9365 173.158ZM108.343 179.448C108.148 179.937 107.952 180.428 107.756 180.917C107.715 180.503 107.677 180.088 107.635 179.674C107.876 179.609 108.111 179.533 108.343 179.448ZM113.436 185.552L113.419 185.557H113.385L113.436 185.552ZM70.9465 97.2898L70.9429 97.2933L71.203 97.3017C73.6583 97.4062 76.1161 97.4893 78.5761 97.5428C81.5398 97.6081 84.4893 97.7138 87.4328 97.8397C88.5506 97.7625 89.6706 97.696 90.7908 97.633C91.0212 97.62 91.2529 97.6022 91.4845 97.5903C92.6712 97.525 93.8602 97.4703 95.0493 97.4181C95.1799 97.4133 95.3094 97.4062 95.4389 97.4002C97.0746 97.3337 98.7103 97.2731 100.347 97.2232C101.446 97.1888 102.545 97.1555 103.645 97.127C109.88 96.9655 116.118 96.8526 122.349 96.5521C123.013 96.52 123.674 96.463 124.336 96.3929C127.781 96.0378 131.197 95.2799 134.616 94.7988C136.576 94.7264 138.534 94.5957 140.491 94.4246L140.634 94.4508L140.745 94.49C140.867 94.5375 140.986 94.5921 141.095 94.6646C141.384 94.5696 141.637 94.5007 141.846 94.471C142.254 95.0685 142.587 95.6897 142.85 96.3335C142.951 97.4252 142.986 98.967 143.028 100.922C143.061 102.515 143.102 104.438 143.187 106.743C143.367 111.579 143.171 119.133 142.75 127.16C142.458 129.635 142.179 132.113 141.974 134.597C141.605 139.083 141.386 143.57 141.199 148.06C140.525 154.82 139.763 160.197 139.037 162.286C138.84 162.283 138.645 162.382 138.576 162.628C138.473 162.997 138.197 163.272 137.832 163.483C137.262 163.667 136.422 163.861 135.346 164.062C134.942 164.058 134.543 164.075 134.145 164.095L134.149 164.07L133.899 164.102L133.632 164.11L133.337 164.07L133.018 164.108L132.923 164.199C132.505 164.246 132.087 164.285 131.665 164.356H131.659L131.66 164.357L131.528 164.373L131.292 164.502C130.621 164.574 129.95 164.645 129.279 164.715C128.463 164.702 127.65 164.658 126.827 164.579C124.357 164.717 121.898 165.03 119.394 165.148C117.856 165.384 116.314 165.596 114.77 165.797C112.766 166.056 110.755 166.285 108.733 166.459C107.423 166.572 106.109 166.667 104.789 166.733C104.638 166.74 104.487 166.744 104.337 166.751C103.228 166.807 102.118 166.84 101.01 166.885C92.0523 167.247 83.0828 167.322 74.1204 167.284C73.9577 167.297 73.7961 167.316 73.6334 167.329C62.6505 168.193 52.6261 166.928 41.8808 164.879C40.5516 164.626 39.2283 164.354 37.9086 164.072C37.5879 164.138 37.2327 164.113 36.8669 163.949C36.7231 163.885 36.5901 163.818 36.4511 163.753C34.3747 163.298 32.3031 162.824 30.2291 162.351L30.0747 162.315L30.1484 162.532C29.8253 162.438 29.4926 162.344 29.1779 162.251L29.1066 162.096L29.1007 162.094C28.5626 161.971 28.0256 161.849 27.4875 161.727L27.3082 161.686H27.3058L26.9887 161.613C26.4316 161.489 25.8828 161.354 25.3387 161.212L25.3233 161.208L25.2211 161.18C24.6177 161.021 24.0238 160.848 23.4417 160.657L23.146 160.554L23.115 160.542C22.6161 160.371 22.1268 160.183 21.6457 159.978L21.4556 159.893C21.0221 159.702 20.5968 159.494 20.1787 159.266C19.6679 158.988 19.1655 158.689 18.6832 158.346L18.4385 158.176C16.2671 157.49 14.0541 156.591 13.0872 154.935C11.7496 152.647 11.5358 149.248 11.1545 146.625C10.8777 143.535 10.5725 139.781 10.2803 135.693C10.2339 132.882 10.3064 130.064 10.4775 127.239C10.8243 121.528 9.57944 116.174 9.33712 110.499C9.07579 104.42 9.80038 98.3529 10.8219 92.3709C11.0761 92.0882 11.4503 91.9147 11.9041 91.8244L11.9302 91.9444C12.0407 91.8945 12.1583 91.8601 12.2806 91.8351L12.555 91.8054L12.6762 91.809C12.8068 91.8173 12.9411 91.8351 13.0765 91.8791L13.1145 91.8589L13.3283 91.7532C15.1671 91.8648 17.3813 92.5502 18.3434 92.7486C20.1597 93.1228 21.9735 93.4874 23.8017 93.7915C24.4775 93.94 25.1511 94.0968 25.8281 94.2405C26.7689 94.3035 27.7085 94.3772 28.6493 94.4437C31.5988 94.7466 34.56 94.9271 37.5226 95.0899C40.1929 95.2918 42.862 95.4937 45.5323 95.6945C46.0359 95.7337 46.5384 95.7717 47.0421 95.8097L47.0409 95.8049C51.3885 96.1292 55.7383 96.4298 60.0895 96.7006L60.0918 96.7148C60.7392 96.754 61.3878 96.7861 62.0364 96.8241C62.6398 96.8598 63.2421 96.9049 63.8467 96.9394L63.8407 96.9263L64.1341 96.9429L64.1401 96.9536C64.6366 96.9809 65.1331 96.9999 65.6285 97.0273C65.7865 97.0356 65.9456 97.0463 66.1036 97.0534V97.051C67.7167 97.1353 69.331 97.2197 70.9465 97.2898ZM71.8053 90.8753C71.6723 90.9561 71.5511 91.0404 71.4418 91.1295L71.3313 90.9015C71.4893 90.892 71.6473 90.8837 71.8053 90.8753ZM120.099 83.4643C120.399 83.4263 120.699 83.374 120.999 83.3325L120.693 83.5688C120.319 83.7102 119.943 83.8468 119.57 83.9929C119.747 83.8171 119.923 83.6413 120.099 83.4643ZM122.349 86.1203C122.548 86.0301 122.749 85.9398 122.948 85.8459C122.813 86.0586 122.679 86.2712 122.545 86.485C122.431 86.5539 122.325 86.6311 122.237 86.7202C122.275 86.5207 122.312 86.3211 122.349 86.1203ZM127.051 85.1926C127.068 85.0845 127.087 84.9776 127.105 84.8707L127.131 84.847L127.182 85.0061L127.051 85.1926ZM97.267 85.5561L96.9997 85.6369L96.8429 85.6547L96.7515 85.5822L96.7527 85.5787C96.9249 85.5692 97.0959 85.5656 97.267 85.5561ZM135.097 79.6988C135.067 80.2535 135.037 80.8083 135.008 81.363L134.846 81.6279L134.774 81.9308C134.755 81.6089 134.74 81.2882 134.714 80.9662C134.858 80.5517 134.973 80.1229 135.097 79.6988ZM144.083 103.199L144.046 103.374C144.045 103.527 144.042 103.679 144.041 103.832C144.025 103.215 144.01 102.627 143.998 102.078C144.023 102.38 144.047 102.683 144.07 102.984L144.083 103.199ZM145.291 112.8C145.487 109.434 145.379 106.059 145.132 102.699C144.95 100.24 144.715 97.8184 143.722 95.6303C143.574 94.61 143.324 94.0398 142.858 93.731C142.739 93.6537 142.611 93.6026 142.478 93.5658C142.419 93.4031 142.274 93.2831 142.041 93.3069C141.686 93.3425 141.329 93.3663 140.973 93.3983C141.71 86.3995 142.572 79.4102 143.693 72.4422C143.732 72.3222 143.782 72.2082 143.819 72.0882C144.099 71.1831 144.563 69.8646 144.496 68.7991C144.627 68.3263 144.741 67.8463 144.836 67.3605C144.937 66.8533 143.854 66.9911 143.763 67.4484L143.7 67.7133C143.244 67.5637 141.85 67.9545 141.743 68.3227L141.702 68.4866C141.581 68.4985 141.453 68.5163 141.318 68.5484C140.513 68.7396 139.709 68.9321 138.905 69.1233C138.376 69.2493 137.965 69.5486 138.052 69.6982L137.889 69.7101C136.048 70.0926 134.394 70.6342 132.772 71.3375C132.456 71.2211 132.021 71.1914 131.553 71.3173C128.797 72.0573 126.054 72.833 123.318 73.6348L123.178 73.6538C122.882 73.5789 122.518 73.5683 122.137 73.6598C121.619 73.7821 121.103 73.9056 120.585 74.0292C118.761 74.3499 116.951 74.7692 115.137 75.3239C114.821 75.4201 114.576 75.5401 114.386 75.6684C109.502 76.1602 104.619 76.652 99.7342 77.1437C99.3267 77.1853 98.9561 77.3433 98.6651 77.5476L98.5677 77.55C92.6605 76.6532 86.7461 77.6046 80.8425 77.43C79.3791 76.8028 77.3158 76.9477 75.9711 76.9869C75.5233 77 74.3461 77.55 73.909 78.0489C71.5725 77.7721 69.2229 77.588 66.8424 77.5238C66.6191 77.5179 66.3839 77.5654 66.1523 77.6426C65.6118 77.6379 65.0535 77.6521 64.4845 77.6783C63.1684 77.4145 61.7893 77.2827 60.3983 77.215C50.861 75.7693 41.0208 74.8357 31.8351 76.1305C28.0043 75.3999 24.1912 74.5922 20.358 73.8854C20.2036 73.6835 19.9352 73.5196 19.5111 73.4388C17.721 73.0991 15.9642 72.9102 14.1824 72.8199C13.7096 72.6144 13.2 72.4802 12.6453 72.4446C12.6049 72.4422 12.4564 72.4695 12.2937 72.5123C11.8815 72.302 11.4681 72.0954 11.0607 71.8649C10.8279 71.7343 10.5262 71.6843 10.2055 71.6938C9.85028 71.0999 9.46539 70.5191 9.04607 69.9572C8.81088 69.6424 8.06015 69.741 7.53393 70C7.47454 69.874 7.41518 69.7469 7.3546 69.6198C7.18354 69.2623 6.14652 69.5997 6.29382 69.905L6.30809 69.937L6.29857 70.0463C6.8925 71.3126 7.40564 72.6026 7.88078 73.9045L7.8737 73.9745C9.19104 79.5598 10.4941 85.1511 11.6772 90.7601C11.4812 90.7162 11.2721 90.6675 11.0892 90.6294C10.7911 90.5653 10.3456 90.5819 9.91678 91.0143C7.08612 93.8759 7.94377 115.166 9.1637 132.416C9.04016 138.236 9.51887 144.069 10.5915 149.791C10.8885 152.955 11.0951 154.91 11.1165 155.005C11.3969 156.26 14.2311 157.941 18.7984 159.756C19.0146 162.565 19.2664 165.371 19.6287 168.156C19.5895 168.315 19.5812 168.489 19.6156 168.676C19.6703 168.971 19.7249 169.264 19.7796 169.558C19.6774 169.737 19.6216 169.927 19.6453 170.124C20.1264 174.073 20.6194 178.134 21.6421 181.988C22.3049 184.483 22.4523 185.037 24.8161 185.694L24.9241 185.72L25.2045 185.922C28.2134 191.288 35.5804 193.424 41.4104 194.904C51.7483 197.526 62.3619 199.115 73.0383 199.529C84.0984 199.956 95.2061 199.127 106.027 196.835C111.101 195.76 116.395 194.518 121.189 192.544C123.439 191.616 125.548 190.348 125.588 187.968C127.376 187.538 128.894 186.796 129.802 185.565C131.349 183.469 131.435 179.614 131.723 176.77C132.609 173.224 133.283 169.623 133.849 166.006C135.364 165.934 136.873 165.886 138.234 164.937C140.1 163.636 141.002 161.347 141.458 159.207C142.191 155.764 142.047 152.149 142.179 148.65C142.195 148.193 142.224 147.734 142.243 147.277C142.798 141.627 143.273 135.163 143.616 128.903C144.24 123.538 144.976 118.181 145.291 112.8Z" fill="#4D403D"/>
</svg>
