<svg width="200" height="308" viewBox="0 0 200 308" fill="none" xmlns="http://www.w3.org/2000/svg">
<path d="M118.222 94.6682C107.594 80.9582 89.9038 76.8259 72.3884 76.4546C69.9328 76.4037 67.8885 76.9405 66.2391 77.8624C61.6775 77.3999 57.0788 77.7277 52.8623 79.2872C48.3717 80.9486 45.1007 84.0475 43.4919 87.6418C39.1081 94.9175 43.8182 103.602 50.5949 109.261C50.9817 112.829 53.3107 116.095 58.0883 117.395C58.6865 118.015 59.2951 118.627 59.9107 119.23C63.2735 124.351 67.5969 128.764 73.176 132.347C72.5046 136.825 74.0565 141.695 77.3623 145.266C87.3995 156.108 116.073 160.025 120.336 142.351C122.299 134.261 123.368 125.45 124.216 117.201C125.04 109.213 123.345 101.285 118.222 94.6682Z" fill="#FB923C"/>
<path d="M43.313 278.199C40.0269 248.587 38.9094 218.834 39.9699 189.086C40.4566 175.428 17.2239 175.444 16.7384 189.086C15.6779 218.834 16.7953 248.587 20.0814 278.199C20.7145 283.899 24.967 288.808 31.6972 288.808C37.4877 288.808 43.9507 283.934 43.313 278.199Z" fill="#FB923C"/>
<path d="M190.542 187.915C185.547 179.434 171.248 180.689 162.258 180.043C121.312 177.098 80.3152 178.532 39.6403 183.555C33.6767 184.291 30.4255 191.276 31.8658 196.061C33.6338 201.938 39.5764 203.9 45.5585 203.161C67.4043 200.463 89.48 199.09 111.52 198.841C122.322 198.719 133.137 198.884 143.928 199.333C149.678 199.574 155.439 199.895 161.177 200.298C163.617 200.469 166.044 200.662 168.472 200.861C167.926 203.874 167.427 206.894 166.962 209.919C165.928 216.691 165.045 223.48 164.418 230.293C163.477 240.573 163.082 250.881 163.164 261.191C143.672 264.091 124.193 267.184 104.64 269.608C84.2785 272.13 64.5689 270.703 46.1892 261.745C33.5536 255.587 22.2945 273.132 34.9533 279.302C56.338 289.725 79.559 292.803 103.474 290.084C128.212 287.272 152.814 283.14 177.428 279.572C182.062 278.9 185.733 273.852 185.594 269.768C184.99 251.596 185.814 233.355 188.428 215.324C189.09 210.756 189.903 206.203 190.797 201.667C191.715 197.037 193.144 192.334 190.542 187.915Z" fill="#FB923C"/>
<path d="M38.3762 248.703C38.3878 245.827 38.3994 242.952 38.411 240.076C38.4343 234.173 39.4855 228.379 39.4913 222.471C39.4948 219.756 39.4529 217.039 39.4971 214.325C39.5296 212.289 39.4147 207.894 41.4196 206.621C43.63 205.219 47.0694 205.758 49.5285 205.901C52.602 206.079 55.6826 206.115 58.7619 206.123C64.6778 206.135 70.5717 205.899 76.4853 205.794C82.4755 205.688 88.3101 206.024 94.2771 205.313C100.071 204.623 105.934 204.389 111.764 204.178C117.537 203.971 123.368 204.303 129.129 203.862C135.146 203.402 141.198 203.559 147.226 203.626C150.107 203.658 152.976 203.666 155.857 203.666C158.041 203.666 163.175 202.849 164.534 204.669C165.87 206.479 165.719 210.244 165.939 212.409C166.265 215.499 166.695 218.52 166.625 221.633C166.497 227.205 166.625 232.744 166.195 238.297C165.998 240.816 166.276 243.359 166.16 245.881C166.032 248.795 166.102 253.282 163.489 255.17C159.353 258.166 153.069 258.348 148.214 259.231C142.162 260.331 136.075 260.837 129.954 261.466C123.879 262.092 117.769 261.959 111.682 262.464C105.428 262.984 99.0814 263.504 92.8008 263.573C86.1113 263.646 79.4007 263.057 72.7135 263.416C69.3996 263.593 66.1867 263.899 62.8576 263.81C59.8294 263.73 56.8302 263.477 53.8066 263.357C48.8246 263.16 38.7781 262.93 38.4238 256.334C38.4099 256.069 38.3007 255.874 38.159 255.719C38.0266 253.394 38.3669 250.882 38.3762 248.703ZM36.3237 256.141C36.3051 256.231 36.276 256.316 36.2818 256.422C36.5304 261.068 40.2127 263.13 44.3618 264.272C49.5657 265.703 55.6408 265.753 61.0212 265.864C67.7676 266.002 74.4443 265.413 81.1966 265.493C84.5872 265.533 87.979 265.645 91.3697 265.672C94.8416 265.701 98.2671 265.243 101.733 265.176C108.337 265.048 114.888 264.19 121.498 264.095C128.27 263.997 135.076 263.076 141.802 262.442C144.88 262.152 147.877 261.35 150.92 260.885C153.882 260.431 156.717 260.004 159.586 259.056C161.56 258.403 163.849 257.762 165.417 256.334C167.45 254.487 167.67 252.002 167.937 249.449C168.205 246.866 168.298 244.37 168.298 241.772C168.298 238.451 168.716 235.177 168.704 231.85C168.693 225.283 168.774 218.855 168.088 212.321C167.763 209.249 167.996 202.14 163.628 201.587C161.096 201.268 158.32 201.567 155.764 201.567C152.024 201.567 148.284 201.539 144.543 201.497C137.69 201.421 130.872 201.925 124.041 201.917C117.409 201.909 110.799 202.069 104.182 202.423C97.5516 202.777 90.977 203.911 84.334 203.793C77.6514 203.674 71.0072 204.002 64.3282 204.025C60.5623 204.039 56.7907 204.065 53.0272 203.959C49.7353 203.867 46.3144 203.29 43.0516 203.911C40.8933 204.32 38.9512 205.263 38.2113 207.406C37.3842 209.798 37.3667 212.789 37.3667 215.292C37.3667 218.877 37.4458 222.474 37.3319 226.058C37.2146 229.773 36.4805 233.428 36.333 237.144C36.1925 240.699 36.3086 244.272 36.3248 247.829C36.3353 250.431 36.0124 253.412 36.3237 256.141Z" fill="#44403C"/>
<path d="M38.3762 248.703C38.3878 245.827 38.3994 242.952 38.411 240.076C38.4343 234.173 39.4855 228.379 39.4913 222.471C39.4948 219.756 39.4529 217.039 39.4971 214.325C39.5296 212.289 39.4147 207.894 41.4196 206.621C43.63 205.219 47.0694 205.758 49.5285 205.901C52.602 206.079 55.6826 206.115 58.7619 206.123C64.6778 206.135 70.5717 205.899 76.4853 205.794C82.4755 205.688 88.3101 206.024 94.2771 205.313C100.071 204.623 105.934 204.389 111.764 204.178C117.537 203.971 123.368 204.303 129.129 203.862C135.146 203.402 141.198 203.559 147.226 203.626C150.107 203.658 152.976 203.666 155.857 203.666C158.041 203.666 163.175 202.849 164.534 204.669C165.87 206.479 165.719 210.244 165.939 212.409C166.265 215.499 166.695 218.52 166.625 221.633C166.497 227.205 166.625 232.744 166.195 238.297C165.998 240.816 166.276 243.359 166.16 245.881C166.032 248.795 166.102 253.282 163.489 255.17C159.353 258.166 153.069 258.348 148.214 259.231C142.162 260.331 136.075 260.837 129.954 261.466C123.879 262.092 117.769 261.959 111.682 262.464C105.428 262.984 99.0814 263.504 92.8008 263.573C86.1113 263.646 79.4007 263.057 72.7135 263.416C69.3996 263.593 66.1867 263.899 62.8576 263.81C59.8294 263.73 56.8302 263.477 53.8066 263.357C48.8246 263.16 38.7781 262.93 38.4238 256.334C38.4099 256.069 38.3007 255.874 38.159 255.719C38.0266 253.394 38.3669 250.882 38.3762 248.703ZM36.3237 256.141C36.3051 256.231 36.276 256.316 36.2818 256.422C36.5304 261.068 40.2127 263.13 44.3618 264.272C49.5657 265.703 55.6408 265.753 61.0212 265.864C67.7676 266.002 74.4443 265.413 81.1966 265.493C84.5872 265.533 87.979 265.645 91.3697 265.672C94.8416 265.701 98.2671 265.243 101.733 265.176C108.337 265.048 114.888 264.19 121.498 264.095C128.27 263.997 135.076 263.076 141.802 262.442C144.88 262.152 147.877 261.35 150.92 260.885C153.882 260.431 156.717 260.004 159.586 259.056C161.56 258.403 163.849 257.762 165.417 256.334C167.45 254.487 167.67 252.002 167.937 249.449C168.205 246.866 168.298 244.37 168.298 241.772C168.298 238.451 168.716 235.177 168.704 231.85C168.693 225.283 168.774 218.855 168.088 212.321C167.763 209.249 167.996 202.14 163.628 201.587C161.096 201.268 158.32 201.567 155.764 201.567C152.024 201.567 148.284 201.539 144.543 201.497C137.69 201.421 130.872 201.925 124.041 201.917C117.409 201.909 110.799 202.069 104.182 202.423C97.5516 202.777 90.977 203.911 84.334 203.793C77.6514 203.674 71.0072 204.002 64.3282 204.025C60.5623 204.039 56.7907 204.065 53.0272 203.959C49.7353 203.867 46.3144 203.29 43.0516 203.911C40.8933 204.32 38.9512 205.263 38.2113 207.406C37.3842 209.798 37.3667 212.789 37.3667 215.292C37.3667 218.877 37.4458 222.474 37.3319 226.058C37.2146 229.773 36.4805 233.428 36.333 237.144C36.1925 240.699 36.3086 244.272 36.3248 247.829C36.3353 250.431 36.0124 253.412 36.3237 256.141Z" fill="black" fill-opacity="0.2"/>
<path d="M92.5479 231.881C92.599 231.541 92.6641 231.197 92.7396 230.853C92.879 230.036 93.0753 229.219 93.3796 228.402C93.4354 228.25 93.5168 228.119 93.6132 228.001C93.856 227.389 94.137 226.788 94.4483 226.205C95.2452 224.225 96.3951 222.434 98.1793 221.27L98.2955 221.219C98.8856 220.847 99.5268 220.525 100.263 220.304C102.956 218.611 106.917 218.65 110.196 220.17C110.579 220.349 110.963 220.534 111.323 220.753C111.59 220.912 111.81 221.083 112.031 221.258L112.147 221.361L112.275 221.482C112.403 221.598 112.531 221.718 112.635 221.84L112.67 221.886L112.844 222.113C112.937 222.238 113.03 222.364 113.1 222.495L113.228 222.727L113.251 222.773C113.309 222.902 113.367 223.032 113.413 223.164L113.495 223.433C113.541 223.596 113.576 223.762 113.599 223.929C113.622 224.047 113.622 224.168 113.634 224.289C113.646 224.461 113.657 224.632 113.646 224.807L113.623 225.017C113.611 225.203 113.599 225.391 113.564 225.581C113.541 225.681 113.518 225.781 113.495 225.88C113.46 226.035 113.425 226.19 113.379 226.346C113.228 226.839 113.03 227.338 112.798 227.833V227.846C112.693 228.047 112.6 228.246 112.484 228.444C112.229 229.497 111.822 230.491 111.288 231.418C111.125 231.698 110.939 231.972 110.753 232.238L110.626 232.433C110.405 232.735 110.161 233.026 109.905 233.309C109.522 233.738 109.104 234.148 108.639 234.529C108.337 234.878 108 235.218 107.629 235.549C105.67 237.317 102.763 239.356 100.162 239.985C99.4524 240.157 98.7555 240.213 98.0876 240.17C97.7925 240.192 97.4929 240.202 97.1862 240.19C93.8281 240.052 92.6362 237.499 92.6873 234.905C92.6374 234.655 92.4992 234.483 92.3262 234.378C92.3448 233.535 92.4248 232.695 92.5479 231.881ZM108.326 237.795C108.233 237.906 108.14 238.029 108.059 238.146L107.873 238.058C108.035 237.927 108.198 237.792 108.372 237.656L108.326 237.795ZM100.858 245.23C100.827 245.331 100.809 245.437 100.784 245.54C100.411 245.429 100.04 245.304 99.6696 245.165C100.062 245.201 100.459 245.227 100.858 245.23ZM111.323 246.652C117.258 241.904 118.745 234.212 117.084 227.118C116.143 223.112 114.041 220.085 110.207 218.225C108.512 217.399 105.913 216.865 103.887 217.405L103.876 217.404C102.747 217.397 101.726 217.647 100.757 218.027C90.916 219.9 86.1906 236.975 93.418 244.029C97.5962 248.106 106.363 250.622 111.323 246.652Z" fill="#44403C"/>
<path d="M92.5479 231.881C92.599 231.541 92.6641 231.197 92.7396 230.853C92.879 230.036 93.0753 229.219 93.3796 228.402C93.4354 228.25 93.5168 228.119 93.6132 228.001C93.856 227.389 94.137 226.788 94.4483 226.205C95.2452 224.225 96.3951 222.434 98.1793 221.27L98.2955 221.219C98.8856 220.847 99.5268 220.525 100.263 220.304C102.956 218.611 106.917 218.65 110.196 220.17C110.579 220.349 110.963 220.534 111.323 220.753C111.59 220.912 111.81 221.083 112.031 221.258L112.147 221.361L112.275 221.482C112.403 221.598 112.531 221.718 112.635 221.84L112.67 221.886L112.844 222.113C112.937 222.238 113.03 222.364 113.1 222.495L113.228 222.727L113.251 222.773C113.309 222.902 113.367 223.032 113.413 223.164L113.495 223.433C113.541 223.596 113.576 223.762 113.599 223.929C113.622 224.047 113.622 224.168 113.634 224.289C113.646 224.461 113.657 224.632 113.646 224.807L113.623 225.017C113.611 225.203 113.599 225.391 113.564 225.581C113.541 225.681 113.518 225.781 113.495 225.88C113.46 226.035 113.425 226.19 113.379 226.346C113.228 226.839 113.03 227.338 112.798 227.833V227.846C112.693 228.047 112.6 228.246 112.484 228.444C112.229 229.497 111.822 230.491 111.288 231.418C111.125 231.698 110.939 231.972 110.753 232.238L110.626 232.433C110.405 232.735 110.161 233.026 109.905 233.309C109.522 233.738 109.104 234.148 108.639 234.529C108.337 234.878 108 235.218 107.629 235.549C105.67 237.317 102.763 239.356 100.162 239.985C99.4524 240.157 98.7555 240.213 98.0876 240.17C97.7925 240.192 97.4929 240.202 97.1862 240.19C93.8281 240.052 92.6362 237.499 92.6873 234.905C92.6374 234.655 92.4992 234.483 92.3262 234.378C92.3448 233.535 92.4248 232.695 92.5479 231.881ZM108.326 237.795C108.233 237.906 108.14 238.029 108.059 238.146L107.873 238.058C108.035 237.927 108.198 237.792 108.372 237.656L108.326 237.795ZM100.858 245.23C100.827 245.331 100.809 245.437 100.784 245.54C100.411 245.429 100.04 245.304 99.6696 245.165C100.062 245.201 100.459 245.227 100.858 245.23ZM111.323 246.652C117.258 241.904 118.745 234.212 117.084 227.118C116.143 223.112 114.041 220.085 110.207 218.225C108.512 217.399 105.913 216.865 103.887 217.405L103.876 217.404C102.747 217.397 101.726 217.647 100.757 218.027C90.916 219.9 86.1906 236.975 93.418 244.029C97.5962 248.106 106.363 250.622 111.323 246.652Z" fill="black" fill-opacity="0.2"/>
<path d="M17.2018 278.487C16.7999 276.561 16.4943 274.658 16.3085 272.707C16.1424 270.97 15.5129 269.278 15.5071 267.538C15.4769 259.314 15.636 251.072 15.6348 242.842C15.6336 226.287 15.6174 209.733 15.5605 193.179C15.5489 189.712 15.4965 186.257 15.665 182.796C15.7172 181.719 15.8648 180.15 15.4106 178.941C17.5689 178.883 19.6748 178.689 21.7308 178.293C26.5351 177.978 31.3266 177.4 36.1402 177.193C43.2827 176.887 50.4055 176.324 57.5631 176.323C64.8903 176.323 72.2176 176.324 79.5448 176.324C94.614 176.324 109.684 176.323 124.75 176.323C132.103 176.323 139.432 176.382 146.762 175.759C147.528 175.694 148.284 175.608 149.05 175.532C153.232 175.523 157.413 175.616 161.607 175.865C167.391 176.206 173.165 176.34 178.926 176.684C181.168 176.818 183.468 176.925 185.756 176.935C185.466 196.043 185.582 215.159 185.547 234.266C185.535 238.978 185.64 243.697 185.559 248.406C185.477 253.157 184.931 257.897 184.803 262.651C184.699 266.729 184.467 270.82 185.396 274.843C186.104 277.947 186.244 280.972 186.255 284.043C184.153 283.965 182.051 283.918 179.948 283.924C180.099 283.629 180.099 283.258 179.82 282.946C177.335 280.234 174.245 277.17 172.863 273.832C172.468 272.885 170.865 273.319 171.201 274.304C171.852 276.188 173.13 277.736 174.407 279.301C175.685 280.863 176.87 282.508 178.322 283.946C177.172 283.964 176.022 283.982 174.895 284.032C173.664 284.086 172.444 284.119 171.213 284.155C171.364 283.881 171.341 283.543 171.016 283.269C165.8 278.932 161.316 273.807 158.064 268.061C157.611 267.263 156.333 268.006 156.763 268.799C159.888 274.497 164.232 280.016 169.517 284.212C167.601 284.258 165.672 284.288 163.756 284.304C157.367 284.148 150.99 283.756 144.59 283.657C141.233 283.605 137.899 283.743 134.577 283.986C132.683 283.961 130.802 283.95 128.908 283.939L128.885 283.938C123.333 283.898 117.827 283.829 112.321 283.823C110.451 283.774 108.558 283.789 106.669 283.824C96.7559 283.169 86.3377 283.395 76.4759 283.89C74.2596 284 72.1037 284.221 69.9583 284.484C55.1598 284.032 40.2556 284.153 25.5291 285.696C22.9248 285.968 20.3357 286.063 17.7431 286.161C17.7779 283.582 17.7489 281.105 17.2018 278.487ZM58.4006 155.48C58.2751 154.147 58.296 152.489 58.6143 151.3C59.2044 149.094 61.5717 148.456 63.8205 148.233C67.5806 147.86 71.437 147.615 75.2179 147.588C83.7474 147.525 92.3942 146.917 100.906 147.469C105.05 147.738 109.115 147.959 113.262 147.912C117.478 147.866 121.73 147.727 125.935 147.901C127.886 147.981 129.814 148.221 131.766 148.245C133.973 148.273 136.191 148.109 138.375 148.498C140.815 148.934 142.232 149.782 143.022 152.051C143.358 153.047 143.533 154.008 143.626 154.985C140.582 154.97 137.574 155.096 134.577 155.315C132.683 155.291 130.802 155.279 128.908 155.269L128.885 155.267C123.333 155.227 117.827 155.158 112.321 155.153C110.451 155.104 108.558 155.12 106.669 155.154C96.7559 154.498 86.3377 154.725 76.4759 155.22C74.2608 155.331 72.1037 155.551 69.9594 155.815C66.1518 155.698 62.3395 155.625 58.5225 155.6L58.4006 155.48ZM71.0107 139.043C71.0665 136.905 70.7017 134.975 70.2046 132.948C71.4033 133.223 72.63 133.8 73.7254 134.108C75.1285 134.435 76.5387 134.606 77.9802 134.807C78.5726 134.889 79.1579 135.006 79.7411 135.132C81.0304 135.237 82.3291 135.343 83.6323 135.536C84.7231 135.698 85.8057 135.902 86.886 136.115C87.5841 136.155 88.2857 136.207 88.9966 136.326C90.6379 136.601 92.2978 136.922 93.9623 137.061C96.7315 137.294 99.5066 137.249 102.282 137.335C104.095 137.212 105.896 137.019 107.698 136.832C108.836 136.711 109.975 136.607 111.125 136.514C111.798 136.459 112.46 136.403 113.134 136.368C113.25 136.299 113.378 136.231 113.483 136.161C114.818 135.926 116.143 135.666 117.467 135.39C120.87 134.684 124.251 133.728 127.468 132.475C127.805 135.483 127.84 138.194 129.106 141.139C129.884 142.955 131.057 144.777 132.44 146.343C130.395 146.289 128.351 146.266 126.33 146.167C122.264 145.968 118.187 146.115 114.133 146.149C106.32 146.214 98.5853 145.473 90.776 145.616C83.5952 145.748 76.4109 145.765 69.2462 146.172C69.7736 143.769 70.9457 141.584 71.0107 139.043ZM90.6018 31.0529C90.524 28.7338 90.4056 26.2842 90.6321 23.9735C90.6844 23.4388 90.7297 22.8829 90.7877 22.3206V32.7694C90.682 32.1859 90.6204 31.6057 90.6018 31.0529ZM178.566 25.9171C178.728 26.699 178.903 27.483 179.1 28.2723C179.425 29.5443 180.018 30.5914 180.843 31.612C179.425 30.1575 178.566 28.2532 178.566 26.1632V25.9171ZM187.591 1.43784H187.603C186.325 1.60547 185.222 1.71051 184.025 2.24838C182.794 2.80429 181.632 3.48218 180.691 4.40625C180.529 4.5643 180.39 4.73831 180.239 4.9144C181.876 2.81384 184.56 1.43784 187.591 1.43784ZM194.909 30.9691C195.142 30.5978 195.374 30.2169 195.548 29.8191C195.955 28.8897 196.28 27.9158 196.57 26.9292C196.419 28.4293 195.815 29.8096 194.909 30.9691ZM122.043 55.6701L122.183 55.616L122.473 55.5565L122.485 55.5767L122.427 55.5905C122.299 55.6202 122.171 55.6425 122.043 55.6701ZM92.8669 50.843L92.7299 50.9236L92.7113 50.7401L92.9773 50.7178L92.8669 50.843ZM92.824 56.3162C92.9123 56.6291 93.0539 56.9421 93.2491 57.2529C92.7031 57.0662 92.5208 56.6864 92.4558 56.139C92.5615 56.226 92.6881 56.2875 92.824 56.3162ZM133.845 48.7742C133.636 49.0236 133.439 49.2729 133.229 49.519C133.427 49.2633 133.613 49.0045 133.787 48.7435L133.845 48.7742ZM149.387 35.9957C148.841 36.0455 148.295 36.1134 147.761 36.1877C148.318 36.0848 148.887 35.9861 149.445 35.8927L149.387 35.9957ZM157.553 39.4287C156.124 39.6409 154.684 39.8658 153.255 40.0918C153.929 39.9146 154.603 39.7364 155.265 39.538C156.031 39.5041 156.798 39.4648 157.553 39.4287ZM193.794 35.2881C193.701 35.3888 193.573 35.4801 193.434 35.5596C193.573 35.1979 193.713 34.782 193.887 34.3905C193.899 34.7173 193.887 35.0228 193.794 35.2881ZM146.483 38.0029C147.157 37.9074 147.819 37.8246 148.481 37.7557L148.574 37.7737C148.829 37.7833 149.073 37.7843 149.329 37.7907C148.969 37.866 148.609 37.9435 148.249 38.0135L148.074 38.0432C147.877 37.9148 147.633 37.8469 147.366 37.9138C147.075 37.9859 146.785 38.0708 146.483 38.162V38.0029ZM178.566 12.5031C178.682 11.8846 178.868 11.2693 178.972 10.655C179.147 9.5994 179.634 8.46951 179.983 7.44467C180.796 5.13086 183.073 3.33899 185.617 2.65259C186.964 2.2887 188.927 2.05634 190.24 2.53375C191.378 2.94751 192.296 3.57983 193.202 4.33414C194.224 5.19666 195.072 5.99655 195.432 7.25372C195.78 8.46951 196.199 9.56119 196.384 10.8194C196.524 11.7679 196.582 12.7131 196.617 13.6584V18.0134C196.605 18.3295 196.594 18.6446 196.594 18.9618C196.547 22.065 196.059 25.0535 195.06 28.024C194.596 29.4053 194.015 30.5702 192.958 31.6597L192.667 31.9366C189.229 31.961 185.791 32.0151 182.341 32.1106C182.027 31.7457 181.76 31.3871 181.598 31.1431C180.912 30.1034 180.39 29.1899 180.099 27.989C179.495 25.4789 179.135 23.024 178.845 20.4768C178.705 19.3427 178.868 18.2086 178.67 17.0851C178.624 16.8241 178.589 16.5589 178.566 16.2926V12.5031ZM49.5691 83.7967C47.8441 83.7033 46.1251 83.575 44.421 83.3713C46.1425 83.5103 47.8592 83.6439 49.5691 83.7967ZM31.3846 79.6984C31.0989 79.4852 31.0629 79.3409 31.1988 79.2295C31.2418 79.3833 31.3045 79.5403 31.3846 79.6984ZM94.8231 75.093C94.7964 75.5439 94.7801 75.9991 94.7766 76.4553C94.6325 78.5092 94.4862 80.5599 94.6511 82.6223C94.4804 82.7655 94.3631 82.9692 94.3631 83.2418C94.3654 83.3702 94.3607 83.4996 94.3619 83.628C94.2294 83.7967 94.0959 83.9654 93.9623 84.134C93.7916 84.255 93.6789 84.4375 93.6185 84.6327C89.1731 84.6062 84.8985 84.5457 80.8248 84.4512C77.6781 84.2571 74.5082 84.1712 71.3696 84.0715C70.5438 84.045 69.7179 84.0524 68.8909 84.0661C65.1564 83.9091 61.646 83.7245 58.3855 83.5155C58.008 83.4572 57.627 83.3999 57.2541 83.3394C55.0645 82.9861 52.8936 82.5215 50.6564 82.3888C48.2635 82.2456 45.888 82.1565 43.5045 81.9221C41.021 81.677 38.4726 81.5826 36.132 80.8293C34.7567 80.387 33.0909 79.9233 32.9341 78.6259C32.8853 78.2227 33.0109 77.8663 33.2304 77.5491C34.1318 77.2499 35.0773 77.0504 35.7057 76.9348C38.1903 76.4765 40.7481 76.3683 43.2792 76.1264C45.4223 75.9216 47.5189 75.4177 49.6644 75.2744C51.7599 75.1344 53.867 75.0559 55.9648 74.9148C60.4357 74.6167 64.917 74.3271 69.3926 74.047C72.1211 73.8762 74.8752 73.6407 77.6258 73.4476C82.9459 73.3001 88.6225 73.2057 94.6174 73.1781C94.6558 73.8232 94.7174 74.4639 94.8231 75.093ZM107.675 85.1546L107.605 85.0422C109.011 85.0252 110.416 85.004 111.822 84.9785C110.439 85.0496 109.057 85.1048 107.675 85.1546ZM93.5929 85.0815L93.6219 85.1971C93.3094 85.1568 92.9971 85.1165 92.6846 85.0751C92.9866 85.0783 93.2909 85.0793 93.5929 85.0815ZM135.227 74.3271C139.711 74.5509 144.218 75.0718 148.678 75.4325C150.665 75.5938 152.709 75.8601 154.719 75.9014C155.09 75.9089 155.474 75.9036 155.845 75.8972C158.18 76.2123 160.166 76.5433 161.758 76.8839C162.838 77.1809 163.872 77.5077 164.511 78.2789C164.662 78.455 164.755 78.6248 164.813 78.7892L164.685 78.9569C164.72 79.1203 164.708 79.2804 164.673 79.4353L164.569 79.6783L164.522 79.7387C164.453 79.83 164.36 79.9127 164.244 79.9828L164.093 80.0761C162.873 80.5737 161.607 80.9301 160.341 81.1678L160.352 81.2155C158.947 81.4754 157.297 81.729 155.45 81.973C153.557 82.1162 151.722 82.1342 149.805 82.1745C147.377 82.2255 144.973 82.5639 142.569 82.7931C137.957 83.2344 133.357 83.7521 128.699 83.8975C126.19 83.9749 123.704 84.1351 121.219 84.3176C116.549 84.4597 111.566 84.5605 106.335 84.6104C105.267 84.5329 104.226 84.4088 103.155 84.3738C102.951 84.3653 102.746 84.3611 102.548 84.3579L102.517 84.3621L102.536 84.2105C102.502 80.5312 102.501 76.8552 102.492 73.1781C112.24 73.2259 121.172 73.4444 129.048 73.7903C131.115 74.0014 133.171 74.2242 135.227 74.3271ZM112.333 134.824C108.778 135.465 105.291 135.265 101.697 135.222C97.8373 135.176 93.9727 135.433 90.1372 134.912C90.0222 134.897 89.9084 134.881 89.7946 134.866C88.8247 134.689 87.8501 134.524 86.8778 134.462C84.6894 134.149 82.5161 133.795 80.3579 133.26C77.2588 132.493 74.0842 132.045 71.0026 131.21C68.7921 130.611 66.7488 129.797 64.7219 128.909C64.1283 128.606 63.5347 128.3 62.9272 128.024C60.0012 126.689 57.2959 124.777 54.7718 122.861C52.1187 120.845 49.4414 118.672 47.548 116.011C46.5549 114.615 45.9705 113.07 45.1296 111.606C44.1387 109.88 43.1525 108.213 42.2604 106.436C40.726 103.375 38.8071 100.55 36.9486 97.651C36.2551 96.5668 35.5559 95.5016 34.8903 94.4269C33.7868 91.9762 32.8959 89.499 32.1409 86.886C31.6054 85.0316 31.1709 83.053 30.9328 81.0617C34.2131 82.6477 38.246 83.7033 42.0235 84.36C46.9695 85.2193 52.2187 85.1748 57.2727 85.4082C62.6566 85.6575 67.9825 86.0606 73.3769 86.1964C80.4927 86.3768 87.5435 86.6961 94.6152 86.7174C96.131 86.8372 97.6503 86.8967 99.1824 86.8807C101.731 86.8521 104.205 87.1703 106.739 87.2669C109.557 87.373 112.379 87.0176 115.202 87.0589C120.185 87.1332 125.04 86.3429 129.977 85.979C135.692 85.5567 141.361 84.795 147.099 84.4353C149.724 84.272 152.407 83.9866 155.021 83.7362C156.74 83.5718 158.447 83.175 160.143 82.9066L160.41 82.8716C160.921 82.7963 161.421 82.7273 161.932 82.688C162.153 82.6711 162.327 82.5915 162.455 82.4897L162.745 82.4175C162.234 87.3157 159.922 92.861 157.832 97.3094C155.915 101.392 153.534 105.457 151.013 109.258C148.353 113.265 145.542 117.486 141.604 120.558C137.295 123.924 132.021 126.162 127.526 129.314C127.294 129.476 127.143 129.674 127.073 129.882C124.971 130.729 122.81 131.344 120.615 132.112C119.232 132.598 117.839 132.967 116.445 133.442C115.237 133.854 113.924 133.992 112.844 134.663L112.693 134.757C112.577 134.779 112.449 134.802 112.333 134.824ZM55.6999 158.008L55.4049 158.002C55.5164 158.001 55.6268 158.002 55.7383 158.002L55.6999 158.008ZM55.6999 286.678L55.4037 286.672C55.5153 286.672 55.6268 286.673 55.7383 286.672L55.6999 286.678ZM199.823 293.523C199.846 292.469 199.846 291.284 199.625 290.169C199.439 287.113 197.86 284.74 192.946 284.394C191.436 284.287 189.914 284.196 188.381 284.12C188.428 281.361 188.381 278.603 187.766 275.888C186.743 271.388 186.732 267.144 186.848 262.572C186.976 257.818 187.522 253.078 187.591 248.329C187.673 243.618 187.568 238.899 187.58 234.189C187.603 215.104 187.661 196.008 187.371 176.926C190.391 176.873 193.388 176.619 196.222 175.983C197.79 175.63 199.242 174.27 199.521 172.869C199.951 170.636 200.183 168.353 199.823 166.385C199.823 165.866 199.811 165.351 199.823 164.853C199.846 163.798 199.846 162.614 199.625 161.498C199.439 158.443 197.86 156.07 192.946 155.724C187.022 155.307 180.819 155.099 174.895 155.362C171.19 155.526 167.473 155.604 163.756 155.635C157.692 155.486 151.64 155.133 145.577 155.012C145.449 153.124 145.054 151.236 143.986 149.601C142.534 147.384 139.769 146.812 137.121 146.578C136.412 146.516 135.715 146.479 135.007 146.443L134.867 146.236C132.951 144.418 131.406 141.916 130.476 139.563C129.919 138.12 129.536 136.668 129.327 135.145C129.164 134.043 129.222 132.938 128.897 131.882C131.673 130.713 134.321 129.325 136.749 127.655C139.153 126.004 141.384 124.498 143.451 122.525C143.87 122.269 144.288 122.017 144.706 121.751C145.403 120.944 146.135 120.177 146.948 119.455C148.829 116.635 151.304 114.173 153.685 111.685L153.964 111.496C154.068 111.348 154.173 111.204 154.289 111.057C154.568 110.416 154.881 109.783 155.288 109.189C156.705 107.093 157.948 104.931 159.202 102.75C160.085 100.136 161.096 97.5587 162.071 94.9711L162.083 94.9415C162.246 94.515 162.397 94.0853 162.559 93.6578L162.571 93.6005C162.757 93.1071 162.943 92.6138 163.117 92.1184L163.129 92.0388C163.64 90.7307 164.22 89.4481 164.639 88.1093C165.15 86.5105 165.637 84.9859 166.044 83.454C166.183 82.6339 166.23 81.7534 166.183 80.8803V80.8792L166.172 80.8378C166.16 80.579 166.125 80.3201 166.091 80.0645V80.0506L166.067 79.883L166.044 79.7536L166.021 79.6825L165.998 79.5298L165.986 79.5128C165.963 79.3929 165.928 79.2751 165.893 79.1584L165.835 78.9526L165.754 78.6884L165.684 78.5261L165.637 78.3914L165.614 78.3458C165.533 78.14 165.428 77.9416 165.324 77.7485L165.231 77.5819L165.219 77.5671V77.5713L165.115 77.4355L165.068 77.3485L165.045 77.3422C164.894 77.131 164.755 76.9157 164.569 76.7279C164.464 76.6239 164.406 76.5147 164.325 76.4065C163.895 76.1688 163.442 75.9704 163.001 75.8357C161.212 75.285 159.237 74.7069 157.286 74.5955C154.544 74.4406 151.815 74.4109 149.073 74.187C144.009 73.7733 138.933 73.2354 133.845 72.9988C131.197 72.8758 128.583 72.6084 125.958 72.3336C123.449 72.0695 120.952 72.0822 118.443 71.8562C113.494 71.4107 108.314 71.7024 103.341 71.7343C103.055 71.7364 102.772 71.7257 102.487 71.7204L102.486 71.6313C102.536 70.3996 102.585 69.1679 102.62 67.9352C102.685 65.5969 102.851 63.264 102.38 60.9809C102.365 60.112 102.352 59.2421 102.334 58.3733C103.852 58.3531 105.371 58.3839 106.888 58.3892C109.324 58.3987 111.729 58.1006 114.168 58.1313C118.57 58.1865 123.054 57.1521 127.189 55.8366C128.839 55.3104 130.686 54.7185 132.01 53.6257C132.428 53.2778 132.73 52.9022 133.055 52.4842C133.822 51.4997 134.565 50.6425 135.402 49.7078C136.761 48.2013 137.887 46.54 139.444 45.1958C141.407 43.5026 143.382 43.0941 145.96 42.7653C155.148 41.5972 164.197 39.8001 173.501 39.6462C175.279 39.625 177.067 39.6133 178.845 39.6281C183.224 39.6653 187.185 38.1058 191.529 38.0538C192.598 38.0411 194.038 37.8957 194.898 37.2401C195.246 36.9759 195.432 36.6577 195.537 36.3118C196.443 35.1395 196.048 33.3445 195.722 32.0502C195.653 31.7765 195.444 31.6152 195.188 31.5547C196.466 30.0631 197.232 28.1948 197.232 26.1632V24.0754C197.418 22.9731 197.569 21.8687 197.639 20.7781C197.825 17.4745 197.941 14.0615 197.465 10.778C197.407 10.3781 197.314 9.99615 197.221 9.62061C197.186 4.79352 192.888 0.874542 187.591 0.874542C182.271 0.874542 177.95 4.82425 177.95 9.67892V10.3622C177.927 10.4608 177.904 10.5627 177.881 10.6603C177.602 11.9206 177.358 12.972 177.416 14.2769C177.486 15.6741 177.695 17.0915 177.718 18.4749C177.741 19.6238 177.834 20.7494 177.95 21.8665V26.1632C177.95 28.4845 178.949 30.5925 180.564 32.1679C170.609 32.4851 160.631 33.1535 150.827 34.4669C147.947 34.8531 145.054 35.2859 142.406 36.4169C139.444 37.673 136.912 39.5497 134.379 41.3956C131.638 43.3997 128.862 45.6223 125.679 47.0407C123.797 47.8852 122.206 47.76 120.197 47.7844C118.384 47.8056 116.572 48.0369 114.772 48.2247C110.718 48.6469 106.647 48.7965 102.584 49.1042C102.47 49.1126 102.357 49.1201 102.243 49.1286C102.243 47.7939 102.243 46.4593 102.242 45.1247C102.241 43.3859 102.243 41.6471 102.239 39.9083L102.244 39.8435H103.271C105.18 39.8435 106.742 38.4167 106.742 36.6736V35.3369C107.454 34.0171 107.907 32.5732 107.942 31.1399C108.012 28.1025 108.07 24.923 107.779 21.8973C107.628 20.3919 107.315 18.8409 106.742 17.3864V15.6826C106.742 13.9395 105.18 12.5126 103.271 12.5126H102.534C101.71 12.1349 100.803 11.8899 99.8213 11.804C98.4401 11.683 97.2647 11.8856 95.9556 12.2675C95.7465 12.3291 95.5641 12.4245 95.3771 12.5126H94.2585C92.35 12.5126 90.7877 13.9395 90.7877 15.6826V17.5869C89.0152 21.4093 89.3485 26.0232 89.3717 30.0992C89.3833 32.1754 89.6935 34.4414 90.7877 36.3235V36.6736C90.7877 38.4167 92.35 39.8435 94.2585 39.8435H94.8404C94.8613 40.4865 94.8974 41.0699 94.9067 41.4954C94.9241 42.2783 94.9322 43.0602 94.9404 43.8442C94.9404 45.7963 94.9404 47.7494 94.9404 49.7014C93.6255 49.8585 92.3036 50.0409 91.0003 49.9953C90.5299 49.9783 90.4822 50.5237 90.7982 50.7242C89.9758 51.3384 90.1013 52.7961 90.322 53.6098L90.5102 53.8315C90.4579 54.7492 90.4637 55.668 90.7622 56.4976C90.8122 56.8965 90.9004 57.2858 91.0723 57.6487C91.5044 58.5579 92.2385 58.8941 93.2827 58.944C93.4686 58.9536 93.6533 58.9398 93.838 58.9419C94.1238 59.013 94.4107 59.0671 94.6999 59.1095C94.5826 62.079 94.5466 65.0527 94.571 68.0296C94.5803 69.2252 94.5478 70.4527 94.5629 71.677C92.6428 71.7183 90.7215 71.6982 88.8026 71.7947C85.9718 71.9358 83.1538 71.834 80.3242 72.044C77.2298 72.2742 74.1493 72.4981 71.0456 72.67C65.0367 73.0031 59.0477 73.4975 53.04 73.8369C50.3846 73.9876 47.9313 74.2422 45.3178 74.6125C42.4754 75.0135 39.5645 75.0718 36.7198 75.4707C36.4968 75.5015 36.2516 75.5418 35.9972 75.5853L35.9531 75.4824L35.8486 75.5164C35.2551 75.6299 34.723 75.7826 34.2247 75.9566L34.2072 75.9598C33.8924 76.0691 33.5962 76.1889 33.3163 76.3194C33.1676 76.3895 33.0353 76.469 32.8959 76.5444C32.7066 76.6473 32.523 76.7533 32.3499 76.8658C32.2384 76.94 32.128 77.0154 32.0223 77.0939L31.8202 77.2392L31.8191 77.2382C31.7087 77.3262 31.6111 77.4217 31.5101 77.514L31.4659 77.531L31.3684 77.6413L31.3579 77.6498L31.3138 77.687L31.3126 77.6901L31.2928 77.7092L31.2952 77.7124C31.107 77.9002 30.934 78.0965 30.7772 78.3012C30.6912 78.4126 30.6169 78.5293 30.5402 78.646L30.4391 78.7977L30.3265 78.9685L30.2219 79.1722L30.0988 79.377L30.1115 79.3908L29.9849 79.6465L29.8943 79.8852C29.8536 79.9902 29.813 80.0942 29.7759 80.2013L29.7747 80.179L29.7457 80.2851L29.7189 80.3689L29.712 80.3848L29.7143 80.3859L29.6504 80.6278C29.0882 82.6955 29.3089 85.1578 29.9222 87.6796C30.6075 89.9319 31.5392 92.1778 32.7217 94.184C33.0202 94.6911 33.3395 95.1886 33.6555 95.6873C36.2086 101.186 39.151 106.529 42.451 111.672C46.0217 117.236 50.0314 122.051 55.6558 126.04C58.2113 127.852 61.2685 129.161 64.1701 130.45C64.5767 130.63 64.996 130.785 65.4084 130.952C66.4364 131.425 67.4749 131.88 68.5226 132.319L68.497 132.522C68.7096 134.61 69.2173 136.572 69.1615 138.705C69.0895 141.423 67.7339 143.686 67.2774 146.281C67.1008 146.292 66.9231 146.297 66.7477 146.309C63.8205 146.518 59.9954 146.472 57.8732 148.702C56.3132 150.342 56.376 153.419 56.6792 155.584C46.2738 155.561 35.8578 155.944 25.5291 157.025C21.5123 157.445 17.5305 157.442 13.5138 157.687C10.4553 157.874 7.01237 158.493 4.39766 160.333C2.91897 161.373 2.00949 162.76 1.46819 164.327C0.161419 166.425 -0.349675 168.885 0.248537 171.264C0.0615232 172.311 0.102201 173.413 0.387949 174.406C0.254368 175.602 0.953597 176.666 1.9723 177.423C2.06058 177.529 2.17093 177.603 2.29639 177.645C2.76566 177.946 3.28138 178.191 3.81222 178.352C5.37919 178.825 7.14719 178.69 8.77456 178.787C10.4112 178.884 12.0131 178.938 13.6335 178.947C14.6707 179.851 13.7948 183.776 13.7286 184.877C13.5288 188.266 13.6613 191.692 13.6485 195.087C13.6183 202.965 13.6079 210.843 13.5998 218.721C13.5893 226.632 13.58 234.543 13.58 242.456C13.5789 250.299 13.9052 258.206 13.5497 266.041C13.3894 269.592 14.119 273.286 14.7764 276.796C15.1377 278.723 15.694 280.645 15.7858 282.603C15.8427 283.818 15.7835 285.034 15.7243 286.25C14.9879 286.281 14.2525 286.312 13.5138 286.358C10.4553 286.544 7.01237 287.163 4.39766 289.004C2.91897 290.043 2.00949 291.43 1.46819 292.996C0.161419 295.094 -0.349675 297.556 0.248537 299.934C0.0615232 300.981 0.102201 302.083 0.387949 303.075C0.254368 304.272 0.953597 305.336 1.9723 306.094C2.06058 306.2 2.17093 306.273 2.29639 306.315C2.76566 306.617 3.28138 306.862 3.81222 307.021C5.37919 307.494 7.14719 307.36 8.77456 307.457C10.8631 307.581 12.8842 307.667 14.9762 307.627C17.2866 307.582 19.5366 307.385 21.7308 306.964C26.5351 306.649 31.3266 306.07 36.1402 305.863C43.2827 305.557 50.4055 304.994 57.5631 304.994C64.8903 304.992 72.2176 304.995 79.5448 304.995C94.614 304.994 109.684 304.994 124.75 304.994C132.103 304.994 139.432 305.052 146.762 304.429C147.528 304.364 148.284 304.277 149.05 304.202C153.232 304.193 157.413 304.286 161.607 304.534C167.391 304.877 173.165 305.01 178.926 305.354C184.653 305.695 190.739 305.885 196.222 304.653C197.79 304.3 199.242 302.94 199.521 301.539C199.951 299.306 200.183 297.023 199.823 295.055C199.823 294.536 199.811 294.022 199.823 293.523Z" fill="#44403C"/>
<path d="M17.2018 278.487C16.7999 276.561 16.4943 274.658 16.3085 272.707C16.1424 270.97 15.5129 269.278 15.5071 267.538C15.4769 259.314 15.636 251.072 15.6348 242.842C15.6336 226.287 15.6174 209.733 15.5605 193.179C15.5489 189.712 15.4965 186.257 15.665 182.796C15.7172 181.719 15.8648 180.15 15.4106 178.941C17.5689 178.883 19.6748 178.689 21.7308 178.293C26.5351 177.978 31.3266 177.4 36.1402 177.193C43.2827 176.887 50.4055 176.324 57.5631 176.323C64.8903 176.323 72.2176 176.324 79.5448 176.324C94.614 176.324 109.684 176.323 124.75 176.323C132.103 176.323 139.432 176.382 146.762 175.759C147.528 175.694 148.284 175.608 149.05 175.532C153.232 175.523 157.413 175.616 161.607 175.865C167.391 176.206 173.165 176.34 178.926 176.684C181.168 176.818 183.468 176.925 185.756 176.935C185.466 196.043 185.582 215.159 185.547 234.266C185.535 238.978 185.64 243.697 185.559 248.406C185.477 253.157 184.931 257.897 184.803 262.651C184.699 266.729 184.467 270.82 185.396 274.843C186.104 277.947 186.244 280.972 186.255 284.043C184.153 283.965 182.051 283.918 179.948 283.924C180.099 283.629 180.099 283.258 179.82 282.946C177.335 280.234 174.245 277.17 172.863 273.832C172.468 272.885 170.865 273.319 171.201 274.304C171.852 276.188 173.13 277.736 174.407 279.301C175.685 280.863 176.87 282.508 178.322 283.946C177.172 283.964 176.022 283.982 174.895 284.032C173.664 284.086 172.444 284.119 171.213 284.155C171.364 283.881 171.341 283.543 171.016 283.269C165.8 278.932 161.316 273.807 158.064 268.061C157.611 267.263 156.333 268.006 156.763 268.799C159.888 274.497 164.232 280.016 169.517 284.212C167.601 284.258 165.672 284.288 163.756 284.304C157.367 284.148 150.99 283.756 144.59 283.657C141.233 283.605 137.899 283.743 134.577 283.986C132.683 283.961 130.802 283.95 128.908 283.939L128.885 283.938C123.333 283.898 117.827 283.829 112.321 283.823C110.451 283.774 108.558 283.789 106.669 283.824C96.7559 283.169 86.3377 283.395 76.4759 283.89C74.2596 284 72.1037 284.221 69.9583 284.484C55.1598 284.032 40.2556 284.153 25.5291 285.696C22.9248 285.968 20.3357 286.063 17.7431 286.161C17.7779 283.582 17.7489 281.105 17.2018 278.487ZM58.4006 155.48C58.2751 154.147 58.296 152.489 58.6143 151.3C59.2044 149.094 61.5717 148.456 63.8205 148.233C67.5806 147.86 71.437 147.615 75.2179 147.588C83.7474 147.525 92.3942 146.917 100.906 147.469C105.05 147.738 109.115 147.959 113.262 147.912C117.478 147.866 121.73 147.727 125.935 147.901C127.886 147.981 129.814 148.221 131.766 148.245C133.973 148.273 136.191 148.109 138.375 148.498C140.815 148.934 142.232 149.782 143.022 152.051C143.358 153.047 143.533 154.008 143.626 154.985C140.582 154.97 137.574 155.096 134.577 155.315C132.683 155.291 130.802 155.279 128.908 155.269L128.885 155.267C123.333 155.227 117.827 155.158 112.321 155.153C110.451 155.104 108.558 155.12 106.669 155.154C96.7559 154.498 86.3377 154.725 76.4759 155.22C74.2608 155.331 72.1037 155.551 69.9594 155.815C66.1518 155.698 62.3395 155.625 58.5225 155.6L58.4006 155.48ZM71.0107 139.043C71.0665 136.905 70.7017 134.975 70.2046 132.948C71.4033 133.223 72.63 133.8 73.7254 134.108C75.1285 134.435 76.5387 134.606 77.9802 134.807C78.5726 134.889 79.1579 135.006 79.7411 135.132C81.0304 135.237 82.3291 135.343 83.6323 135.536C84.7231 135.698 85.8057 135.902 86.886 136.115C87.5841 136.155 88.2857 136.207 88.9966 136.326C90.6379 136.601 92.2978 136.922 93.9623 137.061C96.7315 137.294 99.5066 137.249 102.282 137.335C104.095 137.212 105.896 137.019 107.698 136.832C108.836 136.711 109.975 136.607 111.125 136.514C111.798 136.459 112.46 136.403 113.134 136.368C113.25 136.299 113.378 136.231 113.483 136.161C114.818 135.926 116.143 135.666 117.467 135.39C120.87 134.684 124.251 133.728 127.468 132.475C127.805 135.483 127.84 138.194 129.106 141.139C129.884 142.955 131.057 144.777 132.44 146.343C130.395 146.289 128.351 146.266 126.33 146.167C122.264 145.968 118.187 146.115 114.133 146.149C106.32 146.214 98.5853 145.473 90.776 145.616C83.5952 145.748 76.4109 145.765 69.2462 146.172C69.7736 143.769 70.9457 141.584 71.0107 139.043ZM90.6018 31.0529C90.524 28.7338 90.4056 26.2842 90.6321 23.9735C90.6844 23.4388 90.7297 22.8829 90.7877 22.3206V32.7694C90.682 32.1859 90.6204 31.6057 90.6018 31.0529ZM178.566 25.9171C178.728 26.699 178.903 27.483 179.1 28.2723C179.425 29.5443 180.018 30.5914 180.843 31.612C179.425 30.1575 178.566 28.2532 178.566 26.1632V25.9171ZM187.591 1.43784H187.603C186.325 1.60547 185.222 1.71051 184.025 2.24838C182.794 2.80429 181.632 3.48218 180.691 4.40625C180.529 4.5643 180.39 4.73831 180.239 4.9144C181.876 2.81384 184.56 1.43784 187.591 1.43784ZM194.909 30.9691C195.142 30.5978 195.374 30.2169 195.548 29.8191C195.955 28.8897 196.28 27.9158 196.57 26.9292C196.419 28.4293 195.815 29.8096 194.909 30.9691ZM122.043 55.6701L122.183 55.616L122.473 55.5565L122.485 55.5767L122.427 55.5905C122.299 55.6202 122.171 55.6425 122.043 55.6701ZM92.8669 50.843L92.7299 50.9236L92.7113 50.7401L92.9773 50.7178L92.8669 50.843ZM92.824 56.3162C92.9123 56.6291 93.0539 56.9421 93.2491 57.2529C92.7031 57.0662 92.5208 56.6864 92.4558 56.139C92.5615 56.226 92.6881 56.2875 92.824 56.3162ZM133.845 48.7742C133.636 49.0236 133.439 49.2729 133.229 49.519C133.427 49.2633 133.613 49.0045 133.787 48.7435L133.845 48.7742ZM149.387 35.9957C148.841 36.0455 148.295 36.1134 147.761 36.1877C148.318 36.0848 148.887 35.9861 149.445 35.8927L149.387 35.9957ZM157.553 39.4287C156.124 39.6409 154.684 39.8658 153.255 40.0918C153.929 39.9146 154.603 39.7364 155.265 39.538C156.031 39.5041 156.798 39.4648 157.553 39.4287ZM193.794 35.2881C193.701 35.3888 193.573 35.4801 193.434 35.5596C193.573 35.1979 193.713 34.782 193.887 34.3905C193.899 34.7173 193.887 35.0228 193.794 35.2881ZM146.483 38.0029C147.157 37.9074 147.819 37.8246 148.481 37.7557L148.574 37.7737C148.829 37.7833 149.073 37.7843 149.329 37.7907C148.969 37.866 148.609 37.9435 148.249 38.0135L148.074 38.0432C147.877 37.9148 147.633 37.8469 147.366 37.9138C147.075 37.9859 146.785 38.0708 146.483 38.162V38.0029ZM178.566 12.5031C178.682 11.8846 178.868 11.2693 178.972 10.655C179.147 9.5994 179.634 8.46951 179.983 7.44467C180.796 5.13086 183.073 3.33899 185.617 2.65259C186.964 2.2887 188.927 2.05634 190.24 2.53375C191.378 2.94751 192.296 3.57983 193.202 4.33414C194.224 5.19666 195.072 5.99655 195.432 7.25372C195.78 8.46951 196.199 9.56119 196.384 10.8194C196.524 11.7679 196.582 12.7131 196.617 13.6584V18.0134C196.605 18.3295 196.594 18.6446 196.594 18.9618C196.547 22.065 196.059 25.0535 195.06 28.024C194.596 29.4053 194.015 30.5702 192.958 31.6597L192.667 31.9366C189.229 31.961 185.791 32.0151 182.341 32.1106C182.027 31.7457 181.76 31.3871 181.598 31.1431C180.912 30.1034 180.39 29.1899 180.099 27.989C179.495 25.4789 179.135 23.024 178.845 20.4768C178.705 19.3427 178.868 18.2086 178.67 17.0851C178.624 16.8241 178.589 16.5589 178.566 16.2926V12.5031ZM49.5691 83.7967C47.8441 83.7033 46.1251 83.575 44.421 83.3713C46.1425 83.5103 47.8592 83.6439 49.5691 83.7967ZM31.3846 79.6984C31.0989 79.4852 31.0629 79.3409 31.1988 79.2295C31.2418 79.3833 31.3045 79.5403 31.3846 79.6984ZM94.8231 75.093C94.7964 75.5439 94.7801 75.9991 94.7766 76.4553C94.6325 78.5092 94.4862 80.5599 94.6511 82.6223C94.4804 82.7655 94.3631 82.9692 94.3631 83.2418C94.3654 83.3702 94.3607 83.4996 94.3619 83.628C94.2294 83.7967 94.0959 83.9654 93.9623 84.134C93.7916 84.255 93.6789 84.4375 93.6185 84.6327C89.1731 84.6062 84.8985 84.5457 80.8248 84.4512C77.6781 84.2571 74.5082 84.1712 71.3696 84.0715C70.5438 84.045 69.7179 84.0524 68.8909 84.0661C65.1564 83.9091 61.646 83.7245 58.3855 83.5155C58.008 83.4572 57.627 83.3999 57.2541 83.3394C55.0645 82.9861 52.8936 82.5215 50.6564 82.3888C48.2635 82.2456 45.888 82.1565 43.5045 81.9221C41.021 81.677 38.4726 81.5826 36.132 80.8293C34.7567 80.387 33.0909 79.9233 32.9341 78.6259C32.8853 78.2227 33.0109 77.8663 33.2304 77.5491C34.1318 77.2499 35.0773 77.0504 35.7057 76.9348C38.1903 76.4765 40.7481 76.3683 43.2792 76.1264C45.4223 75.9216 47.5189 75.4177 49.6644 75.2744C51.7599 75.1344 53.867 75.0559 55.9648 74.9148C60.4357 74.6167 64.917 74.3271 69.3926 74.047C72.1211 73.8762 74.8752 73.6407 77.6258 73.4476C82.9459 73.3001 88.6225 73.2057 94.6174 73.1781C94.6558 73.8232 94.7174 74.4639 94.8231 75.093ZM107.675 85.1546L107.605 85.0422C109.011 85.0252 110.416 85.004 111.822 84.9785C110.439 85.0496 109.057 85.1048 107.675 85.1546ZM93.5929 85.0815L93.6219 85.1971C93.3094 85.1568 92.9971 85.1165 92.6846 85.0751C92.9866 85.0783 93.2909 85.0793 93.5929 85.0815ZM135.227 74.3271C139.711 74.5509 144.218 75.0718 148.678 75.4325C150.665 75.5938 152.709 75.8601 154.719 75.9014C155.09 75.9089 155.474 75.9036 155.845 75.8972C158.18 76.2123 160.166 76.5433 161.758 76.8839C162.838 77.1809 163.872 77.5077 164.511 78.2789C164.662 78.455 164.755 78.6248 164.813 78.7892L164.685 78.9569C164.72 79.1203 164.708 79.2804 164.673 79.4353L164.569 79.6783L164.522 79.7387C164.453 79.83 164.36 79.9127 164.244 79.9828L164.093 80.0761C162.873 80.5737 161.607 80.9301 160.341 81.1678L160.352 81.2155C158.947 81.4754 157.297 81.729 155.45 81.973C153.557 82.1162 151.722 82.1342 149.805 82.1745C147.377 82.2255 144.973 82.5639 142.569 82.7931C137.957 83.2344 133.357 83.7521 128.699 83.8975C126.19 83.9749 123.704 84.1351 121.219 84.3176C116.549 84.4597 111.566 84.5605 106.335 84.6104C105.267 84.5329 104.226 84.4088 103.155 84.3738C102.951 84.3653 102.746 84.3611 102.548 84.3579L102.517 84.3621L102.536 84.2105C102.502 80.5312 102.501 76.8552 102.492 73.1781C112.24 73.2259 121.172 73.4444 129.048 73.7903C131.115 74.0014 133.171 74.2242 135.227 74.3271ZM112.333 134.824C108.778 135.465 105.291 135.265 101.697 135.222C97.8373 135.176 93.9727 135.433 90.1372 134.912C90.0222 134.897 89.9084 134.881 89.7946 134.866C88.8247 134.689 87.8501 134.524 86.8778 134.462C84.6894 134.149 82.5161 133.795 80.3579 133.26C77.2588 132.493 74.0842 132.045 71.0026 131.21C68.7921 130.611 66.7488 129.797 64.7219 128.909C64.1283 128.606 63.5347 128.3 62.9272 128.024C60.0012 126.689 57.2959 124.777 54.7718 122.861C52.1187 120.845 49.4414 118.672 47.548 116.011C46.5549 114.615 45.9705 113.07 45.1296 111.606C44.1387 109.88 43.1525 108.213 42.2604 106.436C40.726 103.375 38.8071 100.55 36.9486 97.651C36.2551 96.5668 35.5559 95.5016 34.8903 94.4269C33.7868 91.9762 32.8959 89.499 32.1409 86.886C31.6054 85.0316 31.1709 83.053 30.9328 81.0617C34.2131 82.6477 38.246 83.7033 42.0235 84.36C46.9695 85.2193 52.2187 85.1748 57.2727 85.4082C62.6566 85.6575 67.9825 86.0606 73.3769 86.1964C80.4927 86.3768 87.5435 86.6961 94.6152 86.7174C96.131 86.8372 97.6503 86.8967 99.1824 86.8807C101.731 86.8521 104.205 87.1703 106.739 87.2669C109.557 87.373 112.379 87.0176 115.202 87.0589C120.185 87.1332 125.04 86.3429 129.977 85.979C135.692 85.5567 141.361 84.795 147.099 84.4353C149.724 84.272 152.407 83.9866 155.021 83.7362C156.74 83.5718 158.447 83.175 160.143 82.9066L160.41 82.8716C160.921 82.7963 161.421 82.7273 161.932 82.688C162.153 82.6711 162.327 82.5915 162.455 82.4897L162.745 82.4175C162.234 87.3157 159.922 92.861 157.832 97.3094C155.915 101.392 153.534 105.457 151.013 109.258C148.353 113.265 145.542 117.486 141.604 120.558C137.295 123.924 132.021 126.162 127.526 129.314C127.294 129.476 127.143 129.674 127.073 129.882C124.971 130.729 122.81 131.344 120.615 132.112C119.232 132.598 117.839 132.967 116.445 133.442C115.237 133.854 113.924 133.992 112.844 134.663L112.693 134.757C112.577 134.779 112.449 134.802 112.333 134.824ZM55.6999 158.008L55.4049 158.002C55.5164 158.001 55.6268 158.002 55.7383 158.002L55.6999 158.008ZM55.6999 286.678L55.4037 286.672C55.5153 286.672 55.6268 286.673 55.7383 286.672L55.6999 286.678ZM199.823 293.523C199.846 292.469 199.846 291.284 199.625 290.169C199.439 287.113 197.86 284.74 192.946 284.394C191.436 284.287 189.914 284.196 188.381 284.12C188.428 281.361 188.381 278.603 187.766 275.888C186.743 271.388 186.732 267.144 186.848 262.572C186.976 257.818 187.522 253.078 187.591 248.329C187.673 243.618 187.568 238.899 187.58 234.189C187.603 215.104 187.661 196.008 187.371 176.926C190.391 176.873 193.388 176.619 196.222 175.983C197.79 175.63 199.242 174.27 199.521 172.869C199.951 170.636 200.183 168.353 199.823 166.385C199.823 165.866 199.811 165.351 199.823 164.853C199.846 163.798 199.846 162.614 199.625 161.498C199.439 158.443 197.86 156.07 192.946 155.724C187.022 155.307 180.819 155.099 174.895 155.362C171.19 155.526 167.473 155.604 163.756 155.635C157.692 155.486 151.64 155.133 145.577 155.012C145.449 153.124 145.054 151.236 143.986 149.601C142.534 147.384 139.769 146.812 137.121 146.578C136.412 146.516 135.715 146.479 135.007 146.443L134.867 146.236C132.951 144.418 131.406 141.916 130.476 139.563C129.919 138.12 129.536 136.668 129.327 135.145C129.164 134.043 129.222 132.938 128.897 131.882C131.673 130.713 134.321 129.325 136.749 127.655C139.153 126.004 141.384 124.498 143.451 122.525C143.87 122.269 144.288 122.017 144.706 121.751C145.403 120.944 146.135 120.177 146.948 119.455C148.829 116.635 151.304 114.173 153.685 111.685L153.964 111.496C154.068 111.348 154.173 111.204 154.289 111.057C154.568 110.416 154.881 109.783 155.288 109.189C156.705 107.093 157.948 104.931 159.202 102.75C160.085 100.136 161.096 97.5587 162.071 94.9711L162.083 94.9415C162.246 94.515 162.397 94.0853 162.559 93.6578L162.571 93.6005C162.757 93.1071 162.943 92.6138 163.117 92.1184L163.129 92.0388C163.64 90.7307 164.22 89.4481 164.639 88.1093C165.15 86.5105 165.637 84.9859 166.044 83.454C166.183 82.6339 166.23 81.7534 166.183 80.8803V80.8792L166.172 80.8378C166.16 80.579 166.125 80.3201 166.091 80.0645V80.0506L166.067 79.883L166.044 79.7536L166.021 79.6825L165.998 79.5298L165.986 79.5128C165.963 79.3929 165.928 79.2751 165.893 79.1584L165.835 78.9526L165.754 78.6884L165.684 78.5261L165.637 78.3914L165.614 78.3458C165.533 78.14 165.428 77.9416 165.324 77.7485L165.231 77.5819L165.219 77.5671V77.5713L165.115 77.4355L165.068 77.3485L165.045 77.3422C164.894 77.131 164.755 76.9157 164.569 76.7279C164.464 76.6239 164.406 76.5147 164.325 76.4065C163.895 76.1688 163.442 75.9704 163.001 75.8357C161.212 75.285 159.237 74.7069 157.286 74.5955C154.544 74.4406 151.815 74.4109 149.073 74.187C144.009 73.7733 138.933 73.2354 133.845 72.9988C131.197 72.8758 128.583 72.6084 125.958 72.3336C123.449 72.0695 120.952 72.0822 118.443 71.8562C113.494 71.4107 108.314 71.7024 103.341 71.7343C103.055 71.7364 102.772 71.7257 102.487 71.7204L102.486 71.6313C102.536 70.3996 102.585 69.1679 102.62 67.9352C102.685 65.5969 102.851 63.264 102.38 60.9809C102.365 60.112 102.352 59.2421 102.334 58.3733C103.852 58.3531 105.371 58.3839 106.888 58.3892C109.324 58.3987 111.729 58.1006 114.168 58.1313C118.57 58.1865 123.054 57.1521 127.189 55.8366C128.839 55.3104 130.686 54.7185 132.01 53.6257C132.428 53.2778 132.73 52.9022 133.055 52.4842C133.822 51.4997 134.565 50.6425 135.402 49.7078C136.761 48.2013 137.887 46.54 139.444 45.1958C141.407 43.5026 143.382 43.0941 145.96 42.7653C155.148 41.5972 164.197 39.8001 173.501 39.6462C175.279 39.625 177.067 39.6133 178.845 39.6281C183.224 39.6653 187.185 38.1058 191.529 38.0538C192.598 38.0411 194.038 37.8957 194.898 37.2401C195.246 36.9759 195.432 36.6577 195.537 36.3118C196.443 35.1395 196.048 33.3445 195.722 32.0502C195.653 31.7765 195.444 31.6152 195.188 31.5547C196.466 30.0631 197.232 28.1948 197.232 26.1632V24.0754C197.418 22.9731 197.569 21.8687 197.639 20.7781C197.825 17.4745 197.941 14.0615 197.465 10.778C197.407 10.3781 197.314 9.99615 197.221 9.62061C197.186 4.79352 192.888 0.874542 187.591 0.874542C182.271 0.874542 177.95 4.82425 177.95 9.67892V10.3622C177.927 10.4608 177.904 10.5627 177.881 10.6603C177.602 11.9206 177.358 12.972 177.416 14.2769C177.486 15.6741 177.695 17.0915 177.718 18.4749C177.741 19.6238 177.834 20.7494 177.95 21.8665V26.1632C177.95 28.4845 178.949 30.5925 180.564 32.1679C170.609 32.4851 160.631 33.1535 150.827 34.4669C147.947 34.8531 145.054 35.2859 142.406 36.4169C139.444 37.673 136.912 39.5497 134.379 41.3956C131.638 43.3997 128.862 45.6223 125.679 47.0407C123.797 47.8852 122.206 47.76 120.197 47.7844C118.384 47.8056 116.572 48.0369 114.772 48.2247C110.718 48.6469 106.647 48.7965 102.584 49.1042C102.47 49.1126 102.357 49.1201 102.243 49.1286C102.243 47.7939 102.243 46.4593 102.242 45.1247C102.241 43.3859 102.243 41.6471 102.239 39.9083L102.244 39.8435H103.271C105.18 39.8435 106.742 38.4167 106.742 36.6736V35.3369C107.454 34.0171 107.907 32.5732 107.942 31.1399C108.012 28.1025 108.07 24.923 107.779 21.8973C107.628 20.3919 107.315 18.8409 106.742 17.3864V15.6826C106.742 13.9395 105.18 12.5126 103.271 12.5126H102.534C101.71 12.1349 100.803 11.8899 99.8213 11.804C98.4401 11.683 97.2647 11.8856 95.9556 12.2675C95.7465 12.3291 95.5641 12.4245 95.3771 12.5126H94.2585C92.35 12.5126 90.7877 13.9395 90.7877 15.6826V17.5869C89.0152 21.4093 89.3485 26.0232 89.3717 30.0992C89.3833 32.1754 89.6935 34.4414 90.7877 36.3235V36.6736C90.7877 38.4167 92.35 39.8435 94.2585 39.8435H94.8404C94.8613 40.4865 94.8974 41.0699 94.9067 41.4954C94.9241 42.2783 94.9322 43.0602 94.9404 43.8442C94.9404 45.7963 94.9404 47.7494 94.9404 49.7014C93.6255 49.8585 92.3036 50.0409 91.0003 49.9953C90.5299 49.9783 90.4822 50.5237 90.7982 50.7242C89.9758 51.3384 90.1013 52.7961 90.322 53.6098L90.5102 53.8315C90.4579 54.7492 90.4637 55.668 90.7622 56.4976C90.8122 56.8965 90.9004 57.2858 91.0723 57.6487C91.5044 58.5579 92.2385 58.8941 93.2827 58.944C93.4686 58.9536 93.6533 58.9398 93.838 58.9419C94.1238 59.013 94.4107 59.0671 94.6999 59.1095C94.5826 62.079 94.5466 65.0527 94.571 68.0296C94.5803 69.2252 94.5478 70.4527 94.5629 71.677C92.6428 71.7183 90.7215 71.6982 88.8026 71.7947C85.9718 71.9358 83.1538 71.834 80.3242 72.044C77.2298 72.2742 74.1493 72.4981 71.0456 72.67C65.0367 73.0031 59.0477 73.4975 53.04 73.8369C50.3846 73.9876 47.9313 74.2422 45.3178 74.6125C42.4754 75.0135 39.5645 75.0718 36.7198 75.4707C36.4968 75.5015 36.2516 75.5418 35.9972 75.5853L35.9531 75.4824L35.8486 75.5164C35.2551 75.6299 34.723 75.7826 34.2247 75.9566L34.2072 75.9598C33.8924 76.0691 33.5962 76.1889 33.3163 76.3194C33.1676 76.3895 33.0353 76.469 32.8959 76.5444C32.7066 76.6473 32.523 76.7533 32.3499 76.8658C32.2384 76.94 32.128 77.0154 32.0223 77.0939L31.8202 77.2392L31.8191 77.2382C31.7087 77.3262 31.6111 77.4217 31.5101 77.514L31.4659 77.531L31.3684 77.6413L31.3579 77.6498L31.3138 77.687L31.3126 77.6901L31.2928 77.7092L31.2952 77.7124C31.107 77.9002 30.934 78.0965 30.7772 78.3012C30.6912 78.4126 30.6169 78.5293 30.5402 78.646L30.4391 78.7977L30.3265 78.9685L30.2219 79.1722L30.0988 79.377L30.1115 79.3908L29.9849 79.6465L29.8943 79.8852C29.8536 79.9902 29.813 80.0942 29.7759 80.2013L29.7747 80.179L29.7457 80.2851L29.7189 80.3689L29.712 80.3848L29.7143 80.3859L29.6504 80.6278C29.0882 82.6955 29.3089 85.1578 29.9222 87.6796C30.6075 89.9319 31.5392 92.1778 32.7217 94.184C33.0202 94.6911 33.3395 95.1886 33.6555 95.6873C36.2086 101.186 39.151 106.529 42.451 111.672C46.0217 117.236 50.0314 122.051 55.6558 126.04C58.2113 127.852 61.2685 129.161 64.1701 130.45C64.5767 130.63 64.996 130.785 65.4084 130.952C66.4364 131.425 67.4749 131.88 68.5226 132.319L68.497 132.522C68.7096 134.61 69.2173 136.572 69.1615 138.705C69.0895 141.423 67.7339 143.686 67.2774 146.281C67.1008 146.292 66.9231 146.297 66.7477 146.309C63.8205 146.518 59.9954 146.472 57.8732 148.702C56.3132 150.342 56.376 153.419 56.6792 155.584C46.2738 155.561 35.8578 155.944 25.5291 157.025C21.5123 157.445 17.5305 157.442 13.5138 157.687C10.4553 157.874 7.01237 158.493 4.39766 160.333C2.91897 161.373 2.00949 162.76 1.46819 164.327C0.161419 166.425 -0.349675 168.885 0.248537 171.264C0.0615232 172.311 0.102201 173.413 0.387949 174.406C0.254368 175.602 0.953597 176.666 1.9723 177.423C2.06058 177.529 2.17093 177.603 2.29639 177.645C2.76566 177.946 3.28138 178.191 3.81222 178.352C5.37919 178.825 7.14719 178.69 8.77456 178.787C10.4112 178.884 12.0131 178.938 13.6335 178.947C14.6707 179.851 13.7948 183.776 13.7286 184.877C13.5288 188.266 13.6613 191.692 13.6485 195.087C13.6183 202.965 13.6079 210.843 13.5998 218.721C13.5893 226.632 13.58 234.543 13.58 242.456C13.5789 250.299 13.9052 258.206 13.5497 266.041C13.3894 269.592 14.119 273.286 14.7764 276.796C15.1377 278.723 15.694 280.645 15.7858 282.603C15.8427 283.818 15.7835 285.034 15.7243 286.25C14.9879 286.281 14.2525 286.312 13.5138 286.358C10.4553 286.544 7.01237 287.163 4.39766 289.004C2.91897 290.043 2.00949 291.43 1.46819 292.996C0.161419 295.094 -0.349675 297.556 0.248537 299.934C0.0615232 300.981 0.102201 302.083 0.387949 303.075C0.254368 304.272 0.953597 305.336 1.9723 306.094C2.06058 306.2 2.17093 306.273 2.29639 306.315C2.76566 306.617 3.28138 306.862 3.81222 307.021C5.37919 307.494 7.14719 307.36 8.77456 307.457C10.8631 307.581 12.8842 307.667 14.9762 307.627C17.2866 307.582 19.5366 307.385 21.7308 306.964C26.5351 306.649 31.3266 306.07 36.1402 305.863C43.2827 305.557 50.4055 304.994 57.5631 304.994C64.8903 304.992 72.2176 304.995 79.5448 304.995C94.614 304.994 109.684 304.994 124.75 304.994C132.103 304.994 139.432 305.052 146.762 304.429C147.528 304.364 148.284 304.277 149.05 304.202C153.232 304.193 157.413 304.286 161.607 304.534C167.391 304.877 173.165 305.01 178.926 305.354C184.653 305.695 190.739 305.885 196.222 304.653C197.79 304.3 199.242 302.94 199.521 301.539C199.951 299.306 200.183 297.023 199.823 295.055C199.823 294.536 199.811 294.022 199.823 293.523Z" fill="black" fill-opacity="0.2"/>
<path d="M49.3406 105.638C46.7177 101.142 45.0881 96.2281 43.1622 91.4668C42.8091 90.5926 41.2967 91.0106 41.6393 91.8996C43.5374 96.8265 45.1496 101.88 47.7283 106.558C50.2698 111.169 53.7895 115.584 57.5565 119.424C58.5148 120.399 60.0283 118.913 59.0827 117.946C55.4365 114.218 51.9228 110.064 49.3406 105.638Z" fill="#44403C"/>
<path d="M49.3406 105.638C46.7177 101.142 45.0881 96.2281 43.1622 91.4668C42.8091 90.5926 41.2967 91.0106 41.6393 91.8996C43.5374 96.8265 45.1496 101.88 47.7283 106.558C50.2698 111.169 53.7895 115.584 57.5565 119.424C58.5148 120.399 60.0283 118.913 59.0827 117.946C55.4365 114.218 51.9228 110.064 49.3406 105.638Z" fill="black" fill-opacity="0.2"/>
<path d="M68.2263 118.162C67.534 117.747 66.7523 117.539 66.0333 117.174C65.1644 116.734 64.4431 116.098 63.7763 115.433C62.5346 114.194 61.3056 112.64 61.0396 110.941C60.9014 110.059 59.3821 110.089 59.4971 111C59.7329 112.852 60.7586 114.46 61.9992 115.91C62.5614 116.568 63.1444 117.23 63.8205 117.795C64.8008 118.613 65.9949 118.952 67.0403 119.66C68.2217 120.457 69.4657 118.906 68.2263 118.162Z" fill="#44403C"/>
<path d="M68.2263 118.162C67.534 117.747 66.7523 117.539 66.0333 117.174C65.1644 116.734 64.4431 116.098 63.7763 115.433C62.5346 114.194 61.3056 112.64 61.0396 110.941C60.9014 110.059 59.3821 110.089 59.4971 111C59.7329 112.852 60.7586 114.46 61.9992 115.91C62.5614 116.568 63.1444 117.23 63.8205 117.795C64.8008 118.613 65.9949 118.952 67.0403 119.66C68.2217 120.457 69.4657 118.906 68.2263 118.162Z" fill="black" fill-opacity="0.2"/>
<path d="M27.7005 216.252C24.9232 206.937 22.1714 197.871 20.6858 188.29C20.5626 187.497 19.2418 187.51 19.2953 188.343C19.9225 197.939 22.9531 207.583 25.9256 216.757C26.2659 217.806 28.0141 217.305 27.7005 216.252Z" fill="#44403C"/>
<path d="M27.7005 216.252C24.9232 206.937 22.1714 197.871 20.6858 188.29C20.5626 187.497 19.2418 187.51 19.2953 188.343C19.9225 197.939 22.9531 207.583 25.9256 216.757C26.2659 217.806 28.0141 217.305 27.7005 216.252Z" fill="black" fill-opacity="0.2"/>
<path d="M30.6985 212.135C31.1399 212.954 32.4909 212.196 32.0239 211.379C30.0446 207.916 28.9539 203.953 27.4531 200.3C27.1523 199.568 25.8815 199.918 26.173 200.664C27.6633 204.468 28.7436 208.506 30.6985 212.135Z" fill="#44403C"/>
<path d="M30.6985 212.135C31.1399 212.954 32.4909 212.196 32.0239 211.379C30.0446 207.916 28.9539 203.953 27.4531 200.3C27.1523 199.568 25.8815 199.918 26.173 200.664C27.6633 204.468 28.7436 208.506 30.6985 212.135Z" fill="black" fill-opacity="0.2"/>
<path d="M166.997 201.603C167.438 202.506 169.064 202.064 168.623 201.14C165.034 193.592 160.283 186.367 153.975 180.45C153.36 179.874 152.477 180.765 153.046 181.347C158.993 187.373 163.407 194.211 166.997 201.603Z" fill="#44403C"/>
<path d="M166.997 201.603C167.438 202.506 169.064 202.064 168.623 201.14C165.034 193.592 160.283 186.367 153.975 180.45C153.36 179.874 152.477 180.765 153.046 181.347C158.993 187.373 163.407 194.211 166.997 201.603Z" fill="black" fill-opacity="0.2"/>
<path d="M27.9472 232.594C25.027 226.646 21.8397 220.296 20.7455 213.805C20.6003 212.939 19.0937 212.98 19.2343 213.863C20.2948 220.505 23.4079 226.947 26.3281 233.055C26.7613 233.961 28.3921 233.501 27.9472 232.594Z" fill="#44403C"/>
<path d="M27.9472 232.594C25.027 226.646 21.8397 220.296 20.7455 213.805C20.6003 212.939 19.0937 212.98 19.2343 213.863C20.2948 220.505 23.4079 226.947 26.3281 233.055C26.7613 233.961 28.3921 233.501 27.9472 232.594Z" fill="black" fill-opacity="0.2"/>
</svg>
