<svg width="187" height="428" viewBox="0 0 187 428" fill="none" xmlns="http://www.w3.org/2000/svg">
<path d="M141.444 137.135C141.577 133.618 141.067 130.057 139.705 126.418C136.984 119.145 128.745 115.562 122.216 117.399C121.881 117.143 121.549 116.883 121.212 116.63C113.799 109.863 102.871 106.241 93.6346 109.298C87.7732 111.238 84.8639 115.005 81.6292 119.339C78.5866 120.634 75.6252 122.09 72.8132 123.786C63.0719 124.554 54.2079 128.095 48.8399 136.118C44.6452 139.735 41.0012 144.067 38.0999 149.049C32.6239 158.451 39.8439 168.143 49.6132 169.111C64.1425 170.55 78.6146 170.415 93.1279 168.881C107.167 167.397 121.111 165.395 135.237 166.947C141.159 167.598 146.431 162.314 148.095 157.158C150.727 149.005 147.279 141.905 141.444 137.135Z" fill="#F87171"/>
<path d="M101.417 292.238L101.509 292.162L101.605 292.171L101.417 292.238ZM94.4145 305.268C93.2278 308.359 91.2225 310.018 88.5732 310.615C87.8652 310.775 87.1185 310.874 86.3185 310.886C85.8238 311.003 85.3065 311.042 84.7838 311.052C84.9412 310.991 85.0905 310.928 85.2238 310.863L85.2345 310.858C85.0185 310.846 84.8025 310.833 84.5812 310.811C84.4585 310.799 84.3679 310.742 84.3012 310.668L84.2838 310.655L84.1745 310.382C84.1532 310.148 84.2838 309.914 84.5812 309.943C84.7598 309.962 84.9332 309.951 85.1105 309.963L85.0679 309.983C85.4732 310.014 85.8679 310.01 86.2652 310.008L86.6145 310.022L86.6238 310.017L86.7265 310.018C86.9705 309.862 87.1958 309.682 87.4278 309.508L87.7039 309.308C87.8839 309.167 88.0505 309.015 88.2212 308.862L88.5598 308.542C89.3772 307.74 90.0692 306.818 90.5105 305.722C90.8878 304.785 91.0852 303.838 91.3932 302.913C91.4998 302.638 91.6078 302.364 91.7225 302.092C91.8198 301.875 91.9065 301.657 92.0345 301.443C92.9145 299.969 93.9505 298.632 95.1639 297.419C96.0319 296.551 97.0078 295.878 97.9918 295.167C98.3305 294.779 98.6932 294.42 99.0732 294.103C99.3625 293.863 99.6652 293.653 99.9758 293.467C100.613 293.09 101.292 292.838 102.008 292.785H102.024C102.239 292.769 102.456 292.77 102.677 292.791C102.86 292.807 103.044 292.827 103.229 292.871L103.301 292.905C103.74 293.093 103.513 293.83 103 293.708C102.797 293.66 102.599 293.639 102.401 293.633L102.195 293.822L102.185 293.806L102.109 293.738L102.252 293.635L102.032 293.668L102.003 293.642C101.541 293.686 101.101 293.842 100.679 294.064L100.552 294.134C100.349 294.249 100.153 294.376 99.9612 294.52L99.8478 294.603L99.7852 294.648L99.7825 294.659C99.0198 295.275 98.3492 296.09 97.7852 296.914L97.7679 296.929L97.6105 297.178C97.5025 297.341 97.4012 297.501 97.3025 297.661C97.2239 297.79 97.1492 297.913 97.0758 298.038L97.0065 298.154L97.0172 298.143C96.9038 298.342 96.7865 298.543 96.6905 298.724C95.5972 300.778 95.2425 303.11 94.4145 305.268ZM91.8785 311.436C92.2172 311.212 92.5572 310.99 92.8985 310.77C92.8172 310.898 92.7399 311.03 92.6679 311.162L92.4679 311.301C92.2692 311.341 92.0732 311.384 91.8785 311.436ZM97.1425 294.707L96.8705 294.905L96.9838 294.757L97.1425 294.707ZM91.5198 298.996C91.7612 298.755 92.0025 298.511 92.2385 298.264L92.2518 298.315C92.0052 298.687 91.7692 299.067 91.5425 299.454C91.5385 299.302 91.5292 299.15 91.5198 298.996ZM88.0718 301.591L88.1212 301.292C88.2558 301.086 88.3959 300.881 88.5305 300.673L88.5905 300.595L88.6078 300.63C88.4292 300.95 88.2505 301.27 88.0718 301.591ZM103.112 303.402C103.085 303.524 103.045 303.651 103.032 303.773L102.803 303.991C102.911 303.799 103.016 303.603 103.112 303.402ZM107.193 302.138C106.96 302.583 106.703 302.987 106.425 303.268L106.438 303.157L106.455 303.13C106.727 302.812 106.976 302.483 107.193 302.138ZM108.888 294.135L108.832 294.067L108.921 294.134L108.888 294.135ZM111.333 295.996C111.305 295.842 111.293 295.688 111.26 295.531C111.224 295.356 111.108 295.269 110.977 295.238C110.84 294.995 110.685 294.756 110.517 294.524C109.757 293.098 108.525 291.826 106.969 291.518C106.789 291.373 106.611 291.227 106.449 291.07C106.149 290.776 105.977 290.45 105.632 290.191L105.509 290.134C104.965 289.306 104.306 288.719 103.472 288.09C102.536 287.385 101.493 287.465 100.44 287.295L100.125 287.236C99.9878 287.206 99.8505 287.174 99.7145 287.13C97.1985 286.311 94.5385 287.223 92.1758 288.229C90.8865 288.778 89.3532 289.282 88.2025 290.092C87.7145 290.435 87.2305 290.855 86.7772 291.245C86.3892 291.579 86.1119 291.975 85.8305 292.377C83.2079 294.77 81.3718 297.869 80.0878 301.167C79.4038 302.926 79.0172 304.886 78.7198 306.748C78.5478 307.827 78.5332 309.401 78.9798 310.622C79.0478 312.409 79.7465 313.591 80.8198 314.345L81.0118 314.567L81.1412 314.719L81.1692 314.735C81.6319 315.207 82.1785 315.611 82.7865 315.961C83.7532 316.355 84.7879 316.599 85.7999 316.699C86.6719 316.786 87.5398 316.774 88.4065 316.719C93.3452 318.026 99.7558 314.546 103.376 311.875C107.36 308.936 113.196 302.728 111.595 297.382C111.587 296.918 111.512 296.459 111.333 295.996Z" fill="#4D403D"/>
<path d="M30.6104 205.622C30.5638 204.102 28.1971 204.096 28.2451 205.622C28.5424 215.277 29.6998 224.836 31.7078 234.285C32.0238 235.773 34.3051 235.144 33.9891 233.656C32.0251 224.41 30.9011 215.068 30.6104 205.622Z" fill="#4D403D"/>
<path d="M37.9478 222.957L38.7212 232.421C38.8438 233.929 41.2105 233.941 41.0865 232.421L40.3132 222.957C40.1905 221.451 37.8238 221.436 37.9478 222.957Z" fill="#4D403D"/>
<path d="M141.064 380.702C141.54 386.817 140.785 392.729 138.783 398.525C138.285 399.967 140.571 400.586 141.065 399.154C143.136 393.155 143.923 387.029 143.431 380.702C143.312 379.194 140.947 379.182 141.064 380.702Z" fill="#4D403D"/>
<path d="M149.818 369.723C150.726 381.127 149.556 392.414 146.306 403.386C145.873 404.85 148.156 405.474 148.588 404.015C151.893 392.853 153.109 381.329 152.185 369.723C152.064 368.215 149.697 368.202 149.818 369.723Z" fill="#4D403D"/>
<path d="M183.446 173.273C182.2 175.844 179.865 177.604 177.144 178.904C177.148 178.685 177.152 178.468 177.157 178.251C175.993 179.257 174.538 179.815 173.028 180.047C173.044 180.192 173.066 180.337 173.082 180.484C170.489 181.311 167.852 181.899 165.65 182.485C151.373 186.288 136.63 187.988 121.89 188.553C92.5091 189.679 62.9678 187.075 33.6425 185.533C27.6451 185.219 21.0798 185.517 14.9972 184.523C14.9838 184.373 14.9705 184.221 14.9571 184.072C14.1251 183.993 13.3051 183.755 12.5745 183.376L12.4851 183.324V183.327C12.5131 183.568 12.5398 183.808 12.5665 184.048C12.0785 183.935 11.5931 183.813 11.1145 183.677C6.74247 182.443 3.30914 179.619 2.54647 174.937C1.96247 171.352 3.16783 162.557 8.23583 162.379C8.25583 163.313 8.28915 164.248 8.35448 165.183C8.40515 165.921 9.06247 166.299 9.7118 166.317C9.8638 166.5 10.0852 166.652 10.3972 166.741C11.3838 167.023 12.3705 167.264 13.3598 167.481C13.4838 167.776 13.7505 168.019 14.2238 168.099C46.1465 173.452 78.7292 175.38 111.161 173.667C127.281 172.816 143.346 171.084 159.228 168.48C161.848 168.051 164.526 167.668 167.164 167.181C167.349 167.291 167.573 167.367 167.846 167.379C168.574 167.411 169.276 167.356 169.949 167.241C170.748 166.604 171.606 166.053 172.524 165.593C173.398 165.155 174.305 164.921 175.19 164.885C175.298 164.76 175.389 164.613 175.433 164.416C175.465 164.28 175.496 164.144 175.528 164.008C176.401 162.895 176.962 161.583 177.118 160.188C179.21 161.032 181.236 162.003 182.568 163.889C184.469 166.58 184.884 170.305 183.446 173.273ZM172.273 223.108C171.102 236.251 169.925 249.393 168.75 262.537C167.624 273.169 166.452 283.797 165.329 294.425C163.274 313.889 161.324 333.365 159.478 352.851C158.544 362.723 157.636 372.599 156.754 382.476C156.338 387.155 155.949 391.836 155.522 396.515C155.254 399.445 154.841 402.135 153.772 404.497C152.808 406.213 151.576 407.819 149.961 409.269C149.701 409.467 149.432 409.66 149.146 409.847C142.165 414.427 133.304 417.103 125.316 419.319C116.789 421.684 108.025 423.169 99.1932 423.741C87.2678 424.513 74.5718 423.883 62.5838 421.127C62.4665 421.051 62.3251 420.993 62.1531 420.964C61.8318 420.911 61.5145 420.843 61.1945 420.784C56.3212 419.591 51.5705 418.049 47.0545 416.085L46.8758 416.004C43.0265 413.687 39.3038 411.097 35.6345 408.597C32.8465 405.824 30.6292 402.503 29.2358 398.504C28.8585 397.419 28.5185 396.316 28.2105 395.199C28.1345 394.252 28.0651 393.311 27.9798 392.392C26.3945 375.332 24.8105 358.272 23.2251 341.213C22.3891 332.217 21.4932 323.211 20.9372 314.191C20.9332 314.069 20.9291 313.948 20.9251 313.827C20.7305 307.113 20.5785 300.4 20.4358 293.687C20.4625 292.411 20.4985 291.133 20.5531 289.856C20.8931 281.815 21.6171 273.792 21.4918 265.736C21.3571 257.161 20.5118 248.615 19.7785 240.076C19.2225 233.623 18.6665 227.167 18.1118 220.712C17.4411 209.464 16.5211 198.225 15.2545 186.997C20.5705 187.747 26.2318 187.511 31.2985 187.776C41.1958 188.297 51.0918 188.817 60.9892 189.337C97.8625 191.275 136.092 194.232 171.909 183.151C172.369 183.008 172.838 182.859 173.309 182.705C174.573 196.151 173.47 209.673 172.273 223.108ZM144.04 415.225C144.94 414.845 145.838 414.444 146.721 414.012L146.748 414.305C145.869 414.655 144.962 414.956 144.04 415.225ZM11.7265 159.783C11.7145 159.561 11.7118 159.331 11.7265 159.089C11.7452 158.815 11.8172 158.577 11.9265 158.375L11.9491 158.211C11.8318 152.784 12.5891 147.399 14.1398 142.199C20.9278 122.773 37.7998 106.699 59.9091 99.3227C67.0745 96.932 74.4918 95.5626 81.9865 95.0652C80.0825 96.0986 78.5478 97.4253 78.7905 99.18C79.1118 101.513 81.5598 102.084 83.8678 102.244C83.6812 106.509 83.4451 110.772 83.1465 115.032C67.3771 120.736 44.5878 119.003 40.5558 138.061C39.7478 138.431 38.9558 138.835 38.1998 139.311C34.3358 141.744 31.6571 145.623 31.0771 150.193C30.8345 152.105 30.7518 155.837 32.4385 157.168C29.1998 159.433 25.7438 162.557 25.2505 166.504C24.6265 166.368 24.0065 166.212 23.3932 166.021L23.2225 166.007C21.4251 165.472 19.6292 164.937 17.8318 164.403C17.6905 164.376 17.5491 164.34 17.4065 164.319C16.9771 164.647 16.3678 164.756 15.6811 164.427C15.3025 164.307 14.9158 164.248 14.5238 164.252C13.7798 164.235 13.3171 163.868 13.1078 163.389C12.3865 163.3 11.7265 162.789 11.7265 161.851V159.783ZM82.2292 97.912C82.3332 97.552 83.1052 97.0893 84.0918 96.624C84.0558 97.668 84.0185 98.7133 83.9771 99.7573C82.7931 99.4866 81.9305 98.956 82.2292 97.912ZM43.2825 137.001C47.9998 121.547 68.5571 122.084 82.9731 117.539C82.6838 121.316 82.3398 125.089 81.9278 128.86C77.3212 130.2 72.6665 131.391 67.9451 132.389C62.2825 133.588 56.5798 134.403 50.8678 135.307C48.3332 135.709 45.7491 136.2 43.2825 137.001ZM87.6585 129.679C92.6412 128.12 97.5291 126.144 102.444 124.253C103.006 124.444 103.697 124.256 103.926 123.688C108.917 121.795 113.946 120.04 119.142 118.957C124.826 117.771 131.824 116.933 136.414 121.3C141.09 125.747 141.626 132.288 140.405 138.28C137.676 137.212 134.862 136.468 132.332 136.015C119.034 133.631 105.613 136.968 92.7718 140.249C78.7171 143.843 64.6891 146.945 50.5171 150.004C45.1025 151.173 39.6745 152.776 34.8798 155.607C34.6251 155.383 34.2785 155.253 33.8625 155.327C32.8505 155.505 33.5411 149.663 33.5891 149.445C33.9225 147.956 34.5372 146.464 35.3705 145.185C36.8838 142.861 39.2132 141.261 41.6998 140.145L41.8238 140.096C42.0318 140.077 42.2278 140.004 42.3851 139.868C46.3518 138.24 50.6865 137.704 54.9012 137.089C65.9985 135.473 76.9532 133.027 87.6585 129.679ZM84.9065 122.632C85.1798 122.636 85.4705 122.547 85.7465 122.321C90.7251 118.225 95.8105 114.271 101.002 110.451C101.186 114.379 101.382 118.305 101.588 122.227C95.8958 124.377 90.1692 126.371 84.3692 128.129C84.5638 126.297 84.7425 124.465 84.9065 122.632ZM86.2372 102.324C86.5038 102.329 86.7571 102.336 86.9798 102.349C90.1638 102.527 93.3518 102.644 96.5398 102.696C96.6811 102.699 96.8305 102.707 96.9758 102.713C93.0785 105.973 89.3051 109.373 85.6571 112.913C85.8865 109.385 86.0812 105.856 86.2372 102.324ZM86.8985 81.0533C87.0305 81.0266 87.1665 80.9999 87.3051 80.9199C91.7198 78.7333 96.0345 76.3733 100.264 73.84C100.194 77.4 100.173 80.9733 100.202 84.5453C99.9892 84.572 99.7731 84.6532 99.5718 84.8159C96.5531 87.2679 93.3865 89.4907 90.0811 91.5C88.9305 91.5013 87.7798 91.5133 86.6305 91.556C86.7358 88.0547 86.8198 84.5533 86.8985 81.0533ZM100.526 99.28C100.097 99.7826 99.5145 100.175 98.7491 100.355C97.8905 100.557 96.6891 100.333 95.8051 100.316C93.5598 100.272 91.3171 100.193 89.0745 100.087C90.0278 99.6106 90.9105 98.9747 91.7771 98.2013C92.6705 97.4053 93.5172 96.672 94.3598 95.9853C94.8132 95.7026 95.2638 95.4159 95.7091 95.1253C97.2758 95.2359 98.8411 95.372 100.405 95.5507C100.442 96.7947 100.482 98.0373 100.526 99.28ZM87.2731 64.1866C92.1865 61.1733 96.8545 57.8266 101.289 54.1466C100.93 58.1866 100.665 62.2399 100.492 66.2932L100.3 66.3866C96.0825 69.2933 91.1411 70.72 87.0545 73.9067C87.1225 70.6667 87.1958 67.4266 87.2731 64.1866ZM87.8785 45.8266C92.7865 44.4266 97.6945 43.04 102.602 41.64L102.752 41.5733C102.437 43.7467 102.149 45.9066 101.9 48.08C101.76 48.1066 101.617 48.1599 101.472 48.2533C96.7998 51.3199 92.1292 54.3866 87.4571 57.4533C87.5705 53.5733 87.7051 49.7066 87.8785 45.8266ZM88.5411 34C88.7385 31.1733 88.4505 27.4666 89.4465 24.6932C90.4291 24.8399 91.4118 24.9867 92.3932 25.1333C93.2638 25.4933 94.1398 25.76 95.0198 25.9733C100.652 27.72 106.376 29.0133 112.2 29.9199L112.248 29.9333C110.945 30.44 109.649 30.9599 108.384 31.5199C106.982 32.1466 105.63 32.68 104.669 33.9067C104.506 33.88 104.328 33.9066 104.132 33.9866C98.8065 36.0799 93.4798 38.1866 88.1545 40.28C88.2705 38.1866 88.3945 36.0933 88.5411 34ZM98.3025 18.1466C101.13 16.8666 104.046 15.7867 106.99 14.8C107.082 14.8933 107.196 14.9733 107.345 15.0533C111.396 16.9199 115.474 18.7333 119.577 20.48C122.37 21.84 125.234 23.0666 128.166 24.1599C125.55 25.0532 122.946 25.9867 120.348 26.9333H120.337C114.405 24.4533 108.224 23.1467 101.934 21.9067C99.9745 21.52 96.9492 20.3332 94.1945 20.0266C95.5878 19.3066 97.0612 18.7066 98.3025 18.1466ZM125.254 9.27996C125.284 9.62663 125.452 9.95996 125.806 10.1466C129.444 12.1333 133.108 14.08 136.809 15.9466C138.266 16.68 139.705 17.4932 141.192 18.1599C141.809 18.5599 142.425 18.9467 143.042 19.3333C140.784 20.0267 138.532 20.7333 136.284 21.4533C136.181 21.3866 136.065 21.3466 135.925 21.3199C131.422 20.5199 127.881 17.7733 123.758 16.0133C121.661 15.12 119.424 14.6667 117.276 14C116.241 13.4933 115.202 13.0133 114.164 12.5199C117.844 11.3999 121.544 10.32 125.254 9.27996ZM147.428 3.17332C147.473 6.26665 147.842 12.4267 149.257 16.1333C143.218 13.0933 137.156 10.12 130.822 7.73334C136.361 6.21334 141.906 4.71998 147.428 3.17332ZM103.932 106.705C107.744 111.824 116.045 110.915 119.426 116.221C113.909 117.383 108.43 119.601 103.908 121.349C103.625 115.931 103.349 110.507 103.118 105.079C103.385 105.691 103.638 106.311 103.932 106.705ZM27.8332 165.645C29.3078 160.785 36.3265 157.211 40.3798 155.497C45.4678 153.348 50.9145 152.277 56.3211 151.273C67.3665 149.223 78.1998 146.488 89.0652 143.655C100.024 140.796 111.254 137.587 122.664 137.561C131.756 137.541 152.149 140.832 151.101 153.559C149.67 153.131 148.27 152.84 147.029 152.693C134.749 151.241 121.638 153.479 109.61 155.867C95.6531 158.637 81.8425 161.299 67.6625 162.704C54.4145 164.016 41.1158 164.775 27.8332 165.645ZM95.3958 161.176C107.092 158.937 118.629 156.144 130.536 155.213C135.56 154.821 140.722 154.477 145.754 154.929C150.75 155.377 162.316 158.648 159.034 165.845C156.493 166.04 154.001 166.155 151.785 166.369C145.401 166.991 139.004 167.491 132.6 167.925C118.9 168.856 105.144 169.763 91.4091 170.128C78.4345 170.472 65.4078 169.735 52.4598 169.039C46.1612 168.7 39.8718 168.26 33.6078 167.639C54.2811 166.323 75.0265 165.075 95.3958 161.176ZM104.025 96.0186C105.393 96.2213 106.758 96.4386 108.12 96.6919C116.616 98.2666 124.901 100.665 132.95 103.537C135.689 104.515 138.477 105.501 141.19 106.613C154.548 114.381 165.217 125.499 170.23 139.488C172.165 144.881 173.198 150.523 173.138 156.189C173.125 157.432 173.2 158.807 172.933 160.029C172.793 160.667 172.374 162.009 171.845 162.968C170.485 163.695 168.977 164.241 167.372 164.649C165.849 164.936 164.324 165.215 162.796 165.48C162.409 165.528 162.02 165.571 161.632 165.612C163.205 160.217 158.512 156.407 153.374 154.351C154.125 147.045 148.893 142.187 142.61 139.228C144.374 130.956 142.794 120.964 134.302 117.036C130.545 115.299 126.256 115.135 121.897 115.776L121.82 115.585C120.302 112.699 117.661 111.247 114.722 110.071C110.485 108.376 107.157 107.448 104.734 103.364C104.35 102.717 103.921 102.013 103.425 101.404C104.797 99.9853 104.677 97.9173 104.025 96.0186ZM152.609 7.75991C152.998 8.89324 154.24 13.6666 153.106 14.6932C151.053 16.5332 150.477 11.2667 150.284 10.1733C149.86 7.81332 149.729 5.46663 149.768 3.07996C151.009 4.43996 151.994 5.97324 152.609 7.75991ZM184.612 162.695C182.698 159.879 179.861 158.832 176.934 157.621L176.889 157.413C176.797 157.092 176.553 156.871 176.257 156.731C176.556 143.603 171.138 131.352 162.568 120.367C157.493 113.859 152.406 108.825 144.269 105.344C144.105 105.273 143.937 105.207 143.773 105.137C131.75 98.0626 117.416 93.6667 102.682 92.1173C102.398 80.04 102.51 67.96 103.494 55.9067C103.969 50.1067 104.097 43.6533 105.672 38.04C107.201 32.6 116.737 30.7466 121.649 28.9466C131.66 25.2933 141.812 22.04 152.066 19.1466C152.549 19.16 153.076 19.0132 153.658 18.6266C155.941 17.1466 155.869 12.6133 155.596 10.3333C155.124 6.41334 153.264 2.9866 150.366 0.319932C149.784 -0.213401 149.056 -0.0133491 148.644 0.439984L148.305 0.479958C133.926 4.51996 119.229 8.02668 105.116 12.9333C100.057 14.6933 92.7732 16.8399 88.8985 20.7599C87.4772 22.1999 87.0745 23.8666 86.8385 25.8266C86.3905 29.5466 86.2065 33.32 85.9731 37.0667C84.8385 55.24 84.7985 73.4667 84.2545 91.6774C71.3225 92.4307 58.6905 95.4386 47.6545 100.849C30.4905 109.263 17.3398 123.772 11.9332 140.345C9.62116 146.693 8.36914 153.34 8.24514 160.051C3.48247 160.3 0.802494 165.841 0.170494 170.287C-0.756173 176.805 2.11449 182.699 8.29715 185.217C9.73715 185.805 11.2518 186.237 12.8065 186.564L15.8118 221.485C17.2225 245.343 17.5905 269.243 18.0771 293.165C17.8998 300.357 18.1385 307.543 18.5878 314.72C19.1078 332.307 19.9892 349.889 21.8278 367.392C22.8025 376.669 23.6465 386.243 25.8558 395.323L25.8771 395.404C25.9491 396.069 26.0172 396.736 26.0932 397.401C26.5052 401.063 27.4812 404.075 29.0945 406.677C29.1452 406.935 29.2905 407.179 29.5491 407.371C31.2425 409.845 33.5545 411.945 36.5838 413.876C40.7611 416.536 45.2398 418.648 49.8945 420.271C54.8598 422.872 60.0678 424.901 65.7505 425.736C78.9105 427.668 93.1798 428.591 106.404 426.976C113.226 426.143 119.81 424.249 126.421 422.431C133.142 420.581 140.01 419.001 146.638 416.837C155.94 413.8 158.236 405.547 158.961 396.824C160.382 390.217 160.35 382.993 160.938 376.411C162.406 359.981 163.874 343.553 165.342 327.125L170.572 268.623C173.7 239.58 176.482 210.496 177.097 181.304C181.644 179.377 185.781 176.467 186.553 171.213C186.986 168.273 186.282 165.157 184.612 162.695Z" fill="#4D403D"/>
<path d="M82.7479 261.708C82.7479 262.534 82.5305 263.48 82.0999 264.52C81.7065 265.475 81.2145 266.408 80.6372 267.3C80.3945 266.922 80.1892 266.424 80.0252 265.819C79.8172 265.052 79.7119 264.36 79.7119 263.764C79.7119 263.099 79.8279 262.486 80.0559 261.94C80.2839 261.396 80.5759 260.956 80.9265 260.63C81.2545 260.324 81.5679 260.17 81.8545 260.17C82.0985 260.17 82.7479 260.17 82.7479 261.708ZM77.3585 270.874C76.7039 271.376 76.1559 271.631 75.7279 271.631C75.2399 271.631 74.5919 271.463 74.5919 270.012C74.5919 269.288 74.7519 268.416 75.0652 267.422C75.3812 266.419 75.7692 265.499 76.2159 264.684C76.5305 264.108 76.7785 263.762 76.9665 263.554C77.1225 265.894 77.8959 267.732 79.2705 269.024C78.6345 269.764 77.9919 270.386 77.3585 270.874ZM100.799 247.11L100.873 247.122L100.885 247.198C100.885 247.5 100.727 248.15 99.9679 249.523C99.3452 250.648 98.4372 251.946 97.2705 253.378C96.3132 254.551 95.2345 255.732 94.0545 256.902C95.2585 254.131 96.4518 251.828 97.6092 250.046C98.8745 248.098 99.9479 247.11 100.799 247.11ZM87.6985 281.184C87.4412 281.184 87.2879 280.623 87.2879 279.684C87.2879 278.338 87.5772 276.459 88.1479 274.096C88.6865 271.868 89.4052 269.382 90.2879 266.699C90.5745 267.267 90.7865 267.786 90.9185 268.242C91.0865 268.824 91.1718 269.487 91.1718 270.214C91.1718 271.478 90.9639 273.019 90.5532 274.796C90.1399 276.575 89.6438 278.122 89.0758 279.387C88.3758 280.95 87.9132 281.184 87.6985 281.184ZM114.099 247.11L114.173 247.122L114.187 247.198C114.187 247.5 114.028 248.15 113.268 249.523C112.645 250.648 111.739 251.946 110.571 253.378C109.615 254.551 108.536 255.732 107.355 256.902C108.56 254.131 109.753 251.828 110.911 250.046C112.175 248.098 113.248 247.11 114.099 247.11ZM101 281.184C100.743 281.184 100.589 280.623 100.589 279.684C100.589 278.338 100.879 276.459 101.449 274.096C101.987 271.868 102.707 269.382 103.588 266.699C103.875 267.267 104.088 267.786 104.22 268.242C104.388 268.824 104.472 269.487 104.472 270.214C104.472 271.478 104.264 273.019 103.853 274.796C103.441 276.575 102.944 278.122 102.377 279.387C101.676 280.95 101.213 281.184 101 281.184ZM120.572 261.168C121.412 260.506 122.191 260.17 122.885 260.17C123.212 260.17 123.285 260.243 123.293 260.252C123.324 260.287 123.376 260.38 123.376 260.62C123.376 261.8 122.62 262.979 121.129 264.123C119.732 265.194 118.204 266.063 116.584 266.708C116.949 265.74 117.465 264.776 118.12 263.838C118.881 262.748 119.705 261.851 120.572 261.168ZM136.147 260.692C136.451 260.692 136.548 260.766 136.575 260.796C136.605 260.831 136.677 260.951 136.677 261.304C136.677 262.499 136.031 263.536 134.7 264.479C133.457 265.36 132.011 266.115 130.396 266.723C130.729 265.784 131.189 264.876 131.767 264.018C132.436 263.019 133.177 262.204 133.972 261.592C134.747 260.996 135.477 260.692 136.147 260.692ZM142.688 266.362L142.767 266.191L141.669 265.34L141.54 265.592C140.537 267.543 139.168 269.226 137.471 270.595C135.787 271.951 134.121 272.639 132.519 272.639C131.453 272.639 130.719 272.343 130.337 271.756C129.935 271.142 129.731 270.392 129.731 269.527C129.731 269.314 129.749 269.06 129.784 268.772C131.399 268.574 132.947 268.155 134.387 267.526C135.889 266.871 137.116 266.003 138.036 264.946C138.971 263.872 139.445 262.662 139.445 261.346C139.445 259.424 138.36 258.41 136.308 258.41C134.871 258.41 133.419 258.876 131.988 259.796C130.571 260.712 129.341 261.907 128.336 263.348C127.339 264.775 126.667 266.238 126.336 267.694C125.287 269.1 124.084 270.254 122.756 271.126C121.432 271.996 120.107 272.438 118.815 272.438C116.857 272.438 115.905 271.447 115.905 269.407C115.905 269.131 115.923 268.864 115.956 268.612C117.549 268.411 119.132 267.964 120.663 267.284C122.259 266.575 123.58 265.647 124.591 264.526C125.621 263.384 126.144 262.126 126.144 260.782C126.144 258.887 125.072 257.887 123.047 257.887C121.363 257.887 119.661 258.526 117.988 259.788C116.333 261.035 114.956 262.591 113.895 264.411C113.267 265.49 112.845 266.531 112.585 267.535C112.267 267.934 111.957 268.282 111.664 268.547C110.991 269.158 110.259 269.455 109.423 269.455C108.705 269.455 108.163 269.242 107.763 268.804C107.347 268.351 107.032 267.746 106.828 267.007C106.616 266.242 106.373 265.124 106.108 263.683C106.048 263.355 105.921 263.042 105.731 262.748C105.576 262.514 105.388 262.328 105.168 262.198L105.704 260.855C107.519 259.647 109.288 258.138 110.964 256.368C112.663 254.574 114.064 252.708 115.129 250.82C116.207 248.912 116.752 247.179 116.752 245.667C116.752 243.774 115.704 243.376 114.824 243.376C112.453 243.376 109.943 245.735 107.144 250.587C104.501 255.171 102.175 260.442 100.213 266.24C99.5559 267.247 98.9332 268.031 98.3639 268.547C97.6905 269.158 96.9572 269.455 96.1225 269.455C95.4052 269.455 94.8612 269.242 94.4612 268.804C94.0452 268.351 93.7305 267.746 93.5279 267.007C93.3159 266.242 93.0732 265.124 92.8065 263.683C92.7465 263.355 92.6199 263.042 92.4292 262.748C92.2759 262.514 92.0865 262.328 91.8665 262.198L92.4039 260.855C94.2185 259.647 95.9865 258.138 97.6639 256.368C99.3625 254.574 100.764 252.708 101.829 250.82C102.905 248.912 103.451 247.179 103.451 245.667C103.451 243.774 102.403 243.376 101.524 243.376C99.1532 243.376 96.6412 245.735 93.8425 250.587C91.1425 255.27 88.7679 260.663 86.7812 266.611C86.4105 267.127 85.9705 267.55 85.4452 267.854C84.6265 268.327 83.8532 268.568 83.1438 268.568C82.8585 268.568 82.5959 268.527 82.3639 268.451C83.0799 267.314 83.6785 266.162 84.1479 265.022C84.6532 263.791 84.9105 262.676 84.9105 261.708C84.9105 260.687 84.6345 259.844 84.0892 259.198C83.5332 258.542 82.6732 258.21 81.5319 258.21C80.1772 258.21 79.1079 258.642 78.3532 259.498C77.6705 260.27 77.2265 261.24 77.0319 262.39C76.6119 262.235 76.2625 262.159 75.9692 262.159C75.1265 262.159 74.2959 262.59 73.4999 263.443C72.7305 264.267 72.0972 265.31 71.6199 266.542C71.5279 266.779 71.4505 267.016 71.3758 267.251C70.8345 268.102 70.2172 268.922 69.5092 269.691C68.3198 270.986 66.9985 272.034 65.5785 272.808C64.1705 273.578 62.7719 273.968 61.4199 273.968C59.5252 273.968 58.1519 273.279 57.2225 271.858C56.2852 270.426 55.8105 268.638 55.8105 266.546C55.8105 263.74 56.5158 260.654 57.9065 257.366C59.3012 254.074 61.0625 251.262 63.1438 249.01C65.1972 246.787 67.1519 245.659 68.9559 245.659C70.0332 245.659 70.5345 246.084 70.5345 246.996C70.5345 247.915 70.0652 249.148 69.1385 250.663C68.1972 252.2 67.2092 253.546 66.2025 254.659L66.0932 254.78L66.1679 254.924C66.6399 255.838 67.2652 256.299 68.0292 256.299C68.8825 256.299 69.7239 255.775 70.5319 254.739C71.3105 253.742 71.9599 252.52 72.4625 251.106C72.9665 249.69 73.2225 248.415 73.2225 247.319C73.2225 245.986 72.8052 244.987 71.9812 244.351C71.1772 243.731 70.1052 243.416 68.7959 243.416C66.0625 243.416 63.3132 244.58 60.6212 246.879C57.9479 249.162 55.7252 252.102 54.0132 255.62C52.2985 259.142 51.4292 262.695 51.4292 266.183C51.4292 267.952 51.7545 269.624 52.3945 271.151C53.0385 272.687 54.0492 273.956 55.3972 274.919C56.7479 275.884 58.4492 276.372 60.4519 276.372C63.2079 276.372 65.7732 275.427 68.0758 273.56C69.1038 272.727 70.0505 271.763 70.9332 270.708C71.0105 271.578 71.2545 272.34 71.6839 272.966C72.2265 273.756 73.0985 274.156 74.2772 274.156C75.4425 274.156 76.6519 273.764 77.8692 272.991C79.0265 272.254 80.1079 271.303 81.0852 270.163C81.7759 270.379 82.4265 270.488 83.0239 270.488C83.9825 270.488 84.9212 270.187 85.8199 269.623C84.4292 274.202 83.7145 277.711 83.7145 280.048C83.7145 281.575 84.0065 282.619 84.6078 283.236C85.2025 283.844 85.8625 284.152 86.5692 284.152C87.6919 284.152 88.7852 283.443 89.8212 282.042C90.8279 280.683 91.6612 278.902 92.2972 276.748C92.8892 274.743 93.2212 272.695 93.2839 270.654C94.1879 271.24 95.0732 271.535 95.9212 271.535C96.8612 271.535 97.8639 271.13 98.9012 270.352C97.6559 274.575 97.0159 277.836 97.0159 280.048C97.0159 281.575 97.3078 282.619 97.9078 283.236H97.9092C98.5038 283.844 99.1639 284.152 99.8705 284.152C100.992 284.152 102.087 283.443 103.123 282.042C104.129 280.683 104.961 278.902 105.597 276.748C106.189 274.743 106.521 272.695 106.585 270.654C107.489 271.24 108.373 271.535 109.223 271.535C110.207 271.535 111.26 271.102 112.352 270.25C112.488 271.428 112.957 272.435 113.796 273.226C114.791 274.164 116.181 274.639 117.928 274.639C119.463 274.639 120.997 274.251 122.489 273.486C123.837 272.794 125.084 271.842 126.199 270.65C126.433 271.778 126.972 272.739 127.805 273.51C128.757 274.394 130.06 274.842 131.672 274.842C133.839 274.842 135.956 274.038 137.964 272.454C139.959 270.88 141.548 268.831 142.688 266.362Z" fill="#4D403D"/>
</svg>
