<svg width="181" height="175" viewBox="0 0 181 175" fill="none" xmlns="http://www.w3.org/2000/svg">
<path fill-rule="evenodd" clip-rule="evenodd" d="M107.438 49.5638C101.709 46.4703 69.1028 34.8622 57.9039 41.5682C46.3527 48.4852 45.7204 58.6827 36.7488 68.3574C21.6884 84.5983 2.83818 106.38 23.3788 126.187C29.0521 131.658 48.1167 136.898 56.2213 135.607C69.1253 133.552 87.2623 129.195 95.283 119.023C107.637 103.354 117.913 88.2376 137.37 88.2376C151.939 88.2376 159.815 65.1076 144.787 60.1594C129.759 55.2111 120.683 56.7158 107.438 49.5638Z" fill="#F87171"/>
<path fill-rule="evenodd" clip-rule="evenodd" d="M89.1549 8.16793C89.29 8.22587 89.4078 8.27636 89.5061 8.31648C90.4575 8.70474 91.802 8.79299 93.8877 8.79299C97.5491 8.79299 101.126 9.28384 104.402 9.74849C104.546 9.76891 104.69 9.78927 104.833 9.80955C108.029 10.2636 110.936 10.6764 113.825 10.7501C119.293 10.8895 124.484 12.9581 128.696 14.6365C129.302 14.8781 129.888 15.1117 130.452 15.3302C131.88 15.884 133.349 16.4062 134.887 16.9517L134.99 16.9883C136.478 17.5161 138.03 18.0666 139.569 18.659C142.714 19.8699 145.989 21.3231 149.014 23.3603C149.514 23.6964 150.018 24.0341 150.526 24.3744C154.499 27.034 158.708 29.8512 162.493 33.3265C165.402 35.9973 170.006 36.0734 173.084 38.7504C174.779 40.2254 176.07 42.2588 176.792 44.3682C177.508 46.4558 177.813 49.0673 176.904 51.5712C174.65 57.781 165.089 58.9059 159.693 58.9059C155.384 58.9059 151.483 56.6506 149.077 55.2589C143.908 52.2703 141.784 49.2603 134.99 47.412C127.386 45.3432 121.287 44.3753 113.825 41.9086C111.636 41.1849 105.615 40.9929 102.908 40.5394C92.285 38.7602 82.4033 36.645 72.7442 32.1053C71.5901 31.5629 69.2025 29.4039 67.9446 28.2489C67.071 27.4467 65.923 27.3934 65.2053 26.2816C63.3636 26.2816 65.5198 21.9848 65.2053 21.3168C64.9441 20.7621 64.5198 19.7717 64.4484 18.6577C64.4475 18.6423 64.4425 18.5857 64.4349 18.499C64.4011 18.1138 64.3151 17.1345 64.2947 16.5355C64.2193 14.3266 66.4105 12.5519 67.9446 11.1376C69.947 9.29162 75.9692 7.27782 78.5745 6.9367C82.1469 6.46899 85.8397 6.74654 89.1549 8.16793ZM173.437 47.412C173.439 47.4129 173.44 47.4138 173.442 47.4147C173.447 47.4185 173.45 47.4202 173.45 47.4202C173.45 47.4202 173.446 47.4173 173.437 47.412ZM78.578 15.4664C78.5275 15.5115 78.4925 15.5559 78.4615 15.5969C78.059 16.1308 77.9889 16.4231 77.9782 16.4805C77.9776 16.4841 77.977 16.4865 77.9764 16.4879C77.9764 16.4879 77.9774 16.4896 77.978 16.4911C77.9976 16.5401 78.046 16.6274 78.1389 16.7461C78.1648 16.6357 78.1936 16.5249 78.2254 16.4142C78.3158 16.0987 78.4326 15.7803 78.578 15.4664ZM133.796 32.1053C133.796 32.1053 133.787 32.1058 133.769 32.1049C133.786 32.1045 133.796 32.1053 133.796 32.1053ZM119.351 28.2489C119.337 28.2232 119.321 28.1965 119.305 28.1687C119.17 28.1753 119.057 28.1881 118.962 28.2041C119.08 28.2604 119.198 28.316 119.317 28.3708C119.328 28.3301 119.339 28.2894 119.351 28.2489Z" fill="#44403C"/>
<path fill-rule="evenodd" clip-rule="evenodd" d="M89.1549 8.16793C89.29 8.22587 89.4078 8.27636 89.5061 8.31648C90.4575 8.70474 91.802 8.79299 93.8877 8.79299C97.5491 8.79299 101.126 9.28384 104.402 9.74849C104.546 9.76891 104.69 9.78927 104.833 9.80955C108.029 10.2636 110.936 10.6764 113.825 10.7501C119.293 10.8895 124.484 12.9581 128.696 14.6365C129.302 14.8781 129.888 15.1117 130.452 15.3302C131.88 15.884 133.349 16.4062 134.887 16.9517L134.99 16.9883C136.478 17.5161 138.03 18.0666 139.569 18.659C142.714 19.8699 145.989 21.3231 149.014 23.3603C149.514 23.6964 150.018 24.0341 150.526 24.3744C154.499 27.034 158.708 29.8512 162.493 33.3265C165.402 35.9973 170.006 36.0734 173.084 38.7504C174.779 40.2254 176.07 42.2588 176.792 44.3682C177.508 46.4558 177.813 49.0673 176.904 51.5712C174.65 57.781 165.089 58.9059 159.693 58.9059C155.384 58.9059 151.483 56.6506 149.077 55.2589C143.908 52.2703 141.784 49.2603 134.99 47.412C127.386 45.3432 121.287 44.3753 113.825 41.9086C111.636 41.1849 105.615 40.9929 102.908 40.5394C92.285 38.7602 82.4033 36.645 72.7442 32.1053C71.5901 31.5629 69.2025 29.4039 67.9446 28.2489C67.071 27.4467 65.923 27.3934 65.2053 26.2816C63.3636 26.2816 65.5198 21.9848 65.2053 21.3168C64.9441 20.7621 64.5198 19.7717 64.4484 18.6577C64.4475 18.6423 64.4425 18.5857 64.4349 18.499C64.4011 18.1138 64.3151 17.1345 64.2947 16.5355C64.2193 14.3266 66.4105 12.5519 67.9446 11.1376C69.947 9.29162 75.9692 7.27782 78.5745 6.9367C82.1469 6.46899 85.8397 6.74654 89.1549 8.16793ZM173.437 47.412C173.439 47.4129 173.44 47.4138 173.442 47.4147C173.447 47.4185 173.45 47.4202 173.45 47.4202C173.45 47.4202 173.446 47.4173 173.437 47.412ZM78.578 15.4664C78.5275 15.5115 78.4925 15.5559 78.4615 15.5969C78.059 16.1308 77.9889 16.4231 77.9782 16.4805C77.9776 16.4841 77.977 16.4865 77.9764 16.4879C77.9764 16.4879 77.9774 16.4896 77.978 16.4911C77.9976 16.5401 78.046 16.6274 78.1389 16.7461C78.1648 16.6357 78.1936 16.5249 78.2254 16.4142C78.3158 16.0987 78.4326 15.7803 78.578 15.4664ZM133.796 32.1053C133.796 32.1053 133.787 32.1058 133.769 32.1049C133.786 32.1045 133.796 32.1053 133.796 32.1053ZM119.351 28.2489C119.337 28.2232 119.321 28.1965 119.305 28.1687C119.17 28.1753 119.057 28.1881 118.962 28.2041C119.08 28.2604 119.198 28.316 119.317 28.3708C119.328 28.3301 119.339 28.2894 119.351 28.2489Z" fill="black" fill-opacity="0.2"/>
<path d="M178.055 46.7243C175.535 37.4918 166.363 31.3343 158.578 26.7893C149.113 21.2843 138.823 16.8518 128.57 13.0643C116.99 8.79678 104.848 5.68428 92.465 5.21928C82.055 4.82178 69.365 5.56428 61.595 13.4543C60.125 14.9393 61.4375 16.9943 63.035 17.1293C63.1925 17.1443 63.2825 17.3018 63.2375 17.4518C62.5325 19.7993 62.54 22.4168 63.3725 24.7493C63.98 26.4368 64.8575 27.9293 65.945 29.2643C66.02 29.3618 66.0275 29.4968 65.945 29.5943C64.9625 30.8018 63.785 31.8668 62.375 32.8043C60.11 34.3193 57.71 35.6918 56.5775 38.3093C56.4575 38.5643 56.375 38.8268 56.285 39.0818C56.2025 39.1643 56.1275 39.2543 56.045 39.3368C46.94 49.7768 38.555 61.2818 30.8375 72.7718C27.245 78.1268 23.6825 83.7593 20.495 89.6168C20.4875 89.6318 20.4725 89.6543 20.4575 89.6693C16.4225 93.9293 12.98 98.6843 10.2575 103.904C9.65002 105.074 8.77252 106.582 8.14252 108.119C8.12752 108.164 8.09002 108.202 8.05252 108.224C5.01502 110.264 4.39252 114.187 6.67252 117.164C7.14502 117.787 7.71502 118.319 8.33002 118.769C8.39002 118.814 8.42002 118.874 8.42752 118.942C8.97502 124.739 10.76 130.679 11.8475 135.982C12.7925 140.594 13.7675 145.199 14.7275 149.812C15.6875 154.424 16.2725 159.359 18.155 163.724C19.2725 166.304 20.9675 168.659 23.645 169.777C27.2975 171.307 31.07 169.844 34.52 168.457C43.16 164.984 51.5675 160.852 59.795 156.524C76.565 147.682 92.6375 137.602 109.025 128.107C115.115 124.582 128.33 116.032 129.058 115.709C132.418 114.217 135.71 112.544 138.988 110.827C145.88 107.212 152.585 103.169 159.035 98.8043C163.753 95.6018 172.393 92.7593 173.908 86.7368C174.695 83.5568 173.218 79.3493 173.443 76.0793C173.735 71.7818 174.283 67.3793 174.08 63.0743C174.08 62.8193 174.013 62.5943 173.908 62.3843C178.123 58.7243 179.6 52.2743 178.093 46.7318L178.04 46.7168L178.055 46.7243ZM58.85 40.9268C61.1975 38.4818 63.77 36.2843 66.8075 34.6643C67.58 34.2518 68.3675 33.8918 69.1775 33.5468C70.415 34.4243 71.75 35.1968 73.1375 35.8868C73.2575 36.2993 73.3925 36.7118 73.55 37.1243C74.8325 40.3418 77.39 41.3543 80.5475 42.1268C81.3875 42.3368 82.8425 42.5243 83.495 43.1768C86.27 46.0343 82.7075 46.8068 81.245 47.2868C78.71 48.1268 76.0175 48.6293 73.355 48.8843C70.985 49.1093 68.585 49.1393 66.2225 48.9893C64.85 48.9068 63.41 48.8018 62.09 48.4043C61.5275 48.1793 60.9575 47.9393 60.3725 47.7143C59.69 47.3168 59.1575 46.9043 58.8125 46.4393C60.08 46.9568 61.5725 47.1818 63.065 47.1068C64.5725 47.0393 65.105 44.5418 63.44 44.3168C62.6 44.1968 61.6025 44.1443 60.8 43.7993C60.08 43.4918 59.5475 43.0568 59.2025 42.5618C59.5775 42.0818 60.0575 41.5793 60.6425 41.0468C60.83 41.0093 60.7775 40.7168 60.59 40.7168C59.87 40.7168 59.27 40.8218 58.775 41.0243C58.775 40.9718 58.775 40.9193 58.79 40.8668L58.8425 40.9043L58.85 40.9268ZM69.65 29.7143C69.89 29.2643 70.13 28.7843 70.3325 28.3193C70.5575 28.7168 70.775 29.1068 70.985 29.5043C70.61 29.6243 70.2275 29.7443 69.8525 29.8793C69.785 29.8268 69.7175 29.7743 69.665 29.7218L69.65 29.7068V29.7143ZM159.853 55.5143C157.985 55.7693 157.318 57.8168 157.948 59.0768C154.813 57.3743 151.895 55.0493 149.818 53.3993C137.315 43.3568 122.345 39.8843 106.708 38.2493C97.1375 37.2518 87.1775 37.3718 77.9975 34.1393C77.33 33.8993 76.64 33.6368 75.9725 33.3668C75.8 32.8193 75.6275 32.2643 75.455 31.7318C78.7325 31.1093 82.0925 30.9218 85.4 30.9893C98.6225 31.2818 112.138 34.8443 124.685 38.7818C137.84 42.9068 150.478 48.4493 162.5 55.1693C161.623 55.2893 160.738 55.4093 159.86 55.5143H159.845H159.853ZM10.5575 108.607C10.595 108.524 10.64 108.419 10.6775 108.329C11.705 105.884 18.545 96.8768 21.17 92.1818C21.4625 91.8518 21.755 91.5293 22.0475 91.2218C22.3925 90.8618 22.46 90.4643 22.355 90.1043C24.17 86.9768 26.075 83.8793 28.115 80.8193C35.66 69.5543 44.06 58.9043 52.535 48.3293C53.63 46.9568 54.7475 45.5618 55.88 44.2043C56.1725 44.6318 56.5175 45.0293 56.945 45.3743C57.2375 46.9043 58.145 48.4343 59.45 49.3268C62.06 51.1118 65.7575 51.3893 68.81 51.5768C73.01 51.8318 77.315 51.4043 81.4175 50.3693C83.8325 49.7468 86.885 48.9593 87.8675 46.3268C88.1225 45.6218 88.175 44.9318 88.0775 44.2643C89 44.2793 89.8925 44.5193 90.785 45.1268C91.625 45.6968 92.1575 46.4318 92.48 47.2568C92.39 47.3618 92.3225 47.4818 92.27 47.6168C91.2275 47.5643 90.125 47.6843 89.015 48.0443C87.11 48.6668 87.8975 51.4118 89.84 51.0218C90.4775 50.9018 91.1075 50.8643 91.7225 50.9018C90.6575 51.9143 89.2025 53.1893 88.9625 53.3468C87.245 54.4493 85.3625 55.3268 83.4725 56.0993C79.7525 57.6143 75.7925 58.6418 71.795 59.1068C68.105 59.5193 64.25 59.6243 60.5975 58.8668C58.4675 58.4168 56.09 57.5768 54.5075 55.9943C52.64 54.1568 52.91 50.9543 55.415 49.6343C56.1875 49.2218 57.0575 49.0643 57.905 48.8768C58.0925 48.8393 58.0625 48.5018 57.8525 48.5318C54.185 48.8918 50.24 50.8868 52.2275 55.2593C52.8125 56.5343 53.6825 57.5468 54.7325 58.3718C54.68 58.3718 54.6275 58.3718 54.575 58.4243C47.525 62.0543 54.095 70.3268 58.8125 72.5243C65.6525 75.7268 74.42 75.3443 81.5675 73.4843C88.67 71.6243 96.86 67.2068 99.815 60.0368C101.668 55.5143 99.6425 50.8493 96.005 48.7568C95.9225 48.1193 95.51 47.5718 94.685 47.1593C93.47 44.5118 90.4475 42.6218 87.6575 42.9818C87.14 41.8643 86.2175 40.9193 85.1675 40.2443C84.74 39.9668 84.29 39.7418 83.8475 39.5543C83.9525 39.5693 84.0725 39.6068 84.17 39.6218C104.285 44.0243 126.08 41.8268 143.66 54.5693C144.778 55.3793 155.615 59.2868 158.893 62.5193C159.725 63.1793 160.415 64.1093 158.893 64.6568C153.995 66.4193 146.863 70.4093 141.17 73.1468C132.973 77.0843 124.76 80.9693 116.645 85.1018C110.525 88.2143 104.33 91.4993 99.29 96.2468C93.2547 101.952 91.447 109.55 86.45 115.837C81.3575 122.204 73.0775 126.502 64.8125 125.197C60.695 124.544 57.9725 122.497 55.6175 119.437C55.67 119.422 55.7225 119.399 55.7525 119.384C55.46 119.144 55.19 118.889 54.8975 118.627C53.99 117.764 53.405 116.842 53.045 115.889C52.0325 114.614 50.87 113.519 49.2575 112.814C43.4975 110.302 38.2475 114.067 33.02 116.062C28.2875 117.869 23.09 118.882 18.0125 118.799C15.6275 118.747 12.3875 118.694 10.385 117.269C9.46252 116.617 8.75752 115.739 8.34502 114.779C7.97002 112.664 8.54752 110.377 10.49 108.584L10.5575 108.622V108.607ZM94.8425 51.8693C96.695 53.0018 97.8275 55.0718 97.2425 57.7718C96.695 60.2993 94.7375 62.4518 92.9375 64.2068C89.3525 67.7168 84.6725 69.9518 79.85 71.1893C75.2525 72.3743 70.295 72.7868 65.585 72.2543C63.1475 71.9768 60.665 71.3918 58.4825 70.2443C55.2275 68.5043 49.9625 62.6393 55.3475 59.7218C55.64 59.5643 55.7225 59.3093 55.7075 59.0693C59.4275 61.3718 64.85 61.7018 68.72 61.6643C75.905 61.5968 83.21 59.8568 89.5925 56.4893C90.71 55.9043 93.2975 53.9243 94.8425 51.8768V51.8693ZM149.718 101.167C144.16 104.902 143.55 104.415 137.745 107.782C134.745 109.522 130.286 111.681 127.271 113.368C108.257 124.01 89.0766 134.859 70.1 145.724C62.915 149.834 55.6475 153.839 48.2375 157.574C44.6375 159.397 41 161.152 37.3325 162.817C33.7325 164.452 27.47 168.592 23.5475 166.379C20 164.369 19.2425 158.587 18.365 155.009C17.78 152.639 8.59647 119.002 13.854 120.307C16.2165 120.892 20.9404 122.107 29.5954 120.307C36.3529 118.904 39.1561 113.729 45.4561 114.779C49.6711 115.477 50.692 117.241 53.6845 121.201C57.8995 126.788 68.4863 129.7 72.1688 128.117C72.1688 128.117 81.7893 124.144 83.2593 123.109C96.1593 113.996 95.645 94.0493 118.985 88.4543C129.08 83.0318 157.048 69.7793 167.105 63.5168C167.188 63.4643 162.702 66.0867 167.375 63.5168C167.795 64.0118 173.398 60.2018 171.86 70.8668C170.99 73.9943 172.165 79.0722 171.478 83.2868C169.989 92.4133 155.787 95.0976 149.718 101.167ZM171.718 57.0818C171.89 55.8968 171.32 54.5543 170.173 54.2618C170.053 54.1418 169.895 54.0368 169.73 53.9318C169.663 53.8943 169.61 53.8643 169.543 53.8268C169.355 52.6193 169.168 51.4343 168.958 50.2493C168.493 47.4968 164.518 48.4793 164.533 51.0593C153.493 45.1268 141.928 40.1543 130.033 36.2318C116.81 31.8818 102.785 28.2893 88.8425 27.4568C83.75 27.1493 78.845 27.4568 74.2325 28.5368C73.46 26.8193 72.515 25.1693 71.3375 23.5493C70.535 22.4468 68.5925 22.3943 68.2175 23.9618C67.94 25.0793 67.58 26.1293 67.1225 27.0893C66.6425 26.4518 66.2 25.7843 65.84 25.0568C63.59 20.5868 65.4425 13.7543 71.09 13.1918C71.675 13.1393 71.9825 12.7118 72.05 12.2618C77.2625 10.4768 83.1125 10.1618 88.46 10.1618C97.58 10.1618 106.603 11.7818 115.348 14.2718C124.213 16.7993 132.808 20.2418 141.193 24.0593C149.375 27.7943 157.79 31.7843 164.72 37.6118C170.105 42.1343 175.865 49.8743 171.733 57.0443V57.0593L171.718 57.0818Z" fill="#44403C"/>
<path d="M178.055 46.7243C175.535 37.4918 166.363 31.3343 158.578 26.7893C149.113 21.2843 138.823 16.8518 128.57 13.0643C116.99 8.79678 104.848 5.68428 92.465 5.21928C82.055 4.82178 69.365 5.56428 61.595 13.4543C60.125 14.9393 61.4375 16.9943 63.035 17.1293C63.1925 17.1443 63.2825 17.3018 63.2375 17.4518C62.5325 19.7993 62.54 22.4168 63.3725 24.7493C63.98 26.4368 64.8575 27.9293 65.945 29.2643C66.02 29.3618 66.0275 29.4968 65.945 29.5943C64.9625 30.8018 63.785 31.8668 62.375 32.8043C60.11 34.3193 57.71 35.6918 56.5775 38.3093C56.4575 38.5643 56.375 38.8268 56.285 39.0818C56.2025 39.1643 56.1275 39.2543 56.045 39.3368C46.94 49.7768 38.555 61.2818 30.8375 72.7718C27.245 78.1268 23.6825 83.7593 20.495 89.6168C20.4875 89.6318 20.4725 89.6543 20.4575 89.6693C16.4225 93.9293 12.98 98.6843 10.2575 103.904C9.65002 105.074 8.77252 106.582 8.14252 108.119C8.12752 108.164 8.09002 108.202 8.05252 108.224C5.01502 110.264 4.39252 114.187 6.67252 117.164C7.14502 117.787 7.71502 118.319 8.33002 118.769C8.39002 118.814 8.42002 118.874 8.42752 118.942C8.97502 124.739 10.76 130.679 11.8475 135.982C12.7925 140.594 13.7675 145.199 14.7275 149.812C15.6875 154.424 16.2725 159.359 18.155 163.724C19.2725 166.304 20.9675 168.659 23.645 169.777C27.2975 171.307 31.07 169.844 34.52 168.457C43.16 164.984 51.5675 160.852 59.795 156.524C76.565 147.682 92.6375 137.602 109.025 128.107C115.115 124.582 128.33 116.032 129.058 115.709C132.418 114.217 135.71 112.544 138.988 110.827C145.88 107.212 152.585 103.169 159.035 98.8043C163.753 95.6018 172.393 92.7593 173.908 86.7368C174.695 83.5568 173.218 79.3493 173.443 76.0793C173.735 71.7818 174.283 67.3793 174.08 63.0743C174.08 62.8193 174.013 62.5943 173.908 62.3843C178.123 58.7243 179.6 52.2743 178.093 46.7318L178.04 46.7168L178.055 46.7243ZM58.85 40.9268C61.1975 38.4818 63.77 36.2843 66.8075 34.6643C67.58 34.2518 68.3675 33.8918 69.1775 33.5468C70.415 34.4243 71.75 35.1968 73.1375 35.8868C73.2575 36.2993 73.3925 36.7118 73.55 37.1243C74.8325 40.3418 77.39 41.3543 80.5475 42.1268C81.3875 42.3368 82.8425 42.5243 83.495 43.1768C86.27 46.0343 82.7075 46.8068 81.245 47.2868C78.71 48.1268 76.0175 48.6293 73.355 48.8843C70.985 49.1093 68.585 49.1393 66.2225 48.9893C64.85 48.9068 63.41 48.8018 62.09 48.4043C61.5275 48.1793 60.9575 47.9393 60.3725 47.7143C59.69 47.3168 59.1575 46.9043 58.8125 46.4393C60.08 46.9568 61.5725 47.1818 63.065 47.1068C64.5725 47.0393 65.105 44.5418 63.44 44.3168C62.6 44.1968 61.6025 44.1443 60.8 43.7993C60.08 43.4918 59.5475 43.0568 59.2025 42.5618C59.5775 42.0818 60.0575 41.5793 60.6425 41.0468C60.83 41.0093 60.7775 40.7168 60.59 40.7168C59.87 40.7168 59.27 40.8218 58.775 41.0243C58.775 40.9718 58.775 40.9193 58.79 40.8668L58.8425 40.9043L58.85 40.9268ZM69.65 29.7143C69.89 29.2643 70.13 28.7843 70.3325 28.3193C70.5575 28.7168 70.775 29.1068 70.985 29.5043C70.61 29.6243 70.2275 29.7443 69.8525 29.8793C69.785 29.8268 69.7175 29.7743 69.665 29.7218L69.65 29.7068V29.7143ZM159.853 55.5143C157.985 55.7693 157.318 57.8168 157.948 59.0768C154.813 57.3743 151.895 55.0493 149.818 53.3993C137.315 43.3568 122.345 39.8843 106.708 38.2493C97.1375 37.2518 87.1775 37.3718 77.9975 34.1393C77.33 33.8993 76.64 33.6368 75.9725 33.3668C75.8 32.8193 75.6275 32.2643 75.455 31.7318C78.7325 31.1093 82.0925 30.9218 85.4 30.9893C98.6225 31.2818 112.138 34.8443 124.685 38.7818C137.84 42.9068 150.478 48.4493 162.5 55.1693C161.623 55.2893 160.738 55.4093 159.86 55.5143H159.845H159.853ZM10.5575 108.607C10.595 108.524 10.64 108.419 10.6775 108.329C11.705 105.884 18.545 96.8768 21.17 92.1818C21.4625 91.8518 21.755 91.5293 22.0475 91.2218C22.3925 90.8618 22.46 90.4643 22.355 90.1043C24.17 86.9768 26.075 83.8793 28.115 80.8193C35.66 69.5543 44.06 58.9043 52.535 48.3293C53.63 46.9568 54.7475 45.5618 55.88 44.2043C56.1725 44.6318 56.5175 45.0293 56.945 45.3743C57.2375 46.9043 58.145 48.4343 59.45 49.3268C62.06 51.1118 65.7575 51.3893 68.81 51.5768C73.01 51.8318 77.315 51.4043 81.4175 50.3693C83.8325 49.7468 86.885 48.9593 87.8675 46.3268C88.1225 45.6218 88.175 44.9318 88.0775 44.2643C89 44.2793 89.8925 44.5193 90.785 45.1268C91.625 45.6968 92.1575 46.4318 92.48 47.2568C92.39 47.3618 92.3225 47.4818 92.27 47.6168C91.2275 47.5643 90.125 47.6843 89.015 48.0443C87.11 48.6668 87.8975 51.4118 89.84 51.0218C90.4775 50.9018 91.1075 50.8643 91.7225 50.9018C90.6575 51.9143 89.2025 53.1893 88.9625 53.3468C87.245 54.4493 85.3625 55.3268 83.4725 56.0993C79.7525 57.6143 75.7925 58.6418 71.795 59.1068C68.105 59.5193 64.25 59.6243 60.5975 58.8668C58.4675 58.4168 56.09 57.5768 54.5075 55.9943C52.64 54.1568 52.91 50.9543 55.415 49.6343C56.1875 49.2218 57.0575 49.0643 57.905 48.8768C58.0925 48.8393 58.0625 48.5018 57.8525 48.5318C54.185 48.8918 50.24 50.8868 52.2275 55.2593C52.8125 56.5343 53.6825 57.5468 54.7325 58.3718C54.68 58.3718 54.6275 58.3718 54.575 58.4243C47.525 62.0543 54.095 70.3268 58.8125 72.5243C65.6525 75.7268 74.42 75.3443 81.5675 73.4843C88.67 71.6243 96.86 67.2068 99.815 60.0368C101.668 55.5143 99.6425 50.8493 96.005 48.7568C95.9225 48.1193 95.51 47.5718 94.685 47.1593C93.47 44.5118 90.4475 42.6218 87.6575 42.9818C87.14 41.8643 86.2175 40.9193 85.1675 40.2443C84.74 39.9668 84.29 39.7418 83.8475 39.5543C83.9525 39.5693 84.0725 39.6068 84.17 39.6218C104.285 44.0243 126.08 41.8268 143.66 54.5693C144.778 55.3793 155.615 59.2868 158.893 62.5193C159.725 63.1793 160.415 64.1093 158.893 64.6568C153.995 66.4193 146.863 70.4093 141.17 73.1468C132.973 77.0843 124.76 80.9693 116.645 85.1018C110.525 88.2143 104.33 91.4993 99.29 96.2468C93.2547 101.952 91.447 109.55 86.45 115.837C81.3575 122.204 73.0775 126.502 64.8125 125.197C60.695 124.544 57.9725 122.497 55.6175 119.437C55.67 119.422 55.7225 119.399 55.7525 119.384C55.46 119.144 55.19 118.889 54.8975 118.627C53.99 117.764 53.405 116.842 53.045 115.889C52.0325 114.614 50.87 113.519 49.2575 112.814C43.4975 110.302 38.2475 114.067 33.02 116.062C28.2875 117.869 23.09 118.882 18.0125 118.799C15.6275 118.747 12.3875 118.694 10.385 117.269C9.46252 116.617 8.75752 115.739 8.34502 114.779C7.97002 112.664 8.54752 110.377 10.49 108.584L10.5575 108.622V108.607ZM94.8425 51.8693C96.695 53.0018 97.8275 55.0718 97.2425 57.7718C96.695 60.2993 94.7375 62.4518 92.9375 64.2068C89.3525 67.7168 84.6725 69.9518 79.85 71.1893C75.2525 72.3743 70.295 72.7868 65.585 72.2543C63.1475 71.9768 60.665 71.3918 58.4825 70.2443C55.2275 68.5043 49.9625 62.6393 55.3475 59.7218C55.64 59.5643 55.7225 59.3093 55.7075 59.0693C59.4275 61.3718 64.85 61.7018 68.72 61.6643C75.905 61.5968 83.21 59.8568 89.5925 56.4893C90.71 55.9043 93.2975 53.9243 94.8425 51.8768V51.8693ZM149.718 101.167C144.16 104.902 143.55 104.415 137.745 107.782C134.745 109.522 130.286 111.681 127.271 113.368C108.257 124.01 89.0766 134.859 70.1 145.724C62.915 149.834 55.6475 153.839 48.2375 157.574C44.6375 159.397 41 161.152 37.3325 162.817C33.7325 164.452 27.47 168.592 23.5475 166.379C20 164.369 19.2425 158.587 18.365 155.009C17.78 152.639 8.59647 119.002 13.854 120.307C16.2165 120.892 20.9404 122.107 29.5954 120.307C36.3529 118.904 39.1561 113.729 45.4561 114.779C49.6711 115.477 50.692 117.241 53.6845 121.201C57.8995 126.788 68.4863 129.7 72.1688 128.117C72.1688 128.117 81.7893 124.144 83.2593 123.109C96.1593 113.996 95.645 94.0493 118.985 88.4543C129.08 83.0318 157.048 69.7793 167.105 63.5168C167.188 63.4643 162.702 66.0867 167.375 63.5168C167.795 64.0118 173.398 60.2018 171.86 70.8668C170.99 73.9943 172.165 79.0722 171.478 83.2868C169.989 92.4133 155.787 95.0976 149.718 101.167ZM171.718 57.0818C171.89 55.8968 171.32 54.5543 170.173 54.2618C170.053 54.1418 169.895 54.0368 169.73 53.9318C169.663 53.8943 169.61 53.8643 169.543 53.8268C169.355 52.6193 169.168 51.4343 168.958 50.2493C168.493 47.4968 164.518 48.4793 164.533 51.0593C153.493 45.1268 141.928 40.1543 130.033 36.2318C116.81 31.8818 102.785 28.2893 88.8425 27.4568C83.75 27.1493 78.845 27.4568 74.2325 28.5368C73.46 26.8193 72.515 25.1693 71.3375 23.5493C70.535 22.4468 68.5925 22.3943 68.2175 23.9618C67.94 25.0793 67.58 26.1293 67.1225 27.0893C66.6425 26.4518 66.2 25.7843 65.84 25.0568C63.59 20.5868 65.4425 13.7543 71.09 13.1918C71.675 13.1393 71.9825 12.7118 72.05 12.2618C77.2625 10.4768 83.1125 10.1618 88.46 10.1618C97.58 10.1618 106.603 11.7818 115.348 14.2718C124.213 16.7993 132.808 20.2418 141.193 24.0593C149.375 27.7943 157.79 31.7843 164.72 37.6118C170.105 42.1343 175.865 49.8743 171.733 57.0443V57.0593L171.718 57.0818Z" fill="black" fill-opacity="0.2"/>
</svg>
